<?xml version="1.0" standalone="no"?>
<!DOCTYPE svg PUBLIC "-//W3C//DTD SVG 20010904//EN"
 "http://www.w3.org/TR/2001/REC-SVG-20010904/DTD/svg10.dtd">
<svg version="1.0" xmlns="http://www.w3.org/2000/svg"
 width="1000.000000pt" height="1000.000000pt" viewBox="0 0 1000.000000 1000.000000"
 preserveAspectRatio="xMidYMid meet">
<metadata>
Created by potrace 1.11, written by Peter Selinger 2001-2013
</metadata>
<g transform="translate(0.000000,1000.000000) scale(0.100000,-0.100000)"
fill="#000000" stroke="none">
<path d="M8676 9104 c-3 -7 -24 -14 -47 -16 -38 -3 -44 -6 -51 -33 -6 -23 -3
-41 14 -75 13 -25 26 -46 31 -48 4 -2 7 -10 7 -18 0 -8 6 -14 14 -14 11 0 15
-19 18 -72 6 -94 1 -529 -6 -588 -3 -25 -8 -70 -10 -100 -8 -79 -15 -132 -36
-264 -16 -96 -64 -173 -140 -226 -28 -19 -81 -56 -117 -82 -36 -27 -72 -48
-79 -48 -7 0 -19 -6 -26 -13 -7 -7 -32 -22 -55 -33 -23 -10 -43 -24 -43 -29 0
-10 -60 -51 -60 -41 0 3 15 20 33 38 18 18 46 51 62 73 16 22 35 46 42 53 15
16 17 26 3 17 -13 -8 -13 1 1 26 5 11 14 17 19 14 5 -3 7 4 5 15 -2 11 6 32
19 47 13 16 27 42 30 60 4 17 14 37 22 43 7 7 11 16 8 21 -7 12 48 98 64 99 6
0 12 7 12 15 0 8 5 15 10 15 6 0 10 7 10 15 0 8 5 15 10 15 6 0 10 7 10 15 0
8 4 15 8 15 10 0 73 76 76 93 2 7 6 19 9 27 3 8 8 28 12 44 3 15 13 35 20 43
16 16 18 37 6 68 -7 18 -11 15 -26 -21 -10 -23 -31 -50 -46 -60 -15 -10 -25
-22 -22 -27 3 -6 15 1 25 14 14 17 16 18 9 4 -15 -28 -79 -90 -87 -83 -7 8
-70 -62 -67 -74 2 -4 -3 -8 -10 -8 -15 0 -96 -80 -82 -80 6 0 2 -5 -7 -11 -9
-5 -15 -15 -12 -23 5 -13 -105 -143 -195 -231 -41 -39 -51 -45 -51 -30 -1 20
-1 20 -15 1 -13 -17 -15 -18 -15 -3 0 9 -5 17 -11 17 -6 0 -9 -8 -6 -19 2 -10
0 -26 -5 -35 -12 -21 -82 -66 -104 -66 -15 0 -15 3 2 28 15 23 15 25 1 13 -9
-7 -17 -12 -18 -10 0 2 -1 42 -1 89 -1 105 8 162 27 176 8 6 15 17 15 23 0 7
8 26 17 44 9 18 18 34 18 37 2 14 46 90 55 95 11 7 40 71 40 89 0 6 -8 -1 -18
-17 -9 -15 -22 -25 -29 -23 -7 3 -10 0 -8 -7 3 -7 -13 -32 -35 -57 l-40 -45
20 45 c11 25 20 55 20 68 0 12 4 30 9 40 43 80 112 284 124 362 2 10 9 25 16
34 7 8 10 20 6 25 -3 6 -1 29 6 51 14 45 1 90 -25 90 -8 0 -19 7 -24 16 -5 9
-21 17 -36 17 -27 2 -27 3 -21 46 6 41 5 43 -15 38 -20 -5 -21 -4 -6 18 15 23
15 24 -16 23 -18 -1 -34 4 -36 10 -2 7 -12 12 -22 12 -10 0 -20 4 -22 8 -1 5
-34 21 -73 37 -38 15 -78 34 -87 42 -16 14 -20 14 -42 0 -32 -21 -49 -77 -42
-135 3 -26 7 -54 7 -62 2 -23 -10 -84 -41 -210 -18 -72 -28 -136 -26 -170 2
-60 -10 -116 -31 -141 -17 -20 -17 -35 0 -42 8 -3 14 1 14 8 0 24 25 75 35 69
5 -3 7 -13 4 -22 -3 -10 -6 -44 -7 -77 -1 -33 -6 -72 -11 -87 -10 -29 -48 -68
-48 -50 0 16 -27 15 -32 0 -6 -20 -1 -141 7 -161 4 -9 4 -32 1 -50 -6 -31 -7
-47 -3 -97 1 -15 -9 -38 -28 -59 -60 -70 -214 -221 -225 -221 -6 0 -40 -25
-76 -55 -127 -108 -238 -175 -289 -175 -41 0 -82 26 -90 57 -16 64 -15 90 5
108 12 11 21 37 26 74 3 31 11 62 17 69 6 7 10 30 9 50 -2 39 15 97 34 122 6
8 24 38 38 65 80 150 156 263 235 345 48 50 64 59 76 41 8 -14 -14 -96 -42
-158 -12 -28 -23 -55 -23 -58 0 -9 -128 -204 -157 -238 -13 -16 -21 -32 -18
-36 2 -5 -9 -20 -25 -35 -17 -14 -30 -30 -30 -35 0 -5 -9 -13 -20 -16 -38 -12
-23 -67 27 -98 24 -15 104 21 149 67 25 25 52 46 60 46 8 0 12 5 9 10 -8 13
14 42 26 34 5 -3 9 2 9 10 0 9 3 16 8 16 4 0 13 13 20 29 7 16 24 41 37 55 13
14 22 32 19 40 -3 7 6 37 19 67 64 143 84 216 81 293 -2 32 -5 64 -8 72 -3 7
4 20 15 28 l20 14 -22 51 c-12 28 -26 51 -30 51 -5 0 -14 11 -19 25 -5 14 -14
25 -20 25 -5 0 -10 11 -10 24 0 28 -24 46 -100 71 -30 11 -62 25 -71 32 -8 7
-19 13 -23 13 -4 0 -22 11 -39 24 -61 45 -121 53 -152 20 -26 -28 -37 -31 -28
-8 5 13 -1 15 -36 11 -49 -4 -90 -38 -139 -113 -6 -10 -15 -26 -18 -34 -4 -8
-20 -44 -36 -80 -32 -70 -67 -156 -74 -180 -27 -100 -45 -213 -47 -303 -1 -57
-2 -58 -18 -38 -14 17 -18 18 -23 5 -3 -8 -2 -12 4 -9 6 4 10 -12 10 -39 0
-25 -4 -46 -10 -46 -5 0 -10 -9 -10 -20 0 -14 -5 -18 -17 -14 -16 5 -16 4 -2
-8 11 -9 15 -28 14 -58 -4 -116 77 -328 165 -434 40 -48 72 -76 86 -76 24 0
28 -2 54 -20 32 -22 67 -33 103 -32 75 2 217 75 252 129 12 18 20 23 23 14 3
-8 24 8 59 43 29 31 57 55 61 52 4 -2 13 2 20 10 7 8 10 14 7 14 -3 0 4 11 17
24 13 13 30 33 38 46 8 12 25 34 38 48 30 36 34 41 56 85 25 48 44 44 63 -13
18 -54 58 -112 108 -160 33 -32 41 -35 96 -35 51 0 63 -4 77 -23 22 -28 68
-34 122 -16 58 20 74 12 23 -12 -25 -11 -43 -27 -45 -39 -2 -11 -15 -24 -33
-30 -16 -5 -32 -13 -35 -16 -3 -3 -16 -10 -30 -14 -14 -4 -36 -16 -49 -26 -13
-11 -28 -19 -32 -19 -5 0 -18 -9 -29 -20 -11 -11 -27 -20 -35 -20 -8 0 -15 -5
-15 -11 0 -5 -5 -7 -10 -4 -6 4 -8 11 -5 16 4 5 1 9 -4 9 -6 0 -11 -4 -11 -10
0 -5 -6 -10 -13 -10 -8 0 -22 -10 -33 -22 -10 -12 -13 -18 -6 -14 18 10 15 -4
-5 -27 -18 -20 -18 -20 17 -2 19 9 50 28 68 42 17 13 32 21 32 17 0 -12 -48
-52 -94 -79 -23 -14 -77 -55 -118 -93 -132 -118 -144 -129 -169 -143 -13 -7
-30 -14 -38 -15 -15 -3 -56 -44 -43 -44 4 0 18 9 30 20 32 30 27 11 -7 -25
-16 -16 -42 -49 -57 -71 -16 -23 -50 -69 -76 -102 -26 -33 -54 -76 -64 -94 -9
-18 -23 -37 -30 -41 -8 -4 -14 -17 -14 -27 0 -11 -7 -20 -15 -20 -10 0 -12 6
-8 18 7 16 6 16 -11 -1 -10 -9 -22 -15 -27 -12 -9 6 -13 -7 -10 -31 1 -7 -5
-14 -14 -18 -8 -3 -15 -14 -15 -25 0 -27 -11 -52 -20 -46 -5 3 -6 -4 -3 -15 3
-11 1 -26 -5 -33 -6 -6 -9 -37 -7 -68 7 -120 105 -242 203 -252 15 -2 33 -6
39 -10 16 -10 123 14 158 35 17 10 38 21 48 24 9 4 17 10 17 14 0 4 9 10 20
13 39 10 20 27 -30 27 -59 0 -114 20 -139 51 -16 21 -16 22 8 48 15 15 41 46
60 69 26 32 37 39 47 31 16 -13 3 -47 -43 -108 -18 -24 -31 -46 -29 -49 3 -2
32 23 65 57 33 33 64 61 69 61 13 0 140 79 170 105 12 11 26 20 30 20 4 0 21
10 39 23 17 12 35 22 41 22 5 0 15 7 22 15 7 9 15 13 17 11 3 -2 17 7 33 20
15 14 50 37 76 51 27 14 81 50 120 79 39 30 75 54 80 54 5 0 27 15 50 33 22
17 90 57 150 87 60 30 115 61 122 68 7 6 21 12 30 12 9 0 33 10 52 21 27 17
31 18 20 4 -13 -15 -52 -37 -72 -39 -4 -1 -13 -7 -19 -13 -7 -7 -19 -13 -27
-13 -7 0 -11 -4 -8 -9 7 -10 72 6 95 23 7 6 25 9 40 8 14 -2 35 4 46 13 19 14
19 15 -8 5 -40 -14 -51 -12 -33 5 8 8 20 15 26 15 6 0 28 9 49 20 21 10 41 17
43 14 8 -8 81 26 136 64 97 66 137 91 162 102 18 8 21 13 11 19 -9 6 -31 -3
-63 -23 -27 -17 -61 -39 -76 -48 -15 -10 -48 -27 -74 -39 -27 -12 -48 -26 -48
-32 0 -6 -3 -8 -6 -4 -4 3 -24 -3 -45 -14 -61 -31 -45 -8 19 28 31 17 73 45
92 62 19 17 39 31 43 31 16 0 167 165 167 182 0 5 -6 8 -14 8 -11 0 -10 8 5
40 11 22 19 56 17 74 -1 19 3 41 10 49 6 7 10 16 7 19 -3 3 4 13 15 23 11 10
20 27 20 39 0 15 -3 17 -12 8 -21 -21 -25 -14 -23 39 1 31 7 54 16 60 12 7 12
9 0 9 -10 0 -11 8 -6 33 4 17 9 63 12 101 3 49 10 75 24 90 20 21 24 32 34
104 3 29 2 41 -5 37 -15 -9 -12 6 4 24 8 9 17 30 21 46 l6 30 -25 -27 c-14
-16 -28 -28 -31 -28 -9 0 1 54 15 81 7 12 14 48 15 78 1 31 7 70 14 86 8 18
15 91 18 180 2 83 5 175 7 205 4 134 -25 307 -61 362 -15 22 -27 49 -28 61 -1
12 -7 22 -14 22 -17 0 -41 34 -41 57 0 12 -7 18 -23 18 -13 0 -34 11 -47 25
-13 14 -25 23 -27 21 -2 -2 -19 0 -38 4 -24 6 -35 4 -39 -6z m-51 -34 c3 -5 1
-10 -4 -10 -6 0 -11 5 -11 10 0 6 2 10 4 10 3 0 8 -4 11 -10z m-1835 -550 c0
-5 -9 -8 -20 -7 -20 1 -25 8 -14 20 8 7 34 -3 34 -13z m1530 -564 c0 -2 -7 -6
-15 -10 -8 -3 -15 -1 -15 4 0 6 7 10 15 10 8 0 15 -2 15 -4z m-1793 -151 c0
-8 -4 -15 -9 -15 -4 0 -8 7 -8 15 0 8 4 15 8 15 5 0 9 -7 9 -15z m475 -137
c-7 -7 -12 -8 -12 -2 0 14 12 26 19 19 2 -3 -1 -11 -7 -17z m938 -603 c-7 -8
-17 -15 -22 -15 -33 0 -124 -92 -112 -112 3 -5 2 -8 -3 -7 -13 3 -45 -12 -79
-37 -17 -13 -34 -20 -37 -17 -10 9 -57 -26 -57 -41 0 -13 -45 -60 -130 -136
-19 -17 -44 -39 -55 -49 -21 -19 -65 -34 -65 -22 0 3 9 12 20 19 38 23 20 33
-20 10 -22 -13 -40 -28 -40 -34 0 -11 -49 -38 -57 -31 -2 2 36 40 84 83 48 43
103 95 123 115 19 20 44 41 55 48 19 12 18 12 -5 7 -23 -5 -23 -4 9 24 34 30
69 41 55 18 -5 -9 -3 -9 9 1 9 7 15 17 12 21 -3 5 7 15 22 22 37 19 77 42 83
48 16 16 50 29 50 20 0 -6 17 2 38 18 80 64 161 94 122 47z m-441 -173 c-13
-16 -37 -39 -54 -50 -28 -20 -41 -33 -115 -109 -36 -38 -31 -42 12 -12 l30 22
-31 -44 c-18 -24 -44 -51 -58 -60 -15 -10 -30 -25 -35 -33 -5 -9 -18 -16 -28
-16 -11 0 -20 -7 -20 -15 0 -8 -5 -15 -10 -15 -13 0 -25 -10 -91 -73 -28 -27
-53 -47 -55 -44 -6 6 49 88 103 153 18 23 33 45 33 50 0 16 216 204 234 204 6
1 31 18 56 40 50 44 64 45 29 2z m-29 -92 c-25 -22 -54 -40 -65 -40 -13 0 1
14 40 40 33 22 62 40 65 40 3 0 -15 -18 -40 -40z"/>
<path d="M7225 6610 c-3 -5 -1 -10 4 -10 6 0 11 5 11 10 0 6 -2 10 -4 10 -3 0
-8 -4 -11 -10z"/>
<path d="M5953 9042 c0 -14 -6 -28 -13 -30 -6 -2 -28 -39 -49 -81 -20 -42 -44
-87 -53 -101 -22 -33 -88 -219 -88 -247 0 -13 -4 -23 -9 -23 -15 0 -21 -21
-55 -200 -2 -8 -6 -22 -9 -30 -8 -23 -20 -72 -23 -100 -2 -14 -7 -45 -11 -70
-5 -25 -8 -88 -7 -140 3 -86 0 -100 -23 -145 -76 -145 -102 -199 -97 -207 3
-5 1 -15 -6 -22 -6 -8 -13 -24 -15 -37 -3 -12 -27 -79 -54 -148 -27 -69 -64
-162 -81 -206 -18 -44 -39 -98 -47 -120 -8 -22 -20 -43 -26 -47 -6 -4 -8 -10
-4 -14 4 -4 2 -13 -3 -19 -6 -7 -21 -49 -35 -93 -26 -90 -53 -153 -69 -164 -6
-4 -7 -8 -2 -8 5 0 4 -6 -1 -12 -6 -7 -32 -71 -58 -143 -27 -71 -52 -134 -56
-139 -4 -5 -8 76 -8 180 0 104 0 212 -1 239 -1 28 1 61 5 75 23 84 39 247 25
255 -6 4 -8 10 -5 15 9 14 23 100 16 100 -7 -1 -52 -97 -58 -124 -2 -10 -8
-26 -13 -35 -8 -12 -9 -8 -6 17 2 18 9 38 14 45 5 7 13 28 17 47 4 19 10 40
14 45 4 6 9 28 10 50 2 22 6 42 10 45 4 3 7 16 8 30 6 92 16 169 28 195 7 17
16 41 20 53 7 24 7 24 -20 6 l-28 -18 8 24 c4 14 10 32 13 40 4 11 -1 10 -16
-4 -12 -11 -22 -14 -22 -8 0 6 4 13 9 16 5 3 11 24 13 47 3 38 1 43 -29 63
-18 11 -33 26 -33 33 0 6 -18 20 -40 30 -22 10 -40 23 -40 29 0 6 -9 23 -20
36 -17 22 -28 25 -87 27 -37 1 -82 6 -100 12 -24 8 -38 7 -60 -4 -15 -8 -40
-13 -54 -12 -26 3 -27 2 -18 -31 7 -22 6 -40 -1 -53 -6 -13 -7 -28 -1 -44 6
-14 8 -27 6 -28 -1 -2 -6 -26 -9 -53 -4 -27 -9 -53 -11 -57 -3 -3 -7 -31 -11
-60 -3 -30 -8 -56 -10 -58 -2 -2 -28 11 -58 28 -31 17 -63 31 -71 31 -8 0 -15
4 -15 8 0 5 -11 14 -25 20 -14 6 -25 7 -25 2 0 -5 -10 -10 -22 -12 -13 -2 -22
-9 -20 -16 1 -6 -4 -12 -12 -12 -8 0 -16 8 -18 17 -3 14 -7 13 -32 -10 -15
-14 -41 -32 -57 -39 -17 -8 -29 -21 -30 -33 -1 -35 -7 -57 -18 -68 -6 -6 -11
-15 -11 -21 0 -5 6 -2 13 9 9 11 16 14 20 8 4 -6 -6 -24 -21 -39 -34 -36 -76
-93 -85 -117 -4 -9 -25 -44 -47 -77 -22 -32 -40 -63 -40 -68 0 -5 -7 -15 -15
-22 -8 -6 -14 -24 -14 -38 -1 -69 -3 -72 -34 -87 -45 -22 -64 -38 -65 -55 0
-8 -3 -35 -7 -60 -10 -69 -11 -200 -2 -200 5 0 5 -6 0 -12 -12 -21 -13 -69 -3
-138 5 -36 12 -92 16 -125 4 -33 8 -67 9 -75 1 -8 14 -39 28 -67 15 -29 28
-56 28 -60 9 -59 63 -148 131 -215 105 -105 178 -132 205 -76 17 35 51 142 57
178 1 9 11 43 23 75 34 98 66 208 68 235 2 14 12 54 23 90 27 89 32 109 38
155 3 22 9 41 14 43 5 2 6 10 3 19 -4 10 -2 14 4 10 7 -5 10 5 8 26 -2 19 1
40 7 48 6 10 8 2 3 -24 -4 -25 -3 -37 4 -33 13 9 8 -33 -9 -64 -12 -22 -11
-24 2 -13 12 10 15 10 16 0 0 -6 3 -24 5 -39 2 -16 0 -25 -5 -21 -6 3 -8 -3
-5 -13 3 -11 8 -41 12 -68 3 -27 9 -54 12 -59 3 -6 7 -43 9 -84 3 -102 44
-184 128 -256 69 -60 115 -91 123 -83 3 2 16 1 28 -4 18 -7 35 -3 71 16 25 13
54 22 64 19 25 -8 52 5 46 22 -3 7 1 16 9 19 8 4 12 10 9 16 -3 5 1 15 9 21
13 10 44 87 38 95 -1 1 6 16 14 32 8 16 15 32 14 35 -1 8 58 150 101 240 21
44 50 112 64 150 15 39 31 78 37 88 5 10 7 22 4 27 -4 6 -2 10 2 10 8 0 45 79
49 102 1 5 3 11 4 16 1 4 2 11 1 15 -1 5 5 20 13 35 25 48 39 86 43 116 2 16
10 38 19 47 9 10 14 25 11 34 -4 8 -3 15 1 15 4 0 9 14 10 31 1 17 9 41 18 54
9 13 13 29 9 35 -3 5 -1 10 5 10 6 0 8 5 5 10 -4 6 -3 16 3 23 12 17 53 129
58 163 3 16 6 37 8 47 1 10 7 22 12 25 5 4 18 33 28 65 11 31 23 57 27 57 5 0
13 -19 19 -42 20 -76 72 -210 100 -257 71 -121 136 -219 162 -246 75 -77 108
-121 104 -137 -2 -11 14 -36 41 -65 68 -73 83 -98 139 -248 4 -11 8 -27 10
-35 2 -8 6 -31 10 -50 11 -54 12 -152 1 -183 -11 -32 -83 -98 -135 -123 -42
-20 -142 -50 -219 -66 -35 -8 -53 -16 -53 -26 0 -11 -3 -12 -14 -3 -11 9 -16
9 -22 0 -5 -8 -3 -10 7 -4 9 5 11 5 4 -2 -5 -6 -23 -13 -38 -17 -26 -6 -28 -5
-22 16 4 13 16 37 26 54 11 17 19 39 19 47 0 9 9 32 20 52 11 19 17 35 15 35
-9 0 73 115 107 150 33 35 70 120 82 192 5 26 2 47 -10 69 -13 26 -14 37 -4
57 9 21 8 28 -5 41 -15 15 -16 14 -14 -9 2 -14 1 -27 -1 -28 -7 -5 -60 20 -60
27 0 4 -11 18 -24 32 -15 16 -23 35 -21 51 3 30 -33 61 -83 73 -18 3 -50 22
-72 40 -47 39 -86 50 -124 35 -24 -9 -27 -8 -23 4 4 9 2 18 -3 21 -4 3 -16
-17 -24 -43 -9 -27 -27 -59 -41 -72 -13 -12 -24 -30 -23 -39 0 -16 -76 -264
-107 -351 -21 -57 -48 -224 -48 -295 1 -116 24 -212 62 -257 8 -10 11 -18 7
-18 -4 0 -2 -9 5 -21 10 -19 9 -20 -13 -14 l-23 7 21 -23 c11 -13 33 -45 48
-71 15 -27 31 -48 36 -48 6 0 10 -5 10 -11 0 -6 7 -17 15 -25 8 -9 15 -12 15
-9 0 4 21 -12 46 -34 26 -23 52 -41 59 -41 6 0 33 -11 60 -25 27 -13 53 -21
58 -18 6 4 7 1 2 -7 -6 -10 -2 -12 16 -7 13 3 35 8 47 11 17 4 22 1 19 -8 -4
-10 0 -12 14 -9 10 3 19 0 19 -6 0 -6 -5 -11 -12 -11 -6 0 -8 -3 -5 -7 7 -6
31 -10 70 -12 10 -1 22 -12 27 -25 10 -28 38 -35 135 -36 33 0 69 0 80 0 23
-1 53 5 75 13 8 3 32 11 52 17 20 6 42 17 48 25 6 8 33 26 58 41 49 28 102 81
102 100 0 6 15 28 33 47 56 63 62 71 86 127 46 107 56 171 54 370 -1 167 -13
235 -58 326 -19 40 -35 75 -35 78 0 4 -11 23 -24 44 -35 57 -86 157 -91 180
-3 18 -52 82 -227 298 -94 116 -105 145 -103 255 1 52 7 119 13 149 7 30 15
67 17 82 3 15 9 37 14 50 5 13 9 25 9 28 0 3 11 41 25 85 14 44 33 112 42 150
9 39 22 75 29 80 6 6 22 35 35 65 13 30 29 62 37 71 8 8 14 18 14 22 0 12 65
102 88 120 32 27 27 56 -18 102 -30 30 -40 48 -40 73 0 19 -4 31 -10 27 -16
-10 -59 28 -60 52 0 13 -10 27 -22 34 -13 6 -31 20 -41 31 -11 10 -26 17 -35
15 -10 -2 -32 7 -50 21 -18 13 -40 21 -48 18 -12 -4 -14 -1 -9 14 4 11 2 20
-4 20 -6 0 -11 -6 -11 -13 0 -14 -63 -18 -76 -4 -4 4 -13 2 -20 -4 -8 -7 -14
-6 -20 2 -8 13 37 53 46 40 9 -13 61 -20 57 -7 -5 15 -50 36 -89 41 -30 4 -33
2 -35 -23z m-1879 -1696 c-9 -15 -19 -25 -21 -22 -3 2 3 16 13 30 9 15 19 25
21 22 3 -2 -3 -16 -13 -30z m-43 -78 c-6 -30 -41 -54 -41 -29 0 6 5 11 10 11
6 0 10 6 10 13 0 10 18 37 26 37 1 0 -2 -15 -5 -32z m408 -366 c-6 -18 -15
-32 -20 -32 -12 0 -11 6 7 41 19 39 28 33 13 -9z m-31 -109 c-2 -5 -9 -19 -16
-33 -11 -23 -45 -140 -58 -198 -5 -27 -34 -102 -44 -117 -4 -5 -22 -63 -40
-128 -34 -116 -41 -127 -54 -75 -5 21 -1 30 15 42 18 12 22 27 25 88 1 40 5
88 8 107 9 59 61 191 75 191 8 0 51 81 51 98 0 6 8 16 18 21 21 13 24 13 20 4z
m157 -93 c3 -5 1 -10 -4 -10 -6 0 -11 5 -11 10 0 6 2 10 4 10 3 0 8 -4 11 -10z
m400 -49 c3 -5 1 -12 -5 -16 -5 -3 -10 1 -10 9 0 18 6 21 15 7z m-15 -111 c0
-5 -5 -10 -11 -10 -5 0 -7 5 -4 10 3 6 8 10 11 10 2 0 4 -4 4 -10z m1115 -600
c-3 -5 -14 -10 -23 -10 -15 0 -15 2 -2 10 20 13 33 13 25 0z"/>
<path d="M3073 8867 c-18 -5 -33 -13 -33 -18 0 -4 -14 -11 -31 -14 -54 -12
-169 -98 -286 -214 -96 -95 -117 -111 -144 -111 -31 0 -32 0 -14 -20 15 -17
16 -23 5 -51 l-13 -31 -16 26 c-17 29 -31 34 -31 12 0 -8 -3 -23 -7 -33 -6
-15 -5 -16 9 -5 10 8 19 9 22 3 6 -10 -44 -51 -62 -51 -6 0 -12 6 -15 13 -2 7
-10 0 -18 -16 -9 -19 -18 -27 -30 -24 -10 3 -26 -4 -36 -16 -10 -11 -12 -17
-5 -13 8 5 12 0 12 -13 0 -14 -5 -19 -14 -15 -11 4 -17 -5 -22 -30 -3 -20 -12
-40 -19 -44 -7 -4 -22 -27 -33 -52 -12 -25 -40 -73 -62 -107 -41 -62 -57 -103
-39 -103 17 0 9 -27 -21 -68 -16 -23 -30 -45 -30 -49 -1 -5 -11 -21 -24 -36
-21 -26 -24 -27 -39 -13 -14 15 -16 14 -22 -4 -4 -11 -10 -18 -15 -15 -5 3
-20 -1 -34 -10 -13 -9 -45 -17 -70 -18 -26 -1 -44 -6 -42 -12 4 -11 32 -11 60
0 14 6 18 5 14 -5 -2 -8 -45 -24 -99 -37 -122 -29 -169 -44 -169 -54 0 -5 11
-4 25 1 26 10 39 13 115 29 25 5 58 14 73 20 37 14 37 14 37 -8 0 -20 -4 -21
-135 -40 -38 -6 -79 -15 -90 -20 -90 -42 -136 -61 -152 -61 -28 -1 -118 -34
-120 -44 -1 -9 -24 -23 -111 -66 -24 -12 -41 -24 -38 -27 3 -4 -13 -20 -36
-37 -24 -17 -58 -46 -77 -64 -18 -17 -38 -32 -45 -32 -6 0 5 14 24 30 l35 30
-34 -17 c-19 -10 -40 -21 -45 -26 -31 -22 -88 -57 -93 -57 -11 0 -104 -73 -99
-78 3 -2 14 1 23 9 16 13 17 12 4 -4 -8 -10 -21 -15 -28 -12 -12 4 -96 -57
-133 -95 -3 -3 -18 -14 -35 -24 -66 -42 -154 -128 -267 -261 -65 -77 -135
-158 -154 -180 l-35 -40 23 44 c13 24 29 46 36 48 7 3 10 13 8 22 -6 19 18 50
57 75 15 10 27 27 27 37 0 11 5 19 10 19 6 0 10 6 10 14 0 8 6 17 13 19 6 3 3
6 -8 6 -11 1 -28 -8 -38 -19 -9 -11 -15 -20 -13 -20 2 0 -16 -20 -40 -45 -26
-27 -41 -51 -38 -60 4 -9 -3 -18 -18 -24 -23 -9 -37 -30 -73 -114 -18 -42 -44
-77 -58 -77 -4 0 -5 5 -2 10 3 6 2 10 -4 10 -6 0 -20 -18 -31 -40 -11 -22 -29
-46 -40 -52 -11 -7 -20 -16 -20 -21 0 -4 5 -5 11 -1 7 4 10 1 7 -7 -3 -8 -10
-13 -16 -12 -6 2 -16 -5 -21 -15 -15 -27 -55 -178 -60 -224 -1 -5 -6 -8 -12
-8 -6 0 -8 7 -5 16 3 9 2 12 -5 8 -6 -4 -8 -17 -3 -33 4 -14 8 -60 9 -101 2
-65 8 -108 15 -117 2 -2 3 -6 4 -10 1 -5 5 -14 9 -20 5 -7 5 -13 2 -13 -4 0
10 -30 31 -67 45 -81 175 -215 192 -198 7 6 -17 29 -62 61 -11 7 -17 16 -14
19 2 3 35 -18 71 -45 67 -51 85 -71 46 -50 -11 7 -23 9 -26 7 -5 -6 56 -40
101 -57 44 -16 23 23 -29 53 -57 33 -156 113 -169 135 -5 9 11 0 35 -20 24
-19 50 -33 57 -31 6 3 12 0 12 -7 0 -6 5 -8 10 -5 6 3 10 0 10 -7 0 -7 35 -29
76 -48 41 -19 80 -43 85 -53 6 -10 18 -17 27 -16 21 3 73 -11 88 -22 22 -17
102 -36 115 -28 10 6 8 9 -8 9 -12 0 -26 6 -30 14 -4 8 -15 14 -23 14 -33 -2
-51 2 -45 11 3 5 -5 17 -17 25 -31 22 -10 19 32 -4 19 -11 29 -19 21 -20 -8 0
-12 -3 -8 -6 3 -3 13 -2 22 3 13 7 5 15 -39 36 -66 32 -210 127 -203 133 7 7
74 -32 122 -70 22 -17 68 -44 103 -61 43 -20 58 -31 50 -38 -9 -5 -6 -6 8 -2
27 7 54 -3 54 -22 0 -8 -5 -11 -12 -7 -7 4 -8 3 -4 -5 10 -15 26 -4 26 18 0
12 -14 24 -44 35 -94 36 -297 173 -275 186 7 5 8 10 1 14 -6 3 -12 0 -15 -6
-5 -13 -117 98 -117 115 0 5 -8 21 -18 35 -10 15 -26 48 -36 74 -29 78 -33
220 -6 203 6 -4 10 7 10 23 0 31 62 161 95 200 23 26 37 28 34 5 -4 -45 4 -44
22 2 26 68 92 177 163 272 61 80 171 193 188 193 5 0 50 34 100 75 51 41 94
72 97 70 5 -6 -5 -16 -99 -95 -72 -60 -201 -192 -195 -199 3 -2 24 15 48 38
48 46 107 86 107 71 0 -5 -16 -22 -36 -37 -20 -15 -44 -36 -53 -47 -9 -10 -36
-41 -61 -68 -25 -28 -66 -80 -92 -117 -26 -36 -51 -70 -55 -76 -5 -5 -28 -41
-52 -80 -24 -38 -54 -86 -67 -105 -41 -63 -52 -98 -61 -189 -4 -47 -3 -62 6
-57 6 4 11 16 11 26 0 23 29 89 48 109 7 7 21 30 32 51 11 21 25 42 31 45 6 4
19 21 29 38 45 74 296 343 386 414 21 17 49 33 60 37 12 4 34 18 50 32 53 46
132 105 214 160 30 21 65 47 78 57 12 11 22 17 22 13 0 -5 6 -4 13 2 17 14
130 72 140 72 5 0 48 19 96 41 47 23 103 48 124 55 l39 14 -7 -33 c-9 -41 -20
-51 -74 -66 -35 -10 -41 -15 -29 -22 10 -6 26 -5 42 1 30 11 44 -3 26 -25 -7
-8 -10 -15 -6 -15 3 0 -1 -16 -9 -37 -8 -20 -13 -38 -10 -41 3 -3 11 9 17 26
7 18 16 32 19 32 7 0 2 -24 -16 -75 -5 -16 -1 -14 19 8 30 32 34 18 11 -34 -9
-21 -14 -27 -15 -16 0 24 -23 17 -25 -9 -1 -10 -5 -32 -9 -49 -3 -16 -8 -41
-11 -54 -2 -13 -9 -39 -15 -56 -6 -18 -12 -48 -14 -66 -5 -41 -16 -72 -30 -81
-6 -4 -9 -22 -8 -42 1 -19 -2 -37 -8 -41 -6 -3 -10 4 -10 17 -1 52 -18 -10
-25 -87 -3 -44 -8 -81 -10 -83 -2 -2 5 -20 15 -40 10 -21 22 -64 26 -96 6 -51
5 -58 -9 -53 -8 3 -18 0 -20 -7 -8 -20 2 -119 12 -129 5 -5 7 -16 4 -25 -4
-10 -2 -13 5 -8 15 9 20 -5 26 -72 5 -55 19 -106 42 -157 7 -16 24 -56 38 -88
14 -31 32 -60 40 -63 8 -3 18 -15 22 -27 7 -22 12 -30 94 -147 25 -36 52 -77
59 -92 13 -26 36 -46 134 -121 26 -20 47 -39 47 -43 -1 -8 26 -24 102 -60 31
-15 58 -35 61 -44 10 -40 107 -70 144 -45 10 6 35 12 56 14 45 2 85 16 109 38
10 9 18 14 18 10 0 -7 65 10 115 30 22 10 58 33 81 53 22 19 66 57 97 84 32
26 57 54 57 60 0 7 18 31 40 54 22 23 48 61 58 86 21 53 56 100 140 183 65 66
79 72 37 17 -14 -18 -25 -37 -25 -43 0 -5 -6 -16 -13 -23 -20 -21 -57 -88 -57
-104 0 -8 -4 -14 -10 -14 -5 0 -10 -6 -10 -13 0 -7 -13 -27 -30 -45 -34 -37
-37 -44 -15 -36 8 4 15 3 15 -2 0 -14 -175 -175 -255 -235 -44 -33 -91 -69
-105 -79 -14 -11 -41 -31 -60 -45 -19 -14 -32 -26 -29 -26 2 -1 15 -3 29 -5
32 -3 207 81 221 107 5 10 15 19 22 19 15 0 77 61 77 75 0 6 14 19 30 30 18
12 30 29 30 42 0 12 11 39 25 59 14 20 25 47 25 59 0 12 9 33 20 46 32 39 35
44 36 54 1 22 36 86 49 91 8 3 17 16 21 27 4 12 25 48 47 79 26 37 40 68 40
88 0 17 3 26 7 20 6 -10 18 8 34 50 3 8 16 31 28 51 13 20 37 60 53 88 17 28
34 51 38 51 5 0 5 4 2 10 -3 5 8 30 24 54 17 25 31 48 31 51 0 4 13 35 29 69
44 92 71 154 71 161 0 3 9 24 19 48 21 46 29 75 38 125 2 19 18 52 33 75 28
41 53 156 32 143 -13 -8 -23 19 -16 39 4 8 3 15 0 15 -7 0 -27 -49 -28 -67 -1
-13 -32 -32 -40 -25 -4 4 2 33 12 64 13 39 16 66 11 85 -5 16 -5 38 0 50 11
31 -48 125 -73 117 -11 -3 -18 0 -18 8 0 7 -5 20 -10 28 -9 13 -11 13 -21 0
-9 -13 -10 -13 -6 2 3 9 -2 23 -12 32 -21 19 -38 21 -22 3 13 -16 5 -28 -15
-20 -8 3 -14 16 -14 29 0 17 -4 22 -15 18 -8 -4 -22 -1 -30 6 -16 13 -87 21
-79 9 3 -5 12 -9 20 -9 23 0 13 -43 -13 -55 -17 -7 -21 -15 -17 -32 4 -13 1
-30 -6 -38 -13 -16 -35 -21 -26 -6 3 5 0 14 -8 20 -10 9 -15 8 -20 -4 -3 -9
-2 -13 4 -10 6 3 10 -1 10 -9 0 -9 7 -16 15 -16 8 0 15 -9 15 -20 0 -11 4 -20
8 -20 5 0 10 -8 12 -17 6 -32 2 -224 -5 -231 -3 -3 -15 -1 -25 6 -26 16 -26
16 -26 -20 0 -57 -15 -138 -27 -138 -6 0 -8 -3 -4 -6 3 -3 -8 -31 -24 -62 -17
-32 -33 -68 -35 -81 -3 -14 -13 -30 -22 -37 -9 -8 -13 -14 -9 -14 5 0 -1 -17
-12 -37 -11 -21 -34 -69 -51 -108 -37 -83 -78 -145 -96 -145 -7 0 -20 -13 -28
-28 -8 -16 -30 -47 -48 -68 -18 -22 -44 -55 -58 -73 -140 -181 -178 -218 -275
-266 -22 -11 -48 -26 -57 -34 -10 -8 -18 -11 -18 -7 0 3 -25 -7 -56 -24 -67
-36 -120 -47 -145 -31 -11 6 -29 11 -41 11 -112 0 -227 131 -256 290 -10 56
-9 310 1 327 4 5 13 44 22 86 25 124 63 229 147 416 11 25 26 61 33 80 23 65
107 231 116 231 5 0 9 7 9 16 0 15 24 64 43 89 4 5 22 32 40 59 18 28 40 61
49 75 10 14 24 40 32 56 34 66 59 94 86 95 9 0 24 15 34 34 22 42 55 57 131
63 69 4 132 19 193 45 24 10 53 20 65 23 12 2 39 9 60 15 20 5 52 14 70 19 50
14 128 42 173 62 23 11 48 19 57 19 9 0 21 9 27 20 6 11 22 23 37 26 14 4 55
33 90 65 36 33 71 59 79 59 8 0 14 5 14 11 0 7 -10 9 -27 4 -23 -5 -26 -4 -15
6 6 7 12 20 12 29 0 9 11 31 24 49 14 18 22 39 19 47 -3 8 -1 14 4 14 16 0 34
68 27 105 -4 21 -2 41 5 49 6 7 10 24 9 37 -3 22 0 24 36 21 22 -2 50 -1 63 3
22 5 24 10 22 60 -2 39 -8 60 -21 72 -10 9 -18 20 -18 24 0 5 -11 21 -25 36
-13 16 -51 62 -83 103 -33 41 -91 105 -128 142 -80 78 -248 208 -269 208 -8 0
-15 4 -15 10 0 27 -84 44 -137 27z m372 -719 c-12 -76 -18 -91 -48 -119 -16
-16 -47 -34 -69 -41 -21 -6 -38 -15 -38 -20 0 -6 -6 -8 -12 -6 -7 3 -21 -3
-31 -13 -19 -17 -89 -39 -126 -39 -12 0 -21 -7 -21 -15 0 -8 -8 -15 -18 -15
-10 0 -27 -7 -38 -15 -10 -8 -27 -15 -36 -15 -9 0 -20 -5 -24 -11 -4 -8 0 -9
15 -4 11 3 21 2 21 -3 0 -8 -11 -13 -62 -27 -5 -2 -17 -3 -29 -4 -13 -1 -19
-6 -16 -14 3 -8 -4 -14 -17 -15 -11 0 -40 -8 -64 -18 -23 -9 -49 -14 -57 -11
-7 3 -23 -3 -35 -13 -19 -16 -62 -22 -152 -21 -10 0 -18 -5 -18 -10 0 -6 -5
-7 -10 -4 -7 4 6 22 30 43 22 21 84 79 137 129 54 51 103 93 110 93 15 0 -19
-71 -50 -103 -12 -13 -32 -38 -45 -55 -13 -17 -31 -34 -41 -37 -9 -3 -17 -14
-17 -25 0 -13 5 -19 14 -15 7 3 18 5 23 5 5 0 8 4 7 9 -6 19 185 200 216 205
7 1 31 16 53 34 23 18 46 32 52 32 6 0 11 3 11 8 0 4 24 18 53 32 28 14 54 28
57 31 5 6 88 46 135 65 29 11 107 31 128 33 14 1 16 -5 12 -31z m-853 -370
c-43 -39 -50 -32 -11 11 16 18 33 30 37 27 3 -4 -8 -21 -26 -38z m263 -38 c-3
-5 -12 -10 -18 -10 -7 0 -6 4 3 10 19 12 23 12 15 0z m-337 -30 c-12 -18 -38
-35 -38 -25 0 9 34 45 42 45 5 0 3 -9 -4 -20z m-498 -104 c0 -2 -7 -9 -15 -16
-13 -11 -14 -10 -9 4 5 14 24 23 24 12z m-90 -26 c-8 -6 -25 -10 -37 -10 -24
0 -33 -20 -10 -20 28 -1 -44 -30 -85 -34 -23 -2 -65 -8 -93 -11 -38 -6 -47 -5
-39 4 6 6 26 14 45 16 19 3 50 7 71 10 20 3 47 9 60 14 21 9 21 10 3 11 -19 1
-19 1 -2 11 11 6 33 13 50 16 18 3 34 7 36 9 2 2 7 2 10 -2 3 -3 -1 -9 -9 -14z
m-511 -144 c-12 -11 -79 -34 -79 -26 0 4 12 13 28 18 27 11 59 15 51 8z m-229
-220 c0 -12 -102 -96 -116 -96 -3 0 -39 -26 -79 -57 -41 -32 -99 -74 -129 -93
-31 -19 -56 -38 -56 -42 0 -3 -20 -18 -44 -32 -50 -29 -206 -175 -206 -192 0
-11 -121 -146 -179 -198 -18 -17 -54 -60 -79 -95 -49 -68 -85 -111 -95 -111
-14 0 96 182 122 200 4 3 23 27 42 55 18 27 51 68 73 90 21 22 47 57 57 78 20
38 228 252 237 243 3 -3 -1 -12 -8 -21 -19 -23 2 -18 30 8 14 13 63 49 110 80
47 32 118 81 159 110 66 47 133 84 154 86 4 1 7 -5 7 -13z m1121 -52 c-12 -25
-19 -49 -16 -54 3 -5 -4 -25 -15 -45 -11 -19 -20 -41 -20 -47 0 -6 -31 -75
-70 -153 -38 -78 -70 -145 -70 -148 0 -4 -15 -39 -34 -79 -38 -82 -123 -294
-132 -328 0 -3 -3 -12 -6 -20 -17 -43 -37 -120 -42 -160 -3 -25 -13 -69 -20
-99 -25 -92 -31 -86 -51 43 -8 53 -17 101 -20 107 -4 5 -1 16 5 24 6 8 9 19 5
25 -4 6 -2 16 3 23 5 7 13 35 17 64 4 28 13 54 20 57 7 2 16 19 20 37 4 19 11
40 16 49 12 23 22 53 24 70 1 8 9 32 18 54 9 21 17 45 17 52 0 8 4 22 9 32 11
21 25 56 42 102 7 19 17 42 24 50 6 8 17 29 25 45 8 17 26 48 41 70 15 22 52
79 83 128 32 48 61 85 66 82 5 -3 17 9 26 27 19 37 47 62 52 47 2 -5 -6 -30
-17 -55z m-271 -166 c0 -18 -122 -268 -131 -268 -14 0 2 65 23 87 12 13 18 23
15 23 -4 0 -1 10 7 23 8 12 17 37 21 55 4 17 10 32 13 32 4 0 13 14 20 30 14
30 32 40 32 18z m1258 -503 c-6 -14 -13 -23 -16 -21 -7 7 9 46 18 46 5 0 4
-11 -2 -25z m-8 -45 c0 -5 -4 -10 -8 -10 -4 0 -9 -8 -10 -17 -4 -42 -9 -57
-20 -61 -13 -4 -6 49 10 81 9 18 28 23 28 7z m180 -25 c-6 -15 -13 -25 -17
-21 -3 3 0 17 7 31 17 32 24 26 10 -10z m-1917 -4 c2 -10 1 -25 -4 -32 -6 -10
-9 -4 -9 19 0 36 5 42 13 13z m1873 -104 c-14 -47 -35 -89 -36 -71 0 6 7 28
15 48 8 20 12 36 9 36 -4 0 -1 7 6 15 19 23 20 19 6 -28z m-200 -53 c-4 -9 -9
-15 -11 -12 -3 3 -3 13 1 22 4 9 9 15 11 12 3 -3 3 -13 -1 -22z m-1603 -149
c4 -8 2 -17 -3 -20 -6 -4 -10 3 -10 14 0 25 6 27 13 6z m-1304 -432 c20 -18
31 -33 26 -33 -15 0 -135 116 -135 131 0 6 16 -6 37 -27 20 -21 52 -53 72 -71z
m2891 42 c0 -8 -4 -15 -10 -15 -5 0 -7 7 -4 15 4 8 8 15 10 15 2 0 4 -7 4 -15z
m-2777 -96 c17 -11 42 -24 55 -31 27 -14 28 -24 2 -31 -13 -3 -20 0 -20 10 0
8 -5 11 -12 7 -6 -4 -8 -3 -5 2 3 6 -14 22 -39 38 -24 15 -44 32 -44 38 0 6 6
5 15 -2 8 -7 30 -21 48 -31z m2027 -493 c0 -11 -19 -15 -25 -6 -3 5 1 10 9 10
9 0 16 -2 16 -4z"/>
<path d="M8080 8559 c0 -5 5 -7 10 -4 6 3 10 8 10 11 0 2 -4 4 -10 4 -5 0 -10
-5 -10 -11z"/>
<path d="M8089 8248 c-14 -46 -20 -113 -10 -102 13 13 30 104 20 104 -5 0 -9
-1 -10 -2z"/>
<path d="M7185 8130 c-16 -17 -16 -20 -3 -15 9 4 19 13 22 21 7 19 2 18 -19
-6z"/>
<path d="M8445 8129 c-11 -16 -1 -19 13 -3 7 8 8 14 3 14 -5 0 -13 -5 -16 -11z"/>
<path d="M4620 8100 c0 -5 7 -10 16 -10 8 0 12 5 9 10 -3 6 -10 10 -16 10 -5
0 -9 -4 -9 -10z"/>
<path d="M8066 8083 c-13 -13 -37 -76 -31 -81 10 -10 33 22 40 56 7 32 5 38
-9 25z"/>
<path d="M8032 7960 c3 -18 0 -30 -6 -30 -6 0 -16 -16 -22 -35 -10 -32 -9 -35
10 -34 12 0 15 3 8 6 -11 4 -10 8 2 22 8 9 15 19 15 24 1 4 1 8 2 10 8 29 6
67 -2 67 -7 0 -9 -12 -7 -30z"/>
<path d="M8197 7868 c-37 -36 -37 -37 -9 -22 33 16 56 39 50 52 -1 4 -20 -9
-41 -30z"/>
<path d="M7986 7805 c-8 -23 -8 -25 8 -25 8 0 13 7 12 15 -3 23 -13 27 -20 10z"/>
<path d="M1810 7760 c-13 -9 -13 -10 0 -10 8 0 22 5 30 10 13 9 13 10 0 10 -8
0 -22 -5 -30 -10z"/>
<path d="M7980 7740 c-9 -16 -8 -18 5 -14 8 4 15 12 15 20 0 20 -7 17 -20 -6z"/>
<path d="M1746 7743 c-4 -5 -22 -8 -39 -8 -17 0 -32 -6 -35 -14 -3 -8 0 -11 7
-7 6 4 11 3 11 -3 0 -6 -9 -15 -20 -21 -11 -6 -18 -15 -15 -21 4 -5 13 -6 22
0 9 5 33 6 54 4 41 -6 103 13 93 28 -3 5 0 9 5 9 6 0 11 -4 11 -10 0 -5 4 -10
8 -10 12 0 9 40 -3 41 -5 1 -20 0 -32 -1 -13 -1 -23 3 -23 9 0 12 -33 15 -44
4z m64 -45 c0 -4 -9 -8 -19 -8 -11 0 -22 4 -25 8 -2 4 6 8 20 8 13 0 24 -4 24
-8z"/>
<path d="M1560 7708 c-25 -12 -47 -22 -50 -23 -9 -3 -44 -17 -72 -29 -16 -6
-28 -14 -28 -17 0 -8 99 28 115 41 6 5 27 11 48 15 20 4 37 11 37 17 0 5 5 6
10 3 6 -3 10 -1 10 4 0 16 -19 12 -70 -11z"/>
<path d="M7965 7690 c-18 -19 -17 -20 3 -20 15 0 22 6 22 20 0 11 -2 20 -3 20
-2 0 -12 -9 -22 -20z"/>
<path d="M1570 7650 c0 -5 5 -10 11 -10 5 0 7 5 4 10 -3 6 -8 10 -11 10 -2 0
-4 -4 -4 -10z"/>
<path d="M1379 7623 c-13 -16 -12 -17 4 -4 9 7 17 15 17 17 0 8 -8 3 -21 -13z"/>
<path d="M1470 7619 c0 -5 5 -7 10 -4 6 3 10 8 10 11 0 2 -4 4 -10 4 -5 0 -10
-5 -10 -11z"/>
<path d="M1668 7614 c-4 -3 -21 -8 -40 -11 -35 -5 -44 -10 -37 -18 7 -7 77 14
84 25 7 11 2 13 -7 4z"/>
<path d="M1484 7556 c-10 -8 -15 -18 -11 -22 4 -4 17 2 30 14 24 25 12 30 -19
8z"/>
<path d="M1377 7545 c-14 -7 -28 -11 -30 -8 -3 2 -8 0 -11 -5 -3 -6 0 -12 7
-14 16 -6 83 27 70 35 -5 3 -21 0 -36 -8z"/>
<path d="M1425 7520 c-3 -5 -2 -10 4 -10 5 0 13 5 16 10 3 6 2 10 -4 10 -5 0
-13 -4 -16 -10z"/>
<path d="M1396 7513 c-4 -4 -18 -9 -32 -10 -14 -2 -34 -13 -44 -23 -11 -11
-24 -20 -30 -20 -5 0 -10 -5 -10 -12 0 -9 3 -9 12 0 7 7 22 12 35 12 13 0 23
4 23 9 0 5 14 14 30 21 17 7 30 16 30 21 0 11 -4 11 -14 2z"/>
<path d="M1270 7499 c0 -5 5 -7 10 -4 6 3 10 8 10 11 0 2 -4 4 -10 4 -5 0 -10
-5 -10 -11z"/>
<path d="M8900 7449 c0 -5 5 -7 10 -4 6 3 10 8 10 11 0 2 -4 4 -10 4 -5 0 -10
-5 -10 -11z"/>
<path d="M1235 7440 c-3 -5 3 -10 14 -10 12 0 21 5 21 10 0 6 -6 10 -14 10 -8
0 -18 -4 -21 -10z"/>
<path d="M4030 7430 c0 -5 5 -10 10 -10 6 0 10 5 10 10 0 6 -4 10 -10 10 -5 0
-10 -4 -10 -10z"/>
<path d="M6790 7354 c0 -8 5 -12 10 -9 6 3 10 10 10 16 0 5 -4 9 -10 9 -5 0
-10 -7 -10 -16z"/>
<path d="M7796 7275 c-10 -7 -15 -18 -11 -24 3 -6 1 -11 -5 -11 -6 0 -20 -9
-32 -20 -12 -11 -16 -20 -10 -20 14 0 92 69 92 81 0 13 -12 11 -34 -6z"/>
<path d="M791 7229 c-31 -25 -23 -33 9 -9 14 10 23 21 20 23 -3 3 -16 -3 -29
-14z"/>
<path d="M8967 7210 c-20 -20 -37 -27 -59 -26 -20 0 -32 -4 -35 -14 -4 -13 -3
-13 6 0 9 13 12 13 23 1 9 -10 10 -15 2 -18 -7 -2 -9 -13 -6 -25 4 -16 2 -19
-8 -13 -9 5 -11 4 -6 -4 4 -6 11 -9 16 -6 5 3 8 -8 8 -25 -1 -16 -5 -31 -10
-31 -4 -1 -12 -3 -18 -4 -5 -1 -14 -3 -20 -4 -5 0 -10 -5 -10 -10 0 -5 15 -7
33 -5 17 1 38 3 45 3 6 1 12 8 12 16 0 8 -6 15 -12 15 -10 0 -10 2 -1 8 11 7
83 152 83 166 0 12 -16 3 -43 -24z"/>
<path d="M822 7153 c-11 -10 -29 -23 -39 -30 -14 -9 -15 -12 -3 -12 8 0 28 11
44 25 32 28 31 44 -2 17z"/>
<path d="M3240 7116 c0 -2 7 -6 15 -10 8 -3 15 -1 15 4 0 6 -7 10 -15 10 -8 0
-15 -2 -15 -4z"/>
<path d="M573 7093 c-13 -2 -23 -11 -23 -19 0 -8 -5 -14 -11 -14 -5 0 -7 -5
-4 -10 3 -6 -2 -13 -12 -17 -10 -4 -29 -17 -43 -30 l-24 -22 25 7 c30 8 92 60
108 91 7 11 10 20 9 20 -2 -1 -13 -4 -25 -6z"/>
<path d="M600 6990 c-14 -10 -22 -21 -19 -24 3 -4 18 5 33 19 32 29 22 33 -14
5z"/>
<path d="M607 6948 c-25 -26 -16 -33 12 -9 12 11 18 21 14 24 -4 2 -16 -5 -26
-15z"/>
<path d="M412 6914 c-27 -29 -20 -31 14 -5 14 11 21 21 17 24 -4 2 -18 -6 -31
-19z"/>
<path d="M560 6900 c-9 -6 -10 -10 -3 -10 6 0 15 5 18 10 8 12 4 12 -15 0z"/>
<path d="M500 6875 c-7 -9 -11 -17 -8 -20 2 -2 12 4 21 15 9 11 13 20 8 20 -5
0 -14 -7 -21 -15z"/>
<path d="M353 6836 c-15 -19 -36 -48 -46 -65 -15 -26 -16 -30 -2 -25 8 3 15
12 15 19 0 7 12 26 28 42 46 50 55 63 44 63 -6 0 -23 -15 -39 -34z"/>
<path d="M7189 6764 c-13 -14 -17 -23 -9 -19 13 5 46 45 37 45 -2 0 -14 -11
-28 -26z"/>
<path d="M1606 6764 c-4 -9 -4 -19 -1 -22 2 -3 7 3 11 12 4 9 4 19 1 22 -2 3
-7 -3 -11 -12z"/>
<path d="M266 6704 c-10 -14 -16 -28 -13 -30 2 -3 12 7 21 22 10 14 16 28 13
30 -2 3 -12 -7 -21 -22z"/>
<path d="M8428 6696 c-10 -7 -18 -17 -18 -21 0 -4 -8 -14 -17 -21 -15 -11 -22
-9 -45 13 l-27 26 -7 -27 c-3 -14 -12 -26 -19 -26 -13 0 -27 -23 -30 -50 -1
-8 -12 -46 -23 -85 -11 -38 -24 -88 -27 -110 -4 -22 -16 -78 -27 -125 -11 -47
-21 -92 -23 -101 -2 -9 -8 -33 -13 -52 -6 -20 -7 -38 -4 -42 4 -3 2 -9 -4 -13
-6 -4 -15 -18 -19 -31 -5 -17 -4 -22 5 -16 9 6 11 0 8 -24 -6 -39 -3 -39 17 0
27 51 27 27 0 -65 -29 -101 -29 -100 -10 -93 16 7 30 -8 16 -17 -4 -3 -8 -17
-8 -32 0 -14 -6 -29 -12 -33 -7 -5 -9 -15 -5 -26 5 -12 4 -16 -3 -12 -6 4 -17
-1 -26 -11 -15 -16 -15 -19 3 -30 11 -7 20 -8 20 -3 0 4 12 20 26 35 23 22 24
26 9 26 -17 0 -17 1 -2 18 11 12 13 22 6 34 -6 11 -6 19 1 23 5 3 10 1 10 -5
0 -6 5 -8 10 -5 8 5 8 11 1 19 -8 9 -4 16 14 26 14 8 24 19 21 25 -2 7 9 24
25 39 16 15 29 33 29 39 0 7 4 6 10 -3 12 -19 12 -19 44 73 16 42 32 77 37 77
5 0 9 8 9 17 0 12 3 14 11 6 7 -7 6 -29 -6 -72 -9 -35 -15 -70 -13 -79 1 -9
-4 -28 -12 -42 -17 -30 -22 -52 -9 -44 17 10 9 -9 -18 -44 -14 -19 -30 -55
-35 -80 -4 -26 -19 -57 -33 -72 -27 -28 -35 -50 -11 -31 23 19 27 -3 10 -50
-8 -24 -17 -66 -20 -93 -3 -27 -9 -57 -14 -67 -6 -11 -6 -20 -1 -23 5 -4 12 0
15 6 3 7 3 1 0 -14 -5 -22 -2 -28 11 -28 12 0 15 -5 11 -17 -4 -9 -2 -19 4
-23 7 -4 2 -17 -12 -35 -17 -22 -18 -27 -6 -23 14 6 15 2 7 -25 -5 -18 -14
-34 -19 -35 -6 -2 -8 -8 -4 -13 3 -5 0 -9 -5 -9 -6 0 -11 -5 -11 -11 0 -5 5
-7 12 -3 8 5 9 2 5 -10 -4 -10 -7 -20 -7 -22 0 -3 -4 -3 -9 0 -5 3 -12 -1 -15
-10 -3 -8 -2 -12 4 -9 6 3 10 1 10 -4 0 -6 -6 -11 -12 -11 -9 0 -9 -3 1 -9 12
-8 12 -14 2 -38 -11 -28 -19 -67 -26 -123 -4 -35 -4 -37 -14 -21 -5 8 -14 10
-22 6 -9 -6 -7 -10 9 -16 18 -7 21 -14 16 -41 -4 -18 -13 -39 -20 -47 -11 -12
-10 -17 4 -27 11 -9 13 -13 4 -14 -7 0 -11 -4 -8 -8 6 -10 -12 -83 -23 -94
-11 -12 -11 33 0 55 7 12 7 23 1 29 -9 9 -14 -7 -38 -107 -4 -16 -7 -33 -6
-37 1 -3 -10 -38 -23 -76 -13 -39 -27 -90 -31 -114 -13 -91 -31 -169 -33 -143
-2 18 -4 17 -13 -5 -11 -27 -16 -48 -17 -68 -1 -8 -7 -12 -13 -9 -7 2 -12 15
-10 28 2 23 2 23 -9 4 -7 -10 -13 -31 -13 -46 -1 -20 3 -26 17 -24 10 3 17 -2
17 -12 0 -11 -7 -14 -26 -10 -18 3 -22 1 -15 -6 17 -17 13 -31 -4 -17 -8 7
-15 9 -16 4 -5 -57 -6 -124 -1 -124 4 0 7 -18 7 -40 0 -22 -3 -40 -6 -40 -13
0 14 -107 37 -149 14 -26 22 -52 18 -65 -4 -17 5 -32 40 -64 25 -23 40 -42 34
-42 -6 0 -20 7 -30 17 -14 13 -18 13 -18 2 0 -18 87 -75 144 -94 37 -13 51
-13 82 -3 37 12 40 12 64 -15 14 -15 32 -29 40 -31 8 -1 31 -11 50 -21 19 -11
38 -18 43 -17 4 1 7 -3 7 -8 0 -6 -5 -10 -11 -10 -5 0 -7 -4 -4 -10 9 -14 71
-13 95 2 15 9 24 9 43 -1 16 -9 41 -11 78 -6 30 4 60 7 67 6 58 -2 82 -2 112
4 40 7 140 55 140 67 0 4 6 8 13 8 18 0 114 96 134 134 9 17 41 68 72 114 58
86 94 151 133 237 22 49 24 56 27 83 0 6 6 12 13 12 13 0 111 103 125 130 4
10 18 31 31 46 64 82 150 249 197 384 1 3 5 12 8 20 39 91 81 224 92 290 3 19
11 40 17 47 6 7 8 13 5 13 -3 0 8 38 24 86 36 107 44 150 30 158 -11 7 -40
-31 -46 -62 -4 -24 -27 -62 -37 -62 -6 0 5 51 16 68 8 13 17 72 11 72 -6 0
-46 -86 -50 -105 -1 -5 -3 -13 -5 -17 -1 -5 -3 -11 -5 -15 -6 -24 -18 -43 -26
-43 -5 0 -5 7 0 18 12 23 42 108 51 146 4 17 11 40 15 51 l7 20 -14 -20 c-8
-11 -22 -41 -32 -67 -10 -27 -22 -48 -27 -48 -5 0 -9 -7 -9 -16 0 -8 -4 -13
-9 -10 -10 7 -21 -27 -21 -65 0 -15 -7 -32 -15 -39 -8 -7 -12 -16 -10 -21 3
-4 1 -16 -4 -26 -5 -10 -26 -72 -47 -138 -22 -66 -42 -121 -46 -123 -5 -2 -8
-8 -8 -14 0 -5 -14 -26 -31 -46 -17 -20 -44 -68 -60 -107 -17 -38 -40 -80 -51
-92 -12 -13 -18 -23 -13 -23 5 0 -3 -12 -17 -27 -15 -16 -38 -54 -53 -85 -15
-32 -35 -60 -45 -63 -10 -3 -24 -19 -33 -36 -11 -25 -16 -27 -21 -14 -3 10 3
29 15 46 11 16 18 33 15 37 -3 5 2 18 10 28 15 19 15 19 10 -1 -6 -20 -6 -20
9 -1 8 11 15 25 15 30 0 6 -4 5 -9 -3 -5 -7 -11 -9 -14 -4 -8 12 22 55 33 48
4 -3 10 2 14 10 3 8 0 15 -7 15 -6 0 -1 7 11 16 26 18 29 35 5 28 -11 -3 -10
0 3 7 25 13 50 61 60 115 4 22 10 41 13 44 18 15 52 82 113 225 17 39 33 77
37 85 4 8 23 76 42 150 18 74 37 137 41 138 5 2 6 7 3 11 -2 5 0 23 6 42 8 30
18 85 35 192 2 16 6 33 9 38 4 5 0 9 -7 9 -8 0 -14 9 -15 20 -1 11 1 20 5 20
4 0 7 15 7 33 0 17 5 61 9 97 13 95 15 192 4 219 -5 14 -11 43 -14 67 -8 71
-23 134 -35 149 -4 6 -4 17 1 25 7 11 10 8 15 -13 4 -15 10 -27 15 -27 11 0
-16 128 -30 145 -7 9 -11 18 -8 20 7 7 -63 81 -74 78 -4 -2 -12 6 -18 17 -12
22 -35 28 -27 8 3 -9 -7 -14 -29 -15 -19 -2 -34 1 -34 6 0 5 -8 7 -19 4 -14
-3 -21 3 -29 26 -6 17 -18 31 -27 31 -9 0 -14 4 -11 9 4 5 -2 7 -13 4 -12 -3
-20 2 -24 16 -7 28 11 27 67 -3 36 -19 46 -21 46 -10 0 9 -5 12 -10 9 -6 -3
-13 1 -16 9 -3 9 -14 16 -24 16 -11 0 -22 5 -25 10 -4 6 -10 8 -15 5 -5 -3
-17 3 -27 14 -10 11 -34 27 -53 35 -30 12 -37 12 -57 -1 -22 -14 -32 -35 -15
-32 4 1 27 -2 52 -7 43 -8 44 -8 15 -14 l-30 -5 40 -24 c46 -28 81 -61 64 -61
-6 0 -22 9 -36 20 -14 11 -31 20 -37 20 -6 0 6 -11 26 -25 49 -33 128 -185 96
-185 -11 0 -17 4 -13 9 3 5 1 12 -5 16 -5 3 -10 14 -10 25 0 10 -7 21 -16 24
-10 4 -13 2 -8 -7 5 -9 4 -9 -7 1 -26 24 -39 14 -21 -18 18 -31 36 -42 26 -15
-4 8 -2 15 4 15 13 0 22 -49 11 -56 -5 -3 -9 -16 -9 -30 0 -14 4 -23 10 -19
10 6 50 -74 50 -100 0 -8 5 -17 10 -20 7 -4 9 2 6 17 -3 18 1 24 15 25 10 1
19 -4 20 -10 1 -7 2 -27 4 -45 3 -32 19 -61 29 -51 3 2 6 16 8 31 7 53 20 44
32 -22 5 -28 24 -80 29 -80 2 0 3 10 3 23 1 12 4 44 8 70 4 26 3 53 -1 60 -9
14 -33 78 -33 90 0 4 5 7 10 7 6 0 10 -8 10 -18 0 -10 3 -22 8 -26 4 -4 8 -12
8 -17 1 -5 2 -15 3 -21 1 -7 8 -2 15 11 l14 24 7 -23 c4 -13 9 -75 10 -139 2
-64 6 -152 10 -196 8 -95 8 -89 5 -95 -1 -3 -3 -37 -5 -77 -3 -42 -12 -90 -24
-115 -10 -24 -31 -95 -46 -158 -17 -67 -35 -121 -45 -130 -10 -8 -24 -35 -33
-60 -36 -102 -49 -137 -72 -185 -13 -27 -26 -63 -30 -80 -11 -48 -36 -95 -48
-88 -6 3 -7 1 -3 -5 18 -29 -42 -181 -75 -189 -10 -3 -19 -11 -19 -18 0 -15
-30 -48 -37 -41 -2 2 0 12 6 23 5 10 21 45 36 78 14 33 31 69 37 79 6 11 23
58 39 104 16 46 42 106 59 133 30 49 70 154 70 184 0 9 9 44 19 78 11 34 27
89 36 122 9 33 22 72 27 87 10 27 14 53 23 141 2 26 8 53 12 60 8 14 11 117 3
122 -3 2 -6 -4 -6 -13 -2 -28 -12 -69 -23 -89 -5 -11 -8 -32 -6 -49 1 -16 -2
-35 -7 -41 -6 -7 -8 -19 -5 -28 4 -8 2 -17 -3 -20 -11 -7 -31 -69 -65 -199
-27 -101 -51 -140 -41 -66 l6 45 -19 -40 c-18 -37 -20 -38 -20 -13 -1 15 4 30
10 33 6 4 8 13 5 20 -6 17 4 27 18 16 8 -7 12 4 14 36 1 24 7 63 13 86 14 52
21 131 9 102 -17 -43 -33 -122 -33 -157 0 -21 -5 -39 -12 -42 -11 -4 -39 -82
-51 -140 -2 -10 -6 -21 -8 -24 -3 -3 2 -17 11 -33 14 -23 14 -32 5 -51 -12
-22 -12 -21 -9 9 2 22 -1 34 -12 38 -8 3 -12 3 -9 -1 4 -3 -6 -30 -22 -60 -17
-29 -26 -55 -21 -59 6 -3 14 3 20 12 13 23 14 2 1 -32 -6 -16 -14 -23 -22 -19
-8 5 -9 0 -5 -16 5 -21 -15 -90 -27 -90 -3 0 -3 12 -2 28 2 15 5 27 6 27 1 0
3 8 5 18 2 9 1 17 -1 17 -8 0 -33 -58 -27 -63 10 -10 -7 -78 -18 -71 -6 3 -13
-3 -16 -15 -3 -12 -9 -21 -13 -21 -4 0 -15 -17 -23 -39 -9 -21 -22 -45 -29
-52 -14 -15 -18 -23 -94 -184 -25 -55 -49 -94 -51 -87 -3 8 -17 -7 -34 -37
-16 -28 -38 -55 -49 -61 -11 -6 -20 -16 -20 -23 0 -7 -22 -35 -48 -64 -26 -28
-78 -92 -117 -142 -40 -51 -84 -97 -102 -106 -17 -8 -35 -24 -38 -35 -4 -11
-14 -20 -24 -20 -10 0 -25 -7 -32 -16 -8 -9 -45 -39 -83 -65 -72 -51 -97 -53
-109 -9 -6 24 -3 25 16 5 13 -13 15 -10 19 20 5 39 1 45 -10 15 -6 -17 -10
-18 -24 -8 -21 16 -27 132 -9 165 6 13 7 24 2 28 -10 6 -11 45 -1 45 3 0 6 34
7 77 1 42 7 81 13 87 5 5 10 17 10 25 0 23 -30 -24 -36 -56 -3 -15 -9 -32 -14
-38 -5 -5 -10 -24 -13 -40 -2 -17 -3 1 -1 39 2 38 8 74 13 80 5 6 11 25 14 41
6 33 36 116 37 101 0 -6 4 -6 10 0 15 15 21 56 10 69 -5 6 -6 22 -3 35 5 20 7
21 12 7 6 -15 10 -13 30 13 23 31 23 32 1 20 -12 -6 -23 -10 -25 -8 -2 2 7 35
21 73 24 72 32 155 14 155 -7 0 -7 6 -2 18 5 9 12 53 15 97 5 81 7 93 25 159
10 34 1 58 -13 36 -3 -5 -4 -10 -1 -10 3 0 -3 -9 -14 -20 -27 -27 -31 -25 -14
8 7 15 14 32 14 39 0 19 33 83 42 83 11 0 10 -7 -2 -31 -8 -15 -7 -19 4 -19
15 0 27 21 32 58 1 12 14 47 28 78 14 30 25 58 25 62 -1 4 0 9 1 12 4 12 12
46 13 62 1 9 4 15 7 13 4 -2 12 19 20 48 7 29 19 66 26 82 7 17 13 35 14 40 1
6 6 18 11 28 6 10 12 30 14 45 5 35 25 90 66 177 18 39 33 72 34 75 3 10 18
46 35 85 9 22 25 63 34 90 10 28 20 57 23 65 4 8 7 17 8 20 0 3 7 30 14 60 8
31 24 64 37 77 28 26 30 33 9 33 -8 0 -15 4 -15 10 0 5 -27 23 -59 40 -33 16
-62 34 -66 40 -3 6 -11 7 -17 4 -7 -5 -9 -1 -5 9 8 22 -35 62 -89 83 -26 10
-44 23 -44 33 -1 14 -2 14 -11 -1 -5 -10 -15 -18 -20 -18 -6 0 -7 5 -4 11 9
13 -25 40 -42 34 -7 -2 -13 1 -13 8 -1 7 -9 22 -20 35 -16 19 -23 21 -40 12
-17 -9 -22 -8 -28 9 -6 17 -10 18 -24 7z m1069 -328 c-3 -8 -6 -5 -6 6 -1 11
2 17 5 13 3 -3 4 -12 1 -19z m-5 -32 c8 -15 3 -13 -16 7 -14 15 -26 31 -26 34
0 10 31 -20 42 -41z m45 12 c11 -25 7 -48 -9 -48 -6 0 -8 8 -5 19 2 10 0 26
-5 35 -5 9 -5 16 0 16 5 0 13 -10 19 -22z m-1217 -139 c0 -11 5 -17 10 -14 6
3 10 1 10 -4 0 -6 -7 -11 -15 -11 -8 0 -16 -6 -16 -12 -1 -7 -5 3 -8 22 -4 19
-5 38 -3 43 6 13 22 -4 22 -24z m-190 -513 c0 -3 -4 -8 -10 -11 -5 -3 -10 -1
-10 4 0 6 5 11 10 11 6 0 10 -2 10 -4z m167 -88 c-3 -8 -6 -5 -6 6 -1 11 2 17
5 13 3 -3 4 -12 1 -19z m16 -46 c-3 -12 -10 -22 -15 -22 -5 0 -7 3 -5 8 2 4 7
16 11 26 9 25 17 16 9 -12z m-26 -48 c10 17 10 17 15 -1 4 -16 1 -20 -16 -19
-13 1 -22 9 -23 21 -3 20 -3 20 5 0 8 -18 9 -18 19 -1z m-6 -96 c-25 -39 -27
-34 -5 11 9 18 18 30 21 27 3 -3 -4 -20 -16 -38z m1350 -45 c-10 -17 -10 -16
-11 3 0 23 13 41 18 25 2 -6 -1 -18 -7 -28z m-1221 -137 c0 -2 -7 -7 -16 -10
-8 -3 -12 -2 -9 4 6 10 25 14 25 6z m1173 -18 c-4 -7 -8 -15 -8 -18 -5 -35
-19 -70 -27 -70 -6 0 -7 8 -3 18 4 9 11 32 17 50 5 17 13 32 19 32 6 0 7 -6 2
-12z m-204 -20 c-2 -13 3 -34 10 -48 11 -22 10 -23 -2 -7 -8 9 -19 17 -26 17
-14 0 -14 17 0 25 6 4 8 13 5 21 -3 8 -1 14 5 14 6 0 9 -10 8 -22z m-1000 -40
c-8 -13 -12 -27 -11 -32 4 -13 -20 -68 -26 -61 -11 10 -12 44 -2 50 6 3 10 16
10 28 0 13 8 34 17 47 15 21 18 22 21 8 2 -9 -2 -27 -9 -40z m1027 26 c-4 -9
-9 -15 -11 -12 -3 3 -3 13 1 22 4 9 9 15 11 12 3 -3 3 -13 -1 -22z m-19 -79
c0 -8 -4 -12 -9 -9 -5 3 -6 10 -3 15 9 13 12 11 12 -6z m-33 -99 c-6 -25 -24
-37 -24 -15 0 15 21 52 26 46 3 -3 2 -16 -2 -31z m342 2 c-4 -18 -10 -44 -12
-58 -9 -43 -55 -171 -74 -204 -10 -17 -28 -59 -39 -93 -31 -92 -53 -134 -68
-129 -8 3 -13 -2 -13 -13 0 -22 -53 -127 -80 -160 -33 -39 -35 -16 -3 36 16
26 41 73 55 105 15 31 32 59 38 63 9 6 9 10 -1 16 -14 8 -11 18 38 109 23 42
77 155 109 227 8 17 14 38 14 46 0 9 4 18 9 21 4 3 11 19 14 36 4 16 9 30 13
30 4 0 3 -15 0 -32z m-1376 -19 c-7 -11 -14 -19 -16 -16 -7 7 7 37 17 37 6 0
5 -9 -1 -21z m1169 -59 c-10 -34 -23 -70 -29 -80 -6 -11 -9 -20 -6 -20 3 0 0
-13 -5 -30 -6 -16 -15 -30 -20 -30 -5 0 -9 -8 -9 -17 -1 -10 -7 -29 -16 -43
-15 -25 -15 -25 -8 10 3 19 10 40 15 45 4 6 24 55 43 108 20 54 38 102 41 108
14 21 12 5 -6 -51z m-175 -42 c-59 -139 -93 -212 -106 -228 -8 -8 -12 -23 -10
-32 2 -10 -1 -18 -7 -18 -6 0 -11 -6 -11 -14 0 -8 -7 -16 -15 -20 -8 -3 -15
-4 -15 -2 0 6 61 139 78 171 9 17 15 32 14 35 -4 10 20 70 28 70 4 0 8 11 8
26 0 14 9 35 21 48 11 12 21 28 21 34 0 7 6 12 14 12 11 0 6 -21 -20 -82z
m-954 -202 c0 -3 -4 -8 -10 -11 -5 -3 -10 -1 -10 4 0 6 5 11 10 11 6 0 10 -2
10 -4z m-226 -43 c-12 -50 -23 -61 -24 -22 0 36 6 49 22 49 5 0 5 -12 2 -27z
m213 -3 c-3 -21 -17 -40 -17 -22 0 13 11 42 16 42 2 0 3 -9 1 -20z m1033 -4
c0 -24 -54 -114 -82 -136 -35 -27 -35 -20 -3 28 14 20 25 40 25 44 0 4 9 23
21 42 21 37 39 47 39 22z m-1049 -59 c-10 -9 -11 -8 -5 6 3 10 9 15 12 12 3
-3 0 -11 -7 -18z m-1 -27 c0 -5 -5 -10 -11 -10 -5 0 -7 5 -4 10 3 6 8 10 11
10 2 0 4 -4 4 -10z m-63 -105 c-4 -8 -11 -15 -17 -15 -7 0 -7 6 0 21 13 23 26
19 17 -6z m989 -10 c-6 -21 -14 -31 -20 -25 -5 5 -2 19 8 34 22 35 25 33 12
-9z m254 -29 c0 -3 -4 -8 -10 -11 -5 -3 -10 -1 -10 4 0 6 5 11 10 11 6 0 10
-2 10 -4z m-1589 -339 c-8 -8 -11 -7 -11 4 0 20 13 34 18 19 3 -7 -1 -17 -7
-23z m19 -141 c-11 -11 -17 4 -23 56 -7 55 6 56 20 1 7 -29 9 -51 3 -57z"/>
<path d="M8114 6574 c-18 -14 -18 -14 6 -3 31 14 36 19 24 19 -6 0 -19 -7 -30
-16z"/>
<path d="M7070 6559 c0 -5 5 -7 10 -4 6 3 10 8 10 11 0 2 -4 4 -10 4 -5 0 -10
-5 -10 -11z"/>
<path d="M9195 6481 c-3 -5 -1 -12 5 -16 5 -3 10 1 10 9 0 18 -6 21 -15 7z"/>
<path d="M9150 6470 c0 -5 5 -10 11 -10 5 0 7 5 4 10 -3 6 -8 10 -11 10 -2 0
-4 -4 -4 -10z"/>
<path d="M9210 6441 c0 -11 26 -22 34 -14 3 3 3 10 0 14 -7 12 -34 11 -34 0z"/>
<path d="M9475 6440 c3 -5 8 -10 11 -10 2 0 4 5 4 10 0 6 -5 10 -11 10 -5 0
-7 -4 -4 -10z"/>
<path d="M9155 6422 c6 -4 21 -20 33 -36 15 -20 22 -24 22 -12 0 9 -5 16 -12
16 -6 0 -8 3 -5 7 10 9 -13 33 -32 33 -9 0 -12 -3 -6 -8z"/>
<path d="M37 6271 c-3 -12 -1 -21 3 -21 14 0 19 15 11 29 -6 9 -10 7 -14 -8z"/>
<path d="M9296 6247 c3 -10 9 -15 12 -12 3 3 0 11 -7 18 -10 9 -11 8 -5 -6z"/>
<path d="M9674 6243 c3 -10 8 -30 12 -45 3 -16 10 -25 15 -23 4 3 6 11 4 18
-2 7 -6 24 -9 40 -4 15 -11 27 -17 27 -6 0 -8 -8 -5 -17z"/>
<path d="M4793 6139 c-6 -8 -16 -27 -22 -42 -6 -16 -18 -27 -30 -27 -17 0 -19
-6 -14 -58 3 -35 -1 -87 -11 -132 -9 -41 -18 -87 -20 -102 -2 -14 -9 -36 -16
-47 -6 -12 -7 -21 -1 -21 5 0 7 -8 4 -19 -3 -10 0 -22 6 -25 7 -4 5 -19 -4
-46 -12 -35 -12 -38 2 -33 12 5 14 3 8 -7 -5 -7 -9 -25 -10 -39 -3 -41 -16
-102 -27 -130 -6 -14 -12 -42 -14 -61 -6 -64 -11 -85 -23 -108 -6 -12 -9 -22
-6 -22 3 0 1 -9 -5 -19 -5 -11 -6 -22 -1 -25 9 -6 -13 -120 -29 -148 -7 -12
-7 -18 0 -18 9 0 5 -84 -6 -101 -7 -12 -19 -110 -30 -234 -10 -126 -14 -149
-26 -156 -13 -8 -19 -89 -6 -89 3 0 4 -9 1 -20 -3 -11 -8 -20 -12 -20 -3 0 -7
-27 -7 -59 -1 -32 -7 -74 -12 -92 -17 -52 -24 -215 -9 -200 6 6 12 19 13 29 0
9 1 29 2 45 1 15 6 27 10 27 9 0 8 -69 -3 -177 -8 -69 -12 -98 -15 -98 -1 0
-3 -9 -4 -20 -6 -44 -18 -85 -26 -85 -4 0 -20 -25 -35 -55 -16 -30 -30 -54
-31 -52 -4 3 17 64 34 97 l13 25 -17 -22 c-9 -13 -22 -23 -30 -23 -7 0 -16 -5
-20 -12 -4 -7 -3 -8 4 -4 20 12 13 -11 -11 -41 -26 -32 -60 -88 -70 -118 -7
-20 -7 -20 8 -1 8 11 17 17 20 14 7 -7 -46 -59 -70 -68 -12 -4 -34 -28 -50
-51 -17 -24 -36 -48 -42 -52 -7 -4 -13 -13 -13 -19 0 -6 -13 -26 -30 -45 -16
-18 -30 -38 -30 -44 0 -6 -4 -7 -10 -4 -5 3 -11 -1 -11 -9 -3 -33 -18 -66 -31
-66 -5 0 -6 4 -3 10 3 5 8 20 10 32 3 13 15 31 27 41 18 15 20 20 7 28 -20 13
-29 11 -30 -6 -3 -32 -4 -36 -18 -44 -7 -5 -11 -13 -7 -19 6 -9 -39 -122 -49
-122 -2 0 -1 7 2 17 4 11 3 14 -6 9 -7 -5 -10 -14 -7 -22 8 -20 -12 -67 -24
-59 -6 4 -8 11 -5 16 10 15 -12 10 -25 -6 -11 -13 -10 -14 4 -9 26 10 19 -15
-13 -46 -16 -16 -26 -31 -23 -34 2 -3 -9 -21 -27 -41 -17 -20 -31 -44 -31 -54
0 -20 -39 -74 -40 -56 0 6 6 17 13 24 10 11 9 12 -2 6 -11 -6 -13 -3 -7 16 4
13 10 41 13 61 4 28 9 35 22 31 12 -4 13 -2 3 4 -18 13 -9 89 17 148 11 26 21
57 21 70 0 12 3 25 7 29 4 3 7 14 8 24 1 9 8 44 15 77 13 60 15 74 25 175 3
30 13 91 21 134 15 82 12 110 -6 60 -6 -16 -15 -40 -20 -54 -5 -14 -17 -54
-25 -90 -9 -36 -18 -72 -20 -80 -17 -65 -44 -206 -49 -256 -5 -58 -20 -114
-30 -114 -4 0 -1 32 9 75 2 11 7 43 10 70 4 28 13 91 22 140 8 50 17 117 19
150 6 91 23 181 44 235 10 26 16 51 13 54 -4 3 -1 6 5 6 9 0 21 44 36 132 3
15 8 33 13 40 4 7 8 20 10 28 2 17 16 82 18 90 1 3 5 12 8 20 18 43 38 113 33
117 -3 3 2 20 11 37 9 17 18 40 20 51 2 11 9 25 16 30 16 12 38 71 30 79 -4 3
-1 6 5 6 7 0 12 -11 12 -25 0 -14 4 -25 9 -25 6 0 10 8 10 18 1 61 11 257 16
307 9 82 9 212 1 260 -4 22 -9 53 -12 69 -2 16 -15 39 -29 52 -14 13 -25 27
-25 31 0 5 -21 18 -47 28 -26 11 -64 37 -85 57 -22 21 -45 38 -53 38 -7 0 -20
6 -28 14 -25 26 -81 43 -124 39 -41 -4 -57 6 -58 36 0 22 -46 20 -68 -2 l-20
-20 -17 21 c-29 35 -62 37 -97 5 -16 -15 -38 -27 -49 -26 -10 2 -13 0 -6 -3
25 -11 11 -19 -40 -22 -31 -2 -67 -12 -86 -24 -35 -22 -38 -37 -3 -18 12 6 21
7 21 3 -1 -10 -54 -44 -98 -64 -18 -8 -32 -17 -32 -21 0 -3 -7 -14 -16 -22 -8
-9 -11 -16 -6 -16 4 0 19 11 32 25 40 43 54 29 18 -17 -18 -24 -36 -44 -40
-46 -4 -2 -5 -9 -2 -16 2 -6 -12 -33 -32 -59 -38 -48 -51 -58 -40 -31 3 9 2
12 -5 9 -5 -4 -7 -15 -4 -24 3 -10 -1 -24 -10 -31 -11 -9 -15 -9 -15 -1 0 7
-4 10 -9 7 -5 -4 -8 -14 -7 -24 2 -9 -14 -39 -34 -67 -20 -27 -61 -89 -91
-136 -31 -48 -60 -84 -67 -81 -7 2 -12 -7 -12 -25 0 -30 -11 -54 -26 -56 -5
-1 -9 -6 -9 -12 -1 -5 -7 -21 -16 -35 -41 -69 -51 -88 -68 -125 -10 -22 -30
-52 -43 -67 -14 -14 -34 -49 -44 -77 -10 -29 -26 -60 -35 -70 -24 -25 -49 -77
-42 -85 4 -3 1 -6 -5 -6 -6 0 -14 -15 -18 -32 -3 -18 -14 -39 -23 -46 -9 -7
-10 -10 -2 -6 10 5 12 1 6 -17 -18 -64 -29 -87 -38 -82 -6 3 -7 2 -4 -4 4 -6
-9 -41 -28 -79 -19 -38 -35 -74 -35 -80 0 -6 -14 -26 -31 -44 -22 -23 -28 -34
-19 -40 7 -4 9 -16 5 -29 -4 -12 -2 -22 4 -22 39 -5 71 -27 65 -44 -8 -21 19
-44 55 -47 31 -2 68 -39 57 -56 -9 -15 58 -63 129 -94 82 -35 170 -44 198 -20
15 14 19 13 35 -1 10 -10 23 -17 29 -17 16 0 45 49 37 63 -5 9 -4 9 7 0 20
-19 27 -16 22 10 -3 14 3 29 16 41 17 16 19 22 9 35 -7 9 -9 13 -4 9 15 -12
55 35 72 84 8 26 24 54 33 60 19 14 84 172 137 337 19 58 37 113 41 121 9 20
13 47 14 95 1 22 8 49 15 60 14 23 25 72 27 127 1 21 5 38 10 38 4 0 7 6 7 13
0 6 28 68 62 137 34 69 61 127 61 130 -1 3 7 17 17 30 l19 25 -5 -29 c-3 -16
-7 -33 -10 -38 -3 -4 -1 -8 4 -8 11 0 11 -32 1 -40 -11 -8 -17 -80 -7 -80 9 0
8 -17 -8 -175 -3 -27 -7 -77 -9 -110 -3 -33 -7 -78 -10 -100 -3 -22 -8 -65
-11 -95 -3 -30 -7 -65 -9 -77 -2 -13 0 -25 4 -27 10 -7 2 -108 -11 -123 -7 -9
-7 -13 0 -13 6 0 14 5 17 10 15 25 24 7 10 -21 l-16 -30 -20 25 c-23 29 -44
25 -36 -6 3 -11 0 -21 -9 -25 -17 -6 -19 -33 -1 -33 15 0 14 -113 -2 -118 -6
-2 -8 -8 -5 -13 3 -6 0 -16 -6 -24 -16 -20 -22 -67 -10 -85 9 -13 11 -13 21 0
9 13 10 12 5 -3 -3 -10 -6 -28 -6 -38 0 -11 -4 -18 -10 -14 -5 3 -6 13 -3 22
5 12 3 14 -7 8 -8 -5 -11 -4 -6 3 3 6 2 13 -4 17 -5 3 -10 2 -10 -4 0 -5 -3
-17 -7 -27 -4 -12 -3 -15 5 -10 7 4 12 2 12 -3 0 -6 -6 -11 -13 -11 -15 0 -38
-88 -25 -96 5 -4 6 -13 2 -23 -3 -9 -8 -23 -9 -31 -1 -8 -4 -22 -7 -30 -28
-87 -28 -86 -13 -66 8 11 15 28 15 37 0 10 5 21 11 24 6 4 8 13 5 21 -3 7 -1
16 3 19 5 2 12 20 15 40 4 19 11 37 16 40 5 3 0 -25 -11 -62 -11 -38 -23 -79
-26 -93 -3 -14 -10 -31 -16 -38 -5 -7 -11 -22 -13 -35 -1 -12 -7 -33 -13 -47
-9 -22 -10 -20 -6 15 3 28 -4 13 -26 -50 -17 -49 -35 -94 -40 -100 -5 -5 -3 9
5 33 20 56 12 54 -14 -4 -23 -52 -25 -68 -9 -58 7 4 9 -1 5 -15 -3 -11 -9 -31
-12 -42 -4 -13 -2 -19 4 -15 5 3 12 20 16 37 3 18 9 29 12 26 4 -4 -13 -65
-37 -137 -32 -97 -47 -129 -59 -127 -8 1 -18 9 -23 17 -4 9 -5 3 -2 -12 3 -18
1 -28 -6 -28 -7 0 -9 -3 -6 -7 4 -3 2 -12 -5 -20 -6 -7 -8 -16 -5 -19 3 -4 -3
-16 -14 -27 -14 -16 -16 -23 -7 -29 10 -6 10 -8 1 -8 -7 0 -10 -6 -7 -13 2 -7
-11 -54 -30 -103 -19 -50 -44 -125 -55 -166 -11 -42 -28 -98 -37 -125 -9 -26
-17 -52 -18 -58 -1 -5 -8 -25 -15 -43 -13 -31 -12 -34 29 -87 33 -43 52 -57
84 -66 22 -6 52 -15 66 -20 14 -4 52 -13 85 -19 33 -6 85 -20 116 -31 30 -10
69 -19 85 -19 67 1 174 99 174 160 0 16 4 40 10 55 5 14 12 43 15 63 2 20 7
48 10 62 3 14 7 41 11 60 14 88 15 91 29 80 9 -8 18 -6 31 7 9 10 26 22 37 28
11 5 49 53 85 105 36 52 75 105 88 117 13 12 32 35 41 52 78 131 153 264 153
271 0 4 20 35 44 67 24 33 51 73 59 89 8 16 19 29 24 29 4 0 7 3 5 8 -1 4 2 7
8 7 5 0 21 20 36 45 14 25 30 42 35 39 5 -3 9 1 9 10 0 8 4 16 9 18 5 2 11 9
13 17 2 7 13 24 26 37 13 13 28 38 34 55 6 18 13 26 18 20 7 -12 100 105 100
127 0 17 13 15 26 -5 6 -10 8 -27 4 -38 -4 -11 -4 -30 1 -42 6 -17 5 -23 -6
-23 -8 0 -15 -5 -15 -11 0 -5 4 -8 9 -5 10 7 26 -48 22 -76 -1 -9 3 -19 9 -23
5 -3 10 -12 10 -20 0 -19 64 -154 95 -199 14 -20 34 -55 46 -77 38 -76 143
-168 287 -252 68 -40 73 -42 69 -27 -1 6 9 16 23 23 14 7 27 21 29 32 2 11 8
23 15 27 8 6 7 8 -1 8 -7 0 -13 5 -13 11 0 7 -16 34 -36 62 -20 28 -37 55 -38
61 -1 7 -14 33 -29 58 -15 26 -27 49 -27 52 0 3 -13 25 -30 49 -32 48 -73 137
-63 137 3 0 -2 9 -12 20 -10 11 -16 23 -12 26 3 3 -3 25 -13 49 -10 24 -16 46
-13 49 4 3 1 6 -6 6 -7 0 -9 4 -6 10 6 9 7 107 1 180 -1 19 2 40 7 47 5 7 6
17 2 23 -4 7 -7 43 -6 81 1 44 -3 68 -9 64 -6 -3 -10 -1 -10 4 0 6 5 11 11 11
6 0 8 7 5 16 -3 8 -2 12 4 9 6 -3 10 1 10 9 0 8 -4 17 -8 20 -4 2 -7 32 -6 65
1 49 7 70 32 111 35 56 33 64 -3 23 -13 -16 -25 -23 -25 -17 0 6 7 17 15 24 8
7 15 18 15 25 0 7 6 15 13 18 7 2 21 22 32 43 11 22 26 47 34 57 8 10 10 17 3
17 -5 0 -29 -22 -53 -50 -23 -27 -44 -48 -46 -46 -8 8 39 74 67 96 22 17 29
29 25 44 -3 12 -2 15 1 8 3 -6 10 -10 14 -7 11 7 7 -55 -4 -74 -6 -10 -5 -12
2 -7 14 8 11 -41 -3 -63 -5 -9 -4 -12 3 -7 7 4 9 -3 7 -21 -2 -16 -4 -31 -4
-35 -2 -15 -20 -8 -24 10 -3 11 -5 8 -6 -9 0 -14 -6 -30 -12 -36 -7 -7 -3 -18
14 -37 27 -28 45 -109 29 -129 -4 -7 -8 -21 -7 -32 1 -11 2 -33 3 -49 2 -23 5
-26 16 -17 11 9 15 7 19 -8 2 -11 1 -23 -5 -29 -5 -5 -3 -14 7 -22 8 -7 15
-20 15 -30 0 -22 110 -142 157 -171 27 -17 45 -20 89 -17 54 5 66 -1 71 -31 3
-20 18 -32 39 -31 57 1 74 10 136 71 57 56 75 84 133 203 37 76 86 193 109
259 38 109 61 150 64 115 0 -7 3 -47 6 -88 5 -81 14 -130 25 -130 4 0 12 -13
18 -30 6 -16 7 -30 2 -30 -5 0 -6 -17 -4 -37 4 -29 18 -49 56 -86 28 -26 69
-57 90 -68 47 -24 116 -27 156 -7 18 9 39 12 56 7 15 -4 29 -3 33 2 3 5 9 7
14 4 5 -3 11 -1 15 5 3 5 13 10 22 10 21 0 46 35 97 132 45 86 96 231 96 274
0 13 4 24 9 24 5 0 9 12 9 26 0 14 4 35 10 47 6 12 13 30 16 40 10 31 21 18
24 -31 1 -26 4 -65 7 -87 7 -65 5 -130 -6 -133 -5 -2 -6 -9 -2 -15 13 -20 10
-161 -3 -174 -13 -13 0 -74 30 -138 8 -16 20 -52 27 -80 7 -27 18 -59 25 -70
7 -11 13 -23 14 -27 0 -4 7 -23 15 -42 8 -20 15 -41 15 -48 0 -18 77 -96 112
-114 15 -8 28 -17 28 -19 0 -7 -82 -48 -101 -52 -28 -5 -72 -23 -67 -28 5 -5
53 8 93 25 48 21 96 31 115 25 27 -8 25 -21 -2 -28 -13 -3 -50 -13 -83 -22
-33 -9 -65 -18 -72 -19 -7 -1 -16 -5 -19 -9 -4 -4 -19 -7 -34 -7 -15 0 -30 -3
-34 -7 -3 -4 -16 -8 -27 -10 -12 -2 -33 -12 -48 -23 -15 -10 -52 -29 -82 -40
-58 -23 -93 -48 -49 -35 14 4 52 18 85 32 33 13 68 26 77 28 9 2 25 8 36 14
11 6 22 8 24 5 3 -2 18 2 34 11 16 8 41 15 55 15 14 0 29 3 33 7 3 4 16 8 28
10 12 2 27 8 34 14 6 5 26 12 44 14 18 2 41 12 53 22 11 10 18 13 14 7 -6 -11
26 -44 44 -44 6 0 25 -6 42 -14 44 -19 77 -26 77 -15 0 5 -8 9 -18 9 -10 0
-27 7 -38 15 -17 13 -14 13 24 0 41 -14 77 -11 67 5 -3 5 0 12 6 16 6 3 14 2
18 -4 4 -6 15 -3 29 9 l24 19 -33 30 c-31 28 -32 30 -11 30 12 0 22 5 22 10 0
6 7 10 16 10 9 0 13 -5 9 -12 -4 -7 -1 -6 7 3 14 17 117 48 182 56 22 2 44 7
48 9 4 3 8 0 8 -5 0 -6 -3 -11 -7 -12 -61 -6 -153 -31 -153 -41 0 -6 9 -7 23
-3 12 4 45 8 72 10 92 7 125 13 157 30 18 9 52 18 76 20 24 2 49 9 57 15 9 8
15 8 20 0 3 -6 11 -7 17 -4 6 4 14 0 19 -7 8 -12 10 -12 18 0 5 7 23 15 41 17
25 3 30 1 24 -9 -5 -7 -2 -5 7 4 14 16 16 16 28 0 11 -15 12 -15 7 1 -4 14 2
17 39 15 28 -1 45 -7 45 -14 0 -13 34 -13 46 0 4 4 14 1 22 -6 13 -10 14 -9 7
3 -6 12 -5 12 5 3 9 -8 20 -8 45 3 18 7 35 11 37 9 3 -3 39 -8 81 -11 42 -3
102 -13 132 -23 30 -10 58 -15 60 -10 7 10 64 3 80 -11 7 -6 17 -10 21 -8 17
4 89 -24 102 -40 6 -9 12 -11 12 -4 0 14 58 -17 65 -36 3 -9 -4 -8 -26 3 -16
9 -34 13 -39 10 -5 -3 -11 -2 -14 3 -2 4 -19 9 -37 10 -18 1 -39 8 -46 14 -7
6 -13 7 -13 2 0 -5 -5 -1 -11 8 -7 13 -15 15 -33 8 -13 -5 -27 -6 -30 -3 -3 3
-30 8 -61 10 -61 5 -76 -11 -20 -21 40 -8 57 -26 24 -26 -38 0 -12 -13 32 -15
23 -1 44 -7 48 -12 8 -13 51 -24 51 -13 0 11 39 0 47 -13 4 -6 -3 -8 -21 -3
-14 3 -26 3 -26 -2 0 -5 -19 -7 -42 -5 -24 2 -52 5 -63 5 -27 2 -171 -11 -187
-17 -7 -2 -37 -6 -66 -9 -29 -3 -58 -8 -64 -12 -6 -4 -20 -8 -32 -9 -34 -4
-36 -5 -36 -16 0 -5 4 -8 9 -5 12 8 93 17 186 21 44 2 85 5 90 7 6 1 11 -1 13
-7 1 -5 -18 -10 -42 -11 -24 0 -52 -4 -62 -9 -11 -4 -32 -9 -49 -11 -16 -2
-61 -9 -100 -15 -38 -6 -83 -13 -100 -15 l-30 -5 33 21 c17 11 32 21 32 22 0
5 -94 -3 -110 -9 -8 -3 -39 -8 -69 -10 -46 -4 -129 -18 -206 -36 -60 -14 -167
-28 -172 -23 -3 3 2 8 11 11 9 3 23 7 32 10 9 3 15 8 12 10 -3 3 -25 -2 -49
-11 -24 -9 -66 -17 -94 -19 -27 -2 -117 -23 -200 -45 -82 -23 -157 -43 -165
-44 -8 -2 -22 -6 -31 -10 -9 -4 -20 -6 -25 -5 -5 1 -11 0 -14 -1 -3 -1 -14 -3
-25 -5 -11 -2 -42 -8 -70 -15 -27 -6 -57 -12 -65 -14 -8 -1 -25 -8 -37 -14
-13 -7 -23 -10 -23 -6 0 3 -7 1 -15 -6 -8 -7 -15 -10 -15 -7 0 4 -18 0 -41 -8
-22 -8 -43 -14 -47 -13 -4 1 -14 -2 -22 -5 -8 -3 -60 -22 -115 -42 -117 -42
-181 -67 -330 -130 -60 -25 -128 -53 -151 -60 -22 -8 -65 -27 -95 -43 -30 -16
-67 -32 -83 -36 -17 -4 -42 -16 -58 -27 -15 -11 -36 -22 -47 -24 -11 -2 -50
-22 -87 -44 -37 -23 -74 -41 -81 -41 -7 0 -13 -4 -13 -9 0 -5 -8 -11 -17 -14
-26 -9 -121 -62 -141 -80 -9 -8 -29 -17 -44 -21 -15 -3 -47 -19 -70 -35 -50
-32 -78 -44 -78 -32 0 5 8 11 18 15 9 3 35 20 57 36 22 17 52 36 68 41 15 6
27 15 27 20 0 5 7 9 15 9 8 0 15 5 15 10 0 6 9 10 20 10 23 0 110 41 131 62
26 25 70 49 78 43 5 -3 11 -2 13 3 5 12 108 68 153 82 22 7 92 37 155 67 63
30 124 58 135 63 24 9 249 116 286 136 14 7 29 11 33 7 3 -3 6 -1 6 5 0 7 10
11 23 9 13 -1 21 3 20 10 -2 7 0 12 5 11 4 -1 24 6 46 15 21 9 43 17 49 17 13
0 100 51 95 56 -2 2 -38 -8 -79 -22 -40 -14 -78 -27 -84 -28 -5 -2 -23 -9 -40
-16 -31 -12 -212 -79 -230 -84 -5 -2 -48 -21 -95 -43 -47 -23 -105 -50 -130
-62 -47 -21 -128 -66 -185 -101 -18 -11 -38 -20 -44 -20 -11 0 -63 -25 -216
-104 -22 -11 -43 -19 -47 -18 -3 1 -12 -5 -18 -13 -7 -8 -18 -15 -24 -15 -6 0
-27 -11 -46 -23 -38 -25 -152 -89 -212 -119 -21 -10 -38 -22 -38 -27 0 -5 -8
-11 -17 -15 -10 -3 -25 -9 -33 -13 -13 -5 -13 -4 -2 10 12 14 10 15 -15 6 -55
-18 -63 -21 -63 -29 0 -4 -15 -13 -32 -20 -18 -7 -45 -24 -59 -37 -15 -14 -29
-21 -32 -16 -3 4 30 35 74 68 43 33 79 64 79 69 0 4 -11 1 -25 -8 -13 -9 -43
-16 -65 -16 -27 0 -43 -5 -46 -15 -4 -8 -12 -15 -20 -15 -20 0 -17 13 6 28 11
7 20 18 20 25 0 7 -3 8 -8 2 -7 -10 -36 -28 -83 -52 -15 -7 -32 -20 -39 -28
-7 -8 -18 -15 -25 -15 -15 0 -75 -28 -95 -45 -8 -7 -43 -27 -77 -45 -35 -18
-63 -36 -63 -41 0 -5 -6 -9 -13 -9 -19 0 -138 -90 -132 -100 3 -4 -4 -6 -15
-3 -21 6 -10 16 85 83 33 23 71 53 105 84 24 21 129 86 140 86 5 0 25 16 45
35 19 20 40 33 45 30 5 -3 13 3 19 13 5 10 28 27 50 37 23 10 41 22 41 27 0 4
8 8 19 8 10 0 24 6 30 14 11 13 57 30 64 24 1 -2 15 7 31 20 16 12 33 22 38
22 5 0 19 11 31 24 12 13 36 30 53 39 28 14 64 47 51 47 -2 0 -36 -18 -73 -40
-77 -45 -104 -52 -59 -15 17 14 40 35 51 46 13 13 27 18 35 14 7 -5 10 -4 6 2
-3 5 8 18 26 28 18 10 38 25 45 32 8 7 17 11 22 8 5 -3 11 -1 15 5 3 5 17 7
31 4 14 -4 24 -2 24 5 0 6 -7 8 -17 4 -11 -4 -14 -3 -9 5 4 7 12 12 18 12 6 0
42 16 79 35 75 38 84 41 73 23 -4 -7 -3 -8 5 -4 6 4 9 11 6 16 -5 8 33 26 48
22 4 -1 7 2 7 7 0 12 108 63 119 56 5 -2 11 2 15 10 3 8 12 15 21 15 8 0 15 4
15 8 0 5 10 14 23 20 12 6 16 11 9 11 -7 1 -26 -6 -42 -14 -17 -9 -30 -12 -30
-9 0 4 -8 0 -17 -9 -10 -8 -20 -15 -23 -15 -3 1 -111 -51 -242 -115 -130 -65
-241 -117 -246 -117 -5 0 -12 -7 -16 -15 -3 -8 -12 -15 -20 -15 -7 0 -16 -6
-19 -13 -5 -14 -76 -53 -89 -49 -5 1 -8 -5 -8 -14 0 -8 -4 -13 -10 -9 -5 3 -7
13 -4 23 4 12 2 11 -7 -3 -7 -11 -13 -22 -12 -25 0 -7 -69 -58 -82 -60 -5 -1
-17 -7 -25 -14 -8 -7 -22 -16 -30 -20 -8 -4 -1 4 15 18 17 14 33 26 38 26 4 0
7 5 7 10 0 6 -13 10 -29 10 -17 0 -33 -4 -36 -10 -3 -5 -15 -10 -26 -10 -10 0
-19 -5 -19 -12 0 -6 -3 -8 -6 -5 -4 4 -24 -9 -46 -28 -37 -34 -58 -44 -58 -26
0 5 10 11 22 14 12 4 19 9 16 13 -5 5 -143 -69 -158 -86 -6 -6 -29 -19 -110
-63 -30 -17 -56 -34 -58 -39 -2 -4 -8 -8 -13 -8 -5 0 -38 -20 -74 -45 -45 -31
-65 -40 -65 -29 0 9 -5 12 -12 8 -7 -4 -8 -3 -4 4 4 6 14 8 23 5 10 -4 14 -2
10 4 -3 5 16 27 44 47 27 21 52 43 56 50 3 6 -3 3 -14 -7 -11 -9 -23 -17 -26
-17 -4 0 -63 -38 -131 -85 -69 -47 -127 -85 -131 -85 -8 0 -68 -42 -76 -54 -4
-5 -12 -5 -18 -1 -7 4 -27 -5 -46 -19 -18 -14 -37 -26 -41 -26 -11 0 -118 -82
-132 -102 -11 -14 -16 -15 -32 -6 -10 7 -16 16 -13 22 4 5 -6 1 -20 -10 -15
-10 -27 -22 -27 -26 0 -5 -6 -8 -14 -8 -11 0 -50 -26 -101 -68 -6 -5 -35 -25
-65 -45 -72 -49 -117 -80 -159 -112 -19 -14 -42 -25 -50 -25 -10 0 -17 -9 -18
-20 -2 -21 23 -28 29 -8 3 7 10 8 17 4 21 -14 -48 -65 -88 -66 -28 0 -32 -2
-21 -15 7 -8 16 -12 21 -9 22 13 6 -17 -19 -35 -15 -11 -22 -21 -15 -21 6 0
15 5 18 10 8 13 25 13 25 -1 0 -5 -4 -8 -9 -5 -5 3 -12 -1 -15 -10 -7 -17 3
-34 41 -71 13 -12 23 -28 23 -36 0 -8 9 -22 20 -32 10 -9 18 -21 17 -25 -2 -8
54 -64 65 -65 4 0 12 -5 19 -12 6 -6 18 -9 27 -6 10 4 13 2 8 -5 -9 -15 37
-44 58 -36 11 4 16 1 16 -10 0 -23 10 -20 42 11 23 22 28 24 28 9 0 -11 4 -14
13 -9 26 17 83 32 102 27 12 -3 57 13 110 39 50 25 108 51 130 58 40 14 139
64 162 82 7 5 10 13 7 18 -3 5 2 6 10 3 9 -3 16 -2 16 4 0 6 12 9 27 7 38 -4
55 4 48 25 -6 20 32 41 84 46 19 2 50 15 70 29 21 14 41 25 45 25 4 0 22 11
41 25 24 19 34 22 38 13 4 -9 12 -6 26 11 12 12 19 26 17 30 -3 4 4 8 15 8 21
2 119 72 119 85 0 4 7 8 15 8 8 0 15 -5 15 -10 0 -7 7 -7 20 0 12 6 18 16 13
23 -5 8 -8 8 -11 -1 -2 -7 -8 -12 -14 -12 -6 0 -5 6 2 15 7 9 15 13 18 10 3
-2 21 5 41 17 20 13 37 22 39 20 9 -9 30 1 34 16 3 10 21 30 39 43 l34 24 -23
-30 c-24 -30 -13 -51 11 -23 7 8 30 26 53 41 22 15 50 36 62 47 12 11 28 17
36 14 9 -3 16 -2 16 4 0 5 14 15 30 22 17 7 30 15 30 19 0 3 15 12 33 20 17 7
38 21 44 29 7 8 22 16 32 17 11 1 44 21 73 45 30 26 49 37 45 26 -5 -12 -3
-16 5 -13 7 2 13 16 13 31 0 19 9 32 33 47 17 12 32 16 32 10 0 -6 4 -11 10
-11 5 0 9 3 9 7 -3 20 2 31 17 37 12 5 15 2 10 -9 -3 -9 -2 -13 4 -10 6 3 10
12 10 19 0 8 20 23 45 35 25 12 55 31 66 42 11 11 23 18 26 15 3 -3 11 0 17 8
18 22 105 66 129 64 12 0 45 10 72 22 63 29 82 33 91 18 5 -7 2 -9 -8 -6 -9 4
-30 -5 -49 -21 -35 -29 -64 -43 -164 -82 -33 -13 -70 -30 -82 -37 -13 -8 -23
-11 -23 -8 0 4 -24 -11 -52 -32 -29 -21 -71 -50 -93 -64 -49 -31 -85 -63 -85
-74 0 -4 5 -3 12 4 7 7 19 12 27 12 9 0 30 14 48 30 20 19 38 28 48 24 11 -5
18 0 22 15 3 11 10 21 15 21 6 0 8 -7 5 -14 -4 -10 -1 -13 9 -9 10 4 12 9 4
18 -11 13 -3 25 17 25 9 0 11 -5 7 -13 -4 -7 -3 -8 2 -4 5 5 9 16 9 24 0 9 11
18 25 20 13 2 39 12 58 23 33 20 93 30 62 11 -8 -6 -18 -7 -22 -5 -5 3 -11 -2
-14 -10 -3 -9 -10 -13 -15 -10 -5 3 -9 0 -9 -6 0 -6 -4 -8 -10 -5 -5 3 -10 -1
-10 -9 0 -22 3 -21 60 19 27 19 53 36 57 38 5 1 7 5 6 10 -2 4 2 7 9 7 12 0
120 52 128 61 3 4 24 17 47 29 24 12 40 26 37 31 -3 5 -10 7 -15 4 -5 -4 -9 0
-9 7 0 7 -9 2 -19 -11 -15 -20 -19 -21 -24 -7 -4 9 -3 16 1 16 5 0 18 9 30 20
12 12 22 18 22 14 0 -4 8 0 18 8 9 9 28 19 42 23 14 4 68 28 120 52 170 81
185 87 195 90 6 1 29 7 52 11 24 5 49 15 58 22 8 7 15 9 15 4 0 -4 5 -3 12 4
7 7 19 12 28 12 9 0 26 9 37 20 17 16 22 17 25 5 2 -12 16 -8 68 16 36 17 67
35 68 40 2 5 8 6 14 3 6 -4 13 -3 17 2 5 8 75 43 86 44 3 0 21 9 41 20 19 11
39 18 45 15 5 -4 9 -3 9 2 0 4 14 14 32 22 17 8 40 23 50 33 11 11 22 17 25
14 3 -2 17 0 32 6 45 17 165 49 192 51 14 1 33 8 41 14 8 7 17 11 20 8 2 -3
31 4 63 15 32 11 63 19 69 18 15 -2 69 13 81 23 6 4 30 9 54 12 23 2 47 10 52
18 5 8 9 10 9 5 0 -5 7 -2 17 5 9 8 17 12 17 11 2 -7 81 11 93 20 7 5 16 7 21
4 5 -3 18 1 28 9 10 8 27 15 36 15 9 0 18 5 20 12 6 16 50 18 65 2 7 -7 23
-11 36 -8 68 14 200 26 317 29 100 3 240 -18 252 -38 5 -7 8 -8 8 -2 0 15 42
14 58 -1 16 -17 15 -23 -5 -23 -40 -1 -52 -5 -57 -17 -8 -20 56 -46 94 -40 22
3 29 1 23 -5 -6 -6 -19 -12 -29 -13 -28 -4 -23 -28 7 -32 32 -3 130 -56 184
-99 55 -44 90 -118 94 -196 1 -9 9 -26 20 -37 23 -28 74 -29 124 -3 20 10 47
21 60 25 34 8 105 84 128 135 17 38 17 42 2 30 -15 -12 -16 -12 -9 6 9 23 9
25 7 45 -1 11 -6 9 -19 -8 -17 -21 -18 -21 -29 -3 -10 15 -8 23 8 40 12 12 22
40 24 64 3 39 3 40 -8 15 -14 -35 -30 -37 -21 -3 4 16 0 35 -11 51 -9 14 -18
35 -20 47 -3 11 -10 24 -17 29 -7 4 -9 8 -5 8 7 0 -14 31 -52 75 -5 6 -43 42
-86 80 -43 39 -89 81 -103 95 -13 14 -21 19 -18 13 9 -16 1 -16 -26 -2 -11 6
-43 12 -72 14 -69 4 -98 10 -192 39 -68 22 -128 37 -197 51 -9 2 -22 7 -27 10
-6 4 -17 1 -25 -5 -20 -16 -113 -5 -138 17 -11 10 -17 12 -13 6 6 -10 -21 -13
-116 -15 -125 -1 -142 -2 -213 -12 -22 -3 -58 -7 -80 -10 -22 -3 -51 -8 -65
-11 -14 -3 -43 -7 -65 -9 -22 -3 -58 -7 -80 -10 -22 -3 -53 -8 -70 -10 -16 -2
-48 -8 -70 -14 -68 -19 -100 -25 -108 -23 -10 2 -68 -16 -115 -36 -19 -8 -35
-13 -36 -11 -1 1 -16 22 -34 44 -44 57 -92 151 -92 180 0 13 -4 24 -8 24 -10
0 -10 -2 -16 130 -3 58 -7 134 -9 170 -3 38 -1 57 4 45 5 -14 8 -16 10 -5 1 8
3 24 4 35 2 11 4 25 5 30 5 21 -1 29 -10 15 -8 -13 -10 -12 -10 3 0 9 4 17 9
17 4 0 9 24 10 53 1 28 4 75 7 102 3 28 6 64 7 80 1 17 5 35 9 40 4 6 10 49
13 95 7 91 8 97 25 180 15 71 20 169 9 176 -5 3 -9 0 -9 -5 0 -6 -5 -11 -10
-11 -7 0 -7 7 0 20 6 11 8 25 5 30 -3 5 -1 38 6 72 6 35 13 70 14 78 1 8 6 23
10 33 4 10 5 21 1 24 -3 3 -1 12 4 19 6 6 13 22 15 35 3 12 9 25 14 29 14 8
39 82 34 97 -5 14 31 96 59 136 19 27 34 68 44 117 3 14 7 33 10 42 38 125 47
272 20 314 -10 14 -14 33 -11 44 10 33 -31 92 -84 120 -16 8 -40 23 -55 34
-14 10 -37 19 -50 20 -13 0 -22 4 -20 8 7 11 -58 67 -76 68 -9 0 -23 8 -32 18
-46 47 -56 53 -61 40 -4 -9 -6 -9 -6 2 -1 9 -15 21 -32 27 -28 11 -32 10 -36
-7 -5 -18 -31 -33 -49 -29 -5 1 -26 -1 -48 -6 -30 -6 -41 -14 -50 -36 -11 -30
-21 -36 -31 -19 -8 14 -25 13 -25 -2 0 -6 -7 -20 -16 -30 -16 -17 -15 -20 10
-45 25 -24 27 -32 21 -73 -4 -25 -8 -54 -10 -65 -1 -11 -5 -27 -8 -35 -3 -8
-5 -22 -5 -30 0 -25 -12 -146 -17 -171 -3 -13 -8 -40 -11 -59 -4 -19 -8 -44
-10 -55 -2 -11 -7 -47 -10 -80 -3 -33 -9 -95 -13 -137 -4 -42 -3 -74 1 -72 4
3 8 -9 8 -25 0 -25 -4 -31 -22 -32 -13 0 -18 -3 -12 -5 6 -2 8 -18 6 -35 -3
-21 1 -34 13 -43 13 -10 16 -20 11 -42 -3 -16 -8 -50 -10 -77 -2 -26 -7 -51
-11 -55 -4 -4 -5 3 -2 16 3 12 2 20 -2 17 -11 -6 -35 -114 -28 -121 3 -4 2
-15 -3 -25 -7 -12 -6 -20 2 -25 6 -4 8 -3 5 3 -4 6 1 19 9 29 14 18 15 15 11
-33 -2 -29 0 -53 4 -53 5 0 9 5 9 10 0 6 6 10 13 10 7 0 13 -18 15 -51 2 -34
-1 -48 -8 -44 -6 3 -8 11 -5 16 4 5 -4 9 -16 9 -16 0 -19 -3 -12 -12 7 -9 6
-23 -3 -43 -13 -29 -13 -29 -14 -5 -1 23 -2 23 -9 5 -5 -11 -5 -25 0 -30 7
-10 -12 -82 -29 -109 -3 -6 -7 -17 -8 -26 -2 -27 -36 -100 -46 -100 -5 0 -6 5
-2 12 4 7 3 8 -4 4 -7 -4 -12 -12 -12 -17 0 -6 -14 -38 -30 -71 -17 -34 -28
-68 -26 -75 3 -8 -1 -16 -9 -19 -8 -4 -15 -13 -15 -20 0 -8 -15 -43 -32 -77
-18 -34 -42 -86 -53 -116 -11 -29 -24 -52 -30 -50 -5 2 -8 11 -7 21 2 9 -2 19
-8 23 -6 3 -8 10 -5 15 3 5 8 46 10 91 3 45 10 88 16 96 8 9 8 17 1 26 -7 8
-7 18 -2 27 5 8 7 17 5 21 -3 3 5 39 16 80 27 98 38 160 28 153 -5 -3 -9 -2
-9 3 0 13 30 94 46 125 9 16 13 32 10 35 -2 3 8 26 24 52 16 25 27 55 25 66
-2 11 -4 23 -4 28 -1 11 -31 8 -31 -3 0 -5 -4 -10 -8 -10 -15 0 -6 42 11 55
19 13 24 40 6 29 -7 -4 -10 -1 -7 7 3 8 -2 22 -11 32 -10 13 -16 38 -16 75 0
35 -5 57 -12 59 -7 3 -13 14 -13 26 -1 21 -39 101 -40 84 0 -9 -21 6 -58 45
-24 24 -113 57 -152 56 -8 0 -24 3 -34 8 -14 5 -17 4 -12 -4 5 -8 0 -12 -13
-12 -11 0 -21 -8 -24 -17 -4 -19 -6 -17 -21 31 -5 15 -9 16 -22 6 -8 -7 -13
-19 -10 -27 3 -7 1 -13 -4 -13 -5 0 -5 -13 1 -32 14 -50 12 -108 -5 -108 -23
0 -77 26 -69 33 3 4 -2 7 -12 7 -10 0 -26 7 -36 16 -11 10 -19 12 -24 5 -3 -6
-1 -11 4 -11 6 0 11 -5 11 -11 0 -6 -12 -10 -27 -9 -16 1 -30 1 -33 0 -24 -8
-55 -8 -66 1 -14 11 -67 -35 -230 -198 -45 -46 -86 -83 -91 -83 -5 0 -20 -12
-32 -26 -18 -21 -25 -24 -32 -13 -6 10 -2 17 11 23 11 5 20 16 19 25 0 10 -2
12 -6 4 -2 -7 -11 -13 -19 -13 -8 0 -17 -7 -20 -15 -4 -8 -10 -13 -14 -10 -4
3 -11 -3 -15 -12 -3 -10 -1 -19 4 -21 28 -9 -65 -112 -179 -197 -71 -54 -81
-65 -73 -78 3 -5 -5 -19 -18 -33 -14 -15 -18 -24 -9 -24 9 0 5 -9 -10 -25 -13
-14 -26 -23 -28 -20 -3 3 3 12 14 20 14 11 15 14 4 15 -11 0 -15 12 -15 44 0
24 3 48 8 52 12 12 8 24 -9 24 -12 0 -15 6 -10 23 4 12 9 31 10 42 2 11 4 20
5 20 2 0 4 11 7 25 2 14 6 37 9 53 5 30 -9 38 -18 10 -3 -10 -17 -56 -31 -102
-14 -46 -28 -99 -30 -118 -2 -19 -7 -38 -12 -43 -17 -17 -5 88 16 140 11 27
17 50 14 50 -3 0 1 12 10 28 18 33 79 228 79 251 0 28 21 46 53 46 27 0 31 -3
29 -24 -1 -13 -7 -26 -12 -30 -13 -8 -23 -61 -12 -61 5 0 9 6 9 13 0 6 7 26
16 42 9 17 16 48 17 70 1 22 6 46 10 53 5 6 5 17 2 22 -3 6 -2 10 3 10 9 0 33
43 38 68 1 8 6 21 10 30 4 9 8 22 9 28 2 6 19 51 39 99 20 49 34 91 31 93 -2
2 7 16 20 29 20 23 40 74 36 96 0 4 6 24 14 44 8 19 17 45 20 57 2 11 6 30 9
41 3 11 13 49 22 85 10 36 20 67 24 70 11 8 43 142 45 190 4 62 -7 85 -54 114
-21 14 -51 37 -65 51 -14 14 -30 25 -36 25 -5 0 -10 7 -10 15 0 8 -16 19 -39
25 -22 6 -53 23 -69 38 -60 57 -78 66 -116 62 -14 -1 -17 3 -12 16 5 13 3 14
-6 6 -22 -17 -96 -13 -100 5 -3 14 -5 14 -15 2z m33 -970 c6 -11 -25 -79 -37
-79 -4 0 -10 -12 -13 -26 -4 -15 -9 -24 -12 -21 -3 2 0 25 7 51 6 25 11 48 10
51 -2 7 22 34 31 35 4 0 10 -5 14 -11z m-1552 -74 c-20 -19 -39 -33 -41 -31
-6 6 59 65 70 66 5 0 -8 -16 -29 -35z m3256 -25 c0 -5 -5 -10 -11 -10 -5 0 -7
5 -4 10 3 6 8 10 11 10 2 0 4 -4 4 -10z m-3303 -64 c-7 -13 -15 -22 -18 -20
-4 2 -12 -3 -19 -11 -7 -8 -9 -15 -6 -15 4 0 -6 -11 -21 -24 -37 -32 -42 -24
-10 16 57 74 97 103 74 54z m1545 -9 c-7 -8 -7 -18 -2 -27 5 -8 6 -19 2 -25
-3 -5 -7 -14 -8 -20 -4 -20 -25 -68 -28 -64 -3 3 18 133 23 147 1 1 6 2 12 2
8 0 8 -4 1 -13z m-1381 -71 c-6 -7 -22 -45 -35 -84 -13 -38 -32 -83 -41 -98
-14 -24 -11 -23 18 9 43 47 57 48 21 2 -15 -20 -24 -38 -21 -41 3 -3 -6 -26
-19 -50 -14 -24 -22 -44 -19 -44 6 0 -64 -139 -86 -167 l-17 -23 -7 27 c-3 14
-2 29 4 32 5 3 19 31 31 61 11 30 27 69 35 85 8 17 19 54 26 83 6 28 15 55 20
58 6 3 7 14 4 24 -8 26 63 137 89 139 5 1 3 -5 -3 -13z m1384 -71 c-8 -25 -22
-66 -30 -93 -16 -47 -34 -126 -39 -172 -2 -14 -4 -27 -5 -30 -2 -3 -5 -23 -7
-45 -4 -39 -11 -80 -14 -80 -1 0 -3 -20 -6 -44 -2 -25 -1 -41 3 -37 4 4 9 19
10 34 2 15 8 38 13 52 5 14 11 45 14 69 3 25 11 50 17 55 9 8 10 4 5 -14 -4
-14 -9 -47 -13 -75 -3 -27 -9 -54 -13 -60 -3 -5 -8 -28 -9 -49 -1 -21 -6 -48
-12 -58 -6 -11 -8 -22 -5 -25 3 -4 0 -13 -6 -20 -7 -8 -13 -31 -15 -51 -2 -21
-12 -71 -23 -112 -15 -60 -18 -66 -15 -30 4 49 13 166 21 275 6 89 11 140 14
140 1 0 4 16 5 35 2 19 6 49 10 65 3 17 10 56 16 88 5 33 16 78 24 100 8 23
15 50 15 60 0 9 5 17 10 17 6 0 16 11 22 25 19 42 28 28 13 -20z m-1351 -7
c-16 -32 -35 -51 -42 -43 -4 3 50 75 56 75 1 0 -5 -15 -14 -32z m-299 -18 c-4
-12 -18 -25 -31 -30 -13 -5 -24 -17 -24 -27 0 -10 -10 -31 -21 -48 -12 -16
-18 -21 -13 -10 4 11 8 32 8 48 1 15 5 27 10 27 4 0 6 6 3 14 -6 14 26 46 46
46 8 0 7 -4 -3 -10 -13 -8 -12 -10 3 -10 9 0 17 7 17 17 0 9 3 14 6 10 3 -3 3
-15 -1 -27z m163 -50 c-7 -10 -14 -17 -17 -15 -4 4 18 35 25 35 2 0 -1 -9 -8
-20z m-188 0 c0 -5 -5 -10 -11 -10 -5 0 -7 5 -4 10 3 6 8 10 11 10 2 0 4 -4 4
-10z m-71 -36 c-5 -15 -7 -35 -4 -44 3 -10 1 -21 -5 -25 -12 -7 -14 -25 -2
-25 4 0 13 14 21 31 7 16 16 28 18 25 8 -8 -18 -66 -28 -66 -5 0 -9 -4 -9 -9
0 -14 -54 -100 -62 -101 -4 0 -2 12 4 26 9 19 9 30 0 44 -9 15 -9 18 1 14 10
-3 12 3 9 25 -3 19 3 40 16 58 10 15 23 38 26 51 4 12 11 22 16 22 6 0 5 -11
-1 -26z m61 2 c0 -3 -4 -8 -10 -11 -5 -3 -10 -1 -10 4 0 6 5 11 10 11 6 0 10
-2 10 -4z m3419 -102 c-6 -16 -13 -24 -16 -17 -2 7 -10 11 -16 9 -7 -1 -9 -1
-4 1 4 3 5 9 2 14 -4 5 1 6 9 3 11 -4 16 0 16 14 0 11 3 29 8 39 6 15 7 14 10
-8 2 -14 -2 -38 -9 -55z m-3265 41 c-4 -8 -8 -15 -10 -15 -2 0 -4 7 -4 15 0 8
4 15 10 15 5 0 7 -7 4 -15z m-309 -125 c3 -5 1 -10 -4 -10 -6 0 -11 5 -11 10
0 6 2 10 4 10 3 0 8 -4 11 -10z m2143 -200 c-17 -27 -42 -37 -28 -11 8 16 19
24 38 30 1 1 -3 -8 -10 -19z m692 -45 c-5 -14 -7 -25 -4 -25 3 0 -2 -7 -10
-16 -24 -24 -19 -40 6 -18 26 23 17 5 -25 -49 -16 -20 -30 -43 -31 -50 -6 -28
-21 -54 -51 -92 -37 -46 -142 -217 -156 -252 -5 -13 -15 -23 -23 -23 -10 0
-13 -6 -10 -15 4 -8 1 -15 -5 -15 -6 0 -11 -6 -11 -13 0 -13 -20 -44 -51 -77
-9 -9 -27 -36 -39 -59 -37 -64 -48 -48 -21 31 7 20 11 43 10 50 -4 23 13 91
37 145 13 29 21 53 17 53 -4 0 -2 5 5 12 7 7 12 20 12 30 0 10 4 18 10 18 5 0
36 39 69 88 33 48 84 110 113 139 29 29 78 77 108 107 30 31 56 56 57 56 1 0
-2 -11 -7 -25z m-765 -24 c-3 -6 -11 -11 -16 -11 -5 0 -4 6 3 14 14 16 24 13
13 -3z m-324 -94 c-10 -9 -11 -8 -5 6 3 10 9 15 12 12 3 -3 0 -11 -7 -18z
m2167 -138 c-1 -71 -6 -135 -10 -142 -4 -7 -8 5 -9 28 0 22 -3 49 -5 60 -3 11
-5 49 -5 85 0 55 2 74 10 108 1 2 6 0 11 -3 6 -4 10 -56 8 -136z m-2328 101
c0 -5 -4 -10 -10 -10 -5 0 -10 5 -10 10 0 6 5 10 10 10 6 0 10 -4 10 -10z
m340 6 c0 -2 -8 -10 -17 -17 -16 -13 -17 -12 -4 4 13 16 21 21 21 13z m30 -10
c0 -2 -7 -7 -16 -10 -8 -3 -12 -2 -9 4 6 10 25 14 25 6z m-1180 -46 c0 -16
-44 -30 -52 -16 -4 6 0 14 10 18 26 10 42 9 42 -2z m958 -35 c-1 -14 -6 -25
-10 -25 -4 0 -7 11 -6 25 1 14 6 25 10 25 4 0 7 -11 6 -25z m-2107 -8 c-10 -9
-11 -8 -5 6 3 10 9 15 12 12 3 -3 0 -11 -7 -18z m2109 -36 c0 -5 -7 -11 -14
-14 -10 -4 -13 -1 -9 9 6 15 23 19 23 5z m257 -83 c-3 -8 -6 -5 -6 6 -1 11 2
17 5 13 3 -3 4 -12 1 -19z m-130 -300 c-3 -8 -6 -5 -6 6 -1 11 2 17 5 13 3 -3
4 -12 1 -19z m-1134 -73 c-7 -21 -13 -19 -13 6 0 11 4 18 10 14 5 -3 7 -12 3
-20z m17 -26 c0 -14 -5 -19 -14 -16 -10 4 -13 -3 -11 -26 3 -38 -4 -59 -16
-52 -4 3 -4 17 2 32 6 18 6 30 -2 39 -11 13 -2 19 24 15 4 0 7 6 7 14 0 8 2
15 5 15 3 0 5 -9 5 -21z m803 -84 c-3 -9 -8 -14 -10 -11 -3 3 -2 9 2 15 9 16
15 13 8 -4z m-1073 -15 c0 -5 -5 -10 -11 -10 -5 0 -7 5 -4 10 3 6 8 10 11 10
2 0 4 -4 4 -10z m1043 -49 c-3 -11 -14 -28 -25 -38 -20 -18 -20 -18 -2 20 19
39 36 50 27 18z m-823 -75 c0 -3 -4 -8 -10 -11 -5 -3 -10 -1 -10 4 0 6 5 11
10 11 6 0 10 -2 10 -4z m-254 -135 c16 14 18 5 4 -21 -6 -11 -12 -33 -14 -50
-4 -36 -10 -45 -26 -35 -8 5 -5 11 7 21 12 9 14 13 4 14 -11 0 -11 4 2 23 12
19 12 24 0 35 -7 7 -10 19 -6 25 5 8 9 6 11 -6 3 -14 7 -16 18 -6z m3688 -79
c2 -4 -4 -8 -14 -8 -10 0 -16 4 -14 8 3 4 9 8 14 8 5 0 11 -4 14 -8z m1619
-22 c15 0 66 -39 52 -40 -17 0 -85 50 -85 63 0 7 5 4 11 -5 5 -10 15 -18 22
-18z m-5391 -22 c-8 -8 -9 -4 -5 13 4 13 8 18 11 10 2 -7 -1 -18 -6 -23z m43
-18 c-2 -31 -15 -37 -15 -7 0 15 4 27 8 27 5 0 8 -9 7 -20z m3625 -11 c0 -6
-4 -7 -10 -4 -5 3 -10 11 -10 16 0 6 5 7 10 4 6 -3 10 -11 10 -16z m1976 -56
c-9 -9 -59 22 -75 47 -15 22 -12 22 32 -9 27 -18 46 -35 43 -38z m-5176 22 c0
-8 -4 -15 -10 -15 -5 0 -7 7 -4 15 4 8 8 15 10 15 2 0 4 -7 4 -15z m-8 -60
c-2 -19 -9 -38 -14 -41 -7 -4 -8 6 -3 27 13 58 23 67 17 14z m4123 -15 c-3 -5
-14 -10 -23 -10 -15 0 -15 2 -2 10 20 13 33 13 25 0z m694 -47 c6 -10 11 -14
11 -10 0 4 6 3 13 -3 6 -6 21 -17 31 -24 17 -11 14 -13 -28 -14 -41 0 -48 3
-57 25 -15 40 10 61 30 26z m-4829 -9 c0 -8 -4 -12 -10 -9 -5 3 -10 10 -10 16
0 5 5 9 10 9 6 0 10 -7 10 -16z m3590 6 c0 -5 -4 -10 -10 -10 -5 0 -10 5 -10
10 0 6 5 10 10 10 6 0 10 -4 10 -10z m-50 -12 c-14 -5 -45 -19 -69 -29 -24
-11 -46 -18 -48 -15 -9 8 91 55 117 55 l25 0 -25 -11z m195 -8 c-27 -12 -35
-12 -35 0 0 6 12 10 28 9 24 0 25 -1 7 -9z m-50 -9 c-12 -11 -85 -26 -85 -17
0 10 41 25 70 25 15 1 20 -3 15 -8z m-150 -31 c-3 -5 -11 -10 -16 -10 -6 0 -7
5 -4 10 3 6 11 10 16 10 6 0 7 -4 4 -10z m-145 -26 c0 -7 -11 -15 -24 -18 -13
-3 -32 -9 -43 -13 -14 -5 -12 0 7 18 26 25 60 33 60 13z m-80 -4 c0 -5 -5 -10
-11 -10 -5 0 -7 5 -4 10 3 6 8 10 11 10 2 0 4 -4 4 -10z m-30 -30 c0 -5 -7 -7
-15 -4 -8 4 -15 1 -15 -5 0 -6 -12 -11 -27 -11 l-28 1 25 14 c29 17 60 19 60
5z m-90 -16 c0 -8 -91 -46 -97 -40 -12 12 21 35 55 39 20 2 38 4 40 5 1 1 2
-1 2 -4z m-136 -60 c-17 -7 -42 -15 -55 -16 -13 -2 -34 -9 -45 -16 -12 -6 -24
-9 -27 -5 -4 3 -18 -2 -33 -11 -14 -10 -28 -15 -31 -13 -3 3 -24 -3 -48 -13
-36 -15 -43 -16 -38 -4 3 8 8 12 11 9 3 -3 15 1 26 8 12 8 50 24 86 37 116 41
130 46 136 53 4 3 16 1 28 -5 20 -11 20 -12 -10 -24z m-3665 -78 c-9 -8 -10
-7 -5 7 3 10 7 24 7 30 1 7 3 4 6 -7 3 -10 -1 -23 -8 -30z m3366 -15 c-15 -13
-77 -32 -70 -21 3 5 20 14 38 19 43 12 42 12 32 2z m-105 -40 c0 -5 -9 -11
-20 -14 -22 -6 -28 8 -7 16 19 8 27 8 27 -2z m-100 -38 c-8 -3 -53 -24 -100
-46 -79 -38 -133 -56 -117 -41 14 14 193 92 212 92 14 0 15 -1 5 -5z m-1608
-345 c-7 -7 -12 -8 -12 -2 0 14 12 26 19 19 2 -3 -1 -11 -7 -17z m268 -142 c0
-7 -82 -57 -87 -52 -7 7 7 27 15 22 4 -2 19 4 32 15 23 17 40 24 40 15z m450
-116 c0 -5 -5 -10 -11 -10 -5 0 -7 5 -4 10 3 6 8 10 11 10 2 0 4 -4 4 -10z
m-762 -76 c-40 -30 -48 -31 -20 -1 12 13 19 26 16 30 -3 3 4 3 15 0 20 -5 20
-7 -11 -29z m498 -23 c-22 -24 -57 -35 -49 -14 3 7 8 12 11 9 2 -3 14 1 26 9
28 20 32 19 12 -4z m-1192 -17 c3 -8 2 -12 -4 -9 -9 6 -67 -29 -82 -50 -5 -7
-8 -6 -8 0 0 8 76 75 86 75 1 0 5 -7 8 -16z m1116 -28 c-23 -22 -157 -91 -142
-74 7 9 37 28 67 43 30 14 57 30 60 36 4 5 11 9 18 9 7 0 6 -5 -3 -14z m-160
-80 c0 -2 -8 -10 -17 -17 -16 -13 -17 -12 -4 4 13 16 21 21 21 13z m-1310 -36
c0 -5 -5 -10 -11 -10 -5 0 -7 5 -4 10 3 6 8 10 11 10 2 0 4 -4 4 -10z m660
-44 c0 -3 -4 -8 -10 -11 -5 -3 -10 -1 -10 4 0 6 5 11 10 11 6 0 10 -2 10 -4z
m197 -51 c0 -8 -4 -12 -9 -9 -5 3 -6 10 -3 15 9 13 12 11 12 -6z m-146 -42
c13 -16 12 -17 -3 -4 -17 13 -22 21 -14 21 2 0 10 -8 17 -17z m-334 -188 c0
-8 -4 -12 -9 -9 -5 3 -6 10 -3 15 9 13 12 11 12 -6z m-486 -132 c13 -16 12
-17 -3 -4 -10 7 -18 15 -18 17 0 8 8 3 21 -13z m54 -113 c-3 -5 -12 -10 -18
-10 -7 0 -6 4 3 10 19 12 23 12 15 0z"/>
<path d="M8545 2880 c3 -5 8 -10 11 -10 2 0 4 5 4 10 0 6 -5 10 -11 10 -5 0
-7 -4 -4 -10z"/>
<path d="M3644 6129 c-3 -6 -1 -15 5 -20 6 -5 9 -6 6 -3 -3 4 0 13 6 21 8 9 8
13 1 13 -6 0 -14 -5 -18 -11z"/>
<path d="M3616 6036 c-16 -31 -26 -59 -23 -62 9 -9 59 84 55 102 -2 11 -14 -4
-32 -40z"/>
<path d="M9769 6028 c-1 -7 0 -17 1 -23 2 -5 4 -57 5 -115 2 -82 -2 -111 -15
-135 -13 -23 -16 -49 -13 -116 2 -52 -1 -97 -8 -115 -7 -16 -14 -42 -15 -59
-13 -119 -23 -204 -29 -230 -5 -25 -2 -23 19 15 21 41 28 64 41 135 2 11 4 21
5 23 2 1 3 5 4 10 10 39 31 99 38 108 5 7 9 27 9 45 0 19 0 75 0 124 0 50 -1
101 -1 115 -1 14 1 60 3 104 5 100 0 126 -24 126 -11 0 -20 -6 -20 -12z"/>
<path d="M3545 5955 c-16 -36 -32 -65 -38 -65 -5 0 -7 -7 -3 -15 3 -8 1 -15
-4 -15 -6 0 -10 -4 -10 -8 0 -5 -15 -35 -32 -66 -18 -32 -47 -85 -65 -118 -17
-32 -42 -75 -54 -96 -17 -27 -19 -33 -6 -23 17 13 121 156 143 196 35 64 57
102 67 113 8 10 7 16 -2 22 -9 5 -10 10 -2 14 6 4 11 15 11 24 0 9 6 28 13 42
21 41 27 60 18 60 -5 0 -21 -29 -36 -65z"/>
<path d="M9470 5966 c0 -9 5 -16 10 -16 6 0 10 4 10 9 0 6 -4 13 -10 16 -5 3
-10 -1 -10 -9z"/>
<path d="M270 5940 c0 -5 5 -10 11 -10 5 0 7 5 4 10 -3 6 -8 10 -11 10 -2 0
-4 -4 -4 -10z"/>
<path d="M9484 5910 c0 -20 7 -25 19 -14 7 7 -2 34 -12 34 -4 0 -7 -9 -7 -20z"/>
<path d="M280 5914 c0 -20 33 -79 38 -66 2 7 -6 27 -17 45 -11 17 -21 27 -21
21z"/>
<path d="M8110 5899 c0 -5 5 -7 10 -4 6 3 10 8 10 11 0 2 -4 4 -10 4 -5 0 -10
-5 -10 -11z"/>
<path d="M5770 5870 c-9 -6 -10 -10 -3 -10 6 0 15 5 18 10 8 12 4 12 -15 0z"/>
<path d="M9500 5876 c0 -2 7 -7 16 -10 8 -3 12 -2 9 4 -6 10 -25 14 -25 6z"/>
<path d="M8275 5849 c-4 -6 -5 -12 -2 -15 2 -3 7 2 10 11 7 17 1 20 -8 4z"/>
<path d="M9886 5773 c4 -32 7 -86 8 -120 1 -75 19 -57 21 22 1 28 5 60 9 71 4
14 1 27 -9 37 -8 9 -15 20 -15 26 0 5 -5 13 -11 16 -7 5 -8 -11 -3 -52z"/>
<path d="M3375 5791 c3 -5 1 -12 -5 -16 -5 -3 -10 -15 -10 -26 0 -23 -25 -65
-57 -96 -13 -12 -23 -30 -23 -40 0 -10 -9 -24 -20 -31 -11 -7 -20 -16 -20 -21
0 -5 -16 -26 -35 -47 -19 -21 -35 -42 -35 -47 0 -5 -13 -26 -30 -47 -16 -21
-30 -44 -30 -52 0 -8 -5 -19 -12 -26 -6 -6 -9 -14 -6 -17 7 -7 156 139 178
173 8 13 14 27 13 32 -1 4 9 20 22 34 33 36 47 63 50 100 1 17 8 45 15 61 17
39 21 75 9 75 -6 0 -8 -4 -4 -9z"/>
<path d="M9454 5700 c-1 -17 3 -30 7 -30 5 0 9 14 9 30 0 39 -15 39 -16 0z"/>
<path d="M8148 5661 c-6 -10 -17 -17 -24 -14 -7 2 -22 -5 -33 -16 -12 -12 -16
-21 -10 -21 8 0 8 -4 -1 -15 -6 -8 -10 -22 -7 -32 4 -20 2 -24 29 50 13 34 31
36 22 2 -11 -43 10 -27 27 20 18 48 17 57 -3 26z"/>
<path d="M9448 5624 c-2 -19 -1 -37 2 -39 4 -2 7 1 7 8 0 7 3 25 7 40 3 15 2
27 -3 27 -5 0 -11 -16 -13 -36z"/>
<path d="M8219 5592 c-15 -35 -53 -182 -63 -247 -16 -104 -17 -110 -5 -98 6 6
13 24 15 40 1 15 12 62 24 103 25 91 30 108 36 140 3 14 9 42 14 63 10 47 0
47 -21 -1z"/>
<path d="M9911 5522 c-21 -104 -23 -130 -25 -239 0 -57 -4 -103 -8 -103 -9 0
-21 -37 -24 -75 -1 -16 -7 -42 -12 -56 -6 -15 -8 -29 -5 -33 7 -6 42 61 48 91
2 13 7 28 11 34 3 6 8 39 10 73 4 66 9 114 22 191 8 49 8 172 0 180 -2 2 -10
-26 -17 -63z"/>
<path d="M2303 5549 c-25 -9 -30 -19 -10 -19 15 0 43 17 37 23 -3 3 -15 1 -27
-4z"/>
<path d="M7559 5520 c-1 -5 -2 -14 -3 -19 -2 -14 -16 -26 -16 -13 0 6 -7 9
-15 6 -8 -4 -15 -17 -15 -31 0 -13 -7 -38 -16 -54 -12 -23 -13 -34 -4 -44 10
-12 7 -13 -19 -5 -36 10 -42 -4 -9 -21 22 -12 22 -12 2 -20 -14 -5 -46 -57
-94 -154 -41 -81 -84 -163 -96 -181 -13 -19 -19 -34 -13 -34 6 0 5 -8 -2 -21
-12 -23 -58 -153 -64 -182 -6 -27 -13 -53 -41 -142 -13 -44 -29 -99 -34 -122
-7 -26 -17 -43 -25 -43 -12 0 -12 -5 1 -35 15 -37 17 -135 2 -135 -4 0 -8 7
-8 15 0 8 -4 15 -10 15 -15 0 -12 -7 12 -40 13 -18 22 -46 23 -74 0 -24 7 -51
14 -60 7 -8 10 -24 6 -35 -7 -22 34 -66 121 -133 42 -31 58 -38 86 -35 19 2
40 7 47 11 6 4 14 0 17 -9 9 -23 44 -39 57 -26 6 6 19 11 29 11 10 0 18 4 18
8 0 5 17 18 38 29 20 12 55 41 78 65 68 72 214 293 214 323 0 8 4 15 9 15 5 0
7 8 5 18 -7 27 33 85 54 77 12 -4 10 0 -5 15 -27 25 -29 32 -6 23 10 -4 14 -2
10 4 -11 18 98 217 114 207 6 -3 9 5 8 18 -4 41 1 68 11 68 6 0 10 -28 10 -65
0 -37 4 -65 10 -65 6 0 10 6 11 13 0 6 2 21 5 32 4 19 11 96 18 207 2 27 13
59 25 76 11 17 21 39 21 50 0 11 5 22 11 24 9 3 42 83 54 131 2 10 7 28 10 40
6 22 6 22 -10 2 -9 -11 -18 -31 -21 -45 -3 -14 -11 -43 -17 -65 -6 -22 -10
-43 -9 -47 3 -14 -15 -8 -39 13 -19 17 -21 22 -9 29 13 9 7 14 -12 11 -4 0 -5
6 -2 14 4 8 2 15 -4 15 -5 0 -19 15 -29 33 -20 33 -17 67 6 82 12 7 15 35 4
35 -5 0 -15 -15 -23 -32 -15 -32 -40 -50 -40 -29 0 18 -72 82 -115 102 -22 10
-65 39 -95 64 -54 44 -64 49 -107 46 -11 -1 -24 3 -28 8 -3 6 1 11 9 11 16 0
24 20 9 20 -5 0 -19 3 -32 7 -18 5 -22 3 -16 -7 6 -10 4 -12 -8 -7 -17 7 -41
-15 -29 -28 4 -5 1 -5 -6 -1 -7 5 -12 18 -11 29 0 12 1 28 0 35 -1 14 -20 16
-22 2z m90 -96 c-13 -7 -28 -10 -33 -7 -5 3 2 12 15 19 13 7 28 10 33 7 5 -3
-2 -12 -15 -19z m379 -521 c1 -16 4 -38 6 -50 3 -13 1 -23 -3 -23 -5 0 -12
-12 -15 -26 -4 -14 -25 -50 -46 -78 -22 -29 -40 -59 -40 -67 -1 -8 -7 -25 -16
-39 l-15 -25 6 25 6 25 -18 -22 c-10 -12 -38 -50 -63 -84 -25 -35 -55 -74 -68
-88 -13 -14 -21 -33 -19 -43 3 -10 1 -18 -3 -18 -12 0 -136 -125 -191 -192
-24 -29 -55 -65 -69 -80 l-25 -28 1 32 c0 18 6 34 12 36 7 2 12 12 12 22 0 10
5 22 10 25 6 4 8 11 5 16 -8 12 22 42 35 34 5 -3 10 3 10 14 0 11 5 23 10 26
6 3 10 14 10 24 0 11 16 41 35 67 19 27 60 87 92 134 32 47 74 101 93 120 39
38 169 192 213 253 16 20 29 37 30 37 2 0 4 -12 5 -27z m-825 -233 c-3 -11 -9
-20 -13 -20 -5 0 -6 9 -3 20 3 11 9 20 13 20 5 0 6 -9 3 -20z m-37 -142 c-7
-70 -13 -99 -26 -112 -13 -13 -13 18 1 86 15 70 17 78 24 78 3 0 3 -24 1 -52z"/>
<path d="M448 5507 c7 -8 8 -18 4 -22 -4 -5 -1 -5 6 -1 17 10 15 23 -4 30 -13
5 -14 4 -6 -7z"/>
<path d="M8067 5513 c-4 -3 -7 -11 -7 -17 0 -6 5 -5 12 2 6 6 9 14 7 17 -3 3
-9 2 -12 -2z"/>
<path d="M795 5480 c3 -5 8 -10 11 -10 2 0 4 5 4 10 0 6 -5 10 -11 10 -5 0 -7
-4 -4 -10z"/>
<path d="M8060 5469 c0 -5 5 -7 10 -4 6 3 10 8 10 11 0 2 -4 4 -10 4 -5 0 -10
-5 -10 -11z"/>
<path d="M8060 5401 c0 -6 4 -13 10 -16 6 -3 7 1 4 9 -7 18 -14 21 -14 7z"/>
<path d="M3436 5391 c-3 -5 1 -14 8 -20 12 -10 13 -8 9 8 -6 23 -9 25 -17 12z"/>
<path d="M8217 5381 c-4 -17 -3 -21 5 -13 5 5 8 16 6 23 -3 8 -7 3 -11 -10z"/>
<path d="M3375 5350 c-3 -5 -1 -10 4 -10 6 0 11 5 11 10 0 6 -2 10 -4 10 -3 0
-8 -4 -11 -10z"/>
<path d="M8230 5351 c0 -5 5 -13 10 -16 6 -3 10 -2 10 4 0 5 -4 13 -10 16 -5
3 -10 2 -10 -4z"/>
<path d="M3325 5340 c-8 -13 5 -13 25 0 13 8 13 10 -2 10 -9 0 -20 -4 -23 -10z"/>
<path d="M8021 5334 c0 -11 3 -14 6 -6 3 7 2 16 -1 19 -3 4 -6 -2 -5 -13z"/>
<path d="M8627 5330 c-3 -11 -1 -20 4 -20 5 0 9 9 9 20 0 11 -2 20 -4 20 -2 0
-6 -9 -9 -20z"/>
<path d="M9848 5305 c-2 -19 -1 -35 3 -35 4 0 9 16 11 35 2 19 1 35 -3 35 -4
0 -9 -16 -11 -35z"/>
<path d="M3225 5260 c-32 -33 -23 -40 13 -10 13 11 22 24 20 30 -2 6 -16 -3
-33 -20z"/>
<path d="M8097 5259 c3 -10 9 -16 14 -13 13 8 11 21 -5 27 -10 4 -12 0 -9 -14z"/>
<path d="M8210 5261 c0 -5 7 -12 16 -15 21 -8 24 -8 24 5 0 5 -4 7 -10 4 -5
-3 -10 -1 -10 4 0 6 -4 11 -10 11 -5 0 -10 -4 -10 -9z"/>
<path d="M1965 5220 c3 -5 11 -10 16 -10 6 0 7 5 4 10 -3 6 -11 10 -16 10 -6
0 -7 -4 -4 -10z"/>
<path d="M8084 5206 c-6 -25 1 -46 14 -46 4 0 7 16 7 35 0 40 -12 46 -21 11z"/>
<path d="M8110 5200 c0 -5 5 -10 11 -10 5 0 7 5 4 10 -3 6 -8 10 -11 10 -2 0
-4 -4 -4 -10z"/>
<path d="M3100 5179 c0 -5 5 -7 10 -4 6 3 10 8 10 11 0 2 -4 4 -10 4 -5 0 -10
-5 -10 -11z"/>
<path d="M8599 5108 c-1 -2 -3 -16 -5 -33 -11 -92 -13 -125 -5 -125 5 0 9 18
9 39 0 22 6 49 12 60 6 12 7 21 1 21 -5 0 -7 9 -4 20 3 11 3 20 -1 20 -3 0 -7
-1 -7 -2z"/>
<path d="M3130 5070 c-8 -5 -12 -12 -9 -15 4 -3 12 1 19 10 14 17 11 19 -10 5z"/>
<path d="M8527 4973 c-4 -3 -7 -15 -7 -26 0 -25 13 -14 15 13 2 22 1 23 -8 13z"/>
<path d="M9830 4964 c0 -8 5 -12 10 -9 6 4 8 11 5 16 -9 14 -15 11 -15 -7z"/>
<path d="M5570 4939 c0 -5 5 -7 10 -4 6 3 10 8 10 11 0 2 -4 4 -10 4 -5 0 -10
-5 -10 -11z"/>
<path d="M2993 4933 c-15 -5 -17 -23 -4 -23 5 0 11 7 15 15 3 8 4 15 3 14 -1
0 -8 -3 -14 -6z"/>
<path d="M5605 4930 c3 -5 8 -10 11 -10 2 0 4 5 4 10 0 6 -5 10 -11 10 -5 0
-7 -4 -4 -10z"/>
<path d="M9810 4915 c-6 -15 -13 -32 -17 -38 -4 -6 -1 -7 6 -3 14 9 34 56 27
64 -3 3 -10 -8 -16 -23z"/>
<path d="M8516 4912 c-2 -4 -7 -33 -9 -64 -3 -31 -10 -65 -16 -75 -11 -22 -11
-63 1 -63 4 0 8 10 8 23 0 12 6 31 13 42 8 11 15 45 16 75 2 30 5 58 7 62 3 5
1 8 -5 8 -5 0 -12 -4 -15 -8z"/>
<path d="M5495 4900 c-3 -6 1 -7 9 -4 18 7 21 14 7 14 -6 0 -13 -4 -16 -10z"/>
<path d="M2958 4876 c-23 -32 -49 -96 -38 -96 11 0 63 98 58 110 -2 4 -10 -2
-20 -14z"/>
<path d="M5391 4886 c-9 -10 -8 -15 2 -19 8 -3 13 3 14 14 2 23 -1 24 -16 5z"/>
<path d="M8590 4880 c-9 -6 -10 -10 -3 -10 6 0 15 5 18 10 8 12 4 12 -15 0z"/>
<path d="M8580 4839 c0 -5 5 -7 10 -4 6 3 10 8 10 11 0 2 -4 4 -10 4 -5 0 -10
-5 -10 -11z"/>
<path d="M9765 4808 c-9 -24 -19 -49 -22 -55 -3 -7 -1 -13 5 -13 11 0 47 98
39 106 -2 3 -12 -14 -22 -38z"/>
<path d="M7185 4820 c-3 -5 -1 -10 4 -10 6 0 11 5 11 10 0 6 -2 10 -4 10 -3 0
-8 -4 -11 -10z"/>
<path d="M8587 4813 c-4 -3 -7 -11 -7 -17 0 -6 5 -5 12 2 6 6 9 14 7 17 -3 3
-9 2 -12 -2z"/>
<path d="M2863 4730 c-11 -16 -10 -18 1 -14 15 6 30 34 18 34 -4 0 -13 -9 -19
-20z"/>
<path d="M7140 4726 c0 -9 5 -16 10 -16 6 0 10 4 10 9 0 6 -4 13 -10 16 -5 3
-10 -1 -10 -9z"/>
<path d="M9710 4677 c-32 -65 -35 -77 -15 -52 26 31 56 93 47 98 -4 3 -18 -18
-32 -46z"/>
<path d="M2865 4690 c-3 -5 -1 -10 4 -10 6 0 11 5 11 10 0 6 -2 10 -4 10 -3 0
-8 -4 -11 -10z"/>
<path d="M5156 4670 c6 -8 13 -22 16 -30 3 -9 7 -10 11 -3 4 6 -3 19 -16 29
-12 11 -17 12 -11 4z"/>
<path d="M8422 4636 c-9 -20 -8 -24 5 -22 9 2 18 12 20 24 4 29 -11 28 -25 -2z"/>
<path d="M9416 4635 c-3 -8 -1 -15 3 -15 5 0 11 7 15 15 3 8 1 15 -3 15 -5 0
-11 -7 -15 -15z"/>
<path d="M8448 4568 c-10 -10 -13 -18 -8 -18 6 0 10 -4 10 -10 0 -5 -6 -7 -14
-4 -16 6 -38 -67 -26 -86 4 -7 3 -28 -2 -49 -5 -20 -11 -47 -14 -61 -2 -14 -9
-38 -14 -55 -6 -16 -17 -77 -25 -135 -8 -58 -19 -119 -24 -137 -9 -30 -6 -43
9 -43 4 0 7 6 8 13 2 25 19 83 34 112 8 17 13 43 12 60 -2 16 1 34 6 40 6 7 7
14 4 17 -2 3 2 23 10 44 9 22 18 50 20 64 3 14 5 25 6 25 1 0 4 25 6 55 4 49
9 86 14 100 1 3 2 8 1 13 0 4 3 7 7 7 10 0 15 57 5 63 -5 2 -16 -4 -25 -15z"/>
<path d="M8016 4504 c-3 -9 -6 -23 -6 -32 0 -21 15 -5 25 26 7 25 -9 31 -19 6z"/>
<path d="M7981 4394 c-7 -30 -10 -58 -6 -62 8 -8 25 19 19 30 -3 4 -2 8 3 8 4
0 8 18 9 40 2 57 -11 49 -25 -16z"/>
<path d="M4440 4425 c0 -8 9 -13 20 -12 11 1 20 4 20 8 0 4 -9 9 -20 12 -13 3
-20 0 -20 -8z"/>
<path d="M8355 4410 c3 -5 8 -10 11 -10 2 0 4 5 4 10 0 6 -5 10 -11 10 -5 0
-7 -4 -4 -10z"/>
<path d="M4111 4370 c0 -37 2 -41 9 -22 6 13 6 31 0 45 -7 18 -9 14 -9 -23z"/>
<path d="M7870 4399 c0 -5 5 -7 10 -4 6 3 10 8 10 11 0 2 -4 4 -10 4 -5 0 -10
-5 -10 -11z"/>
<path d="M8357 4383 c-4 -3 -7 -11 -7 -17 0 -6 5 -5 12 2 6 6 9 14 7 17 -3 3
-9 2 -12 -2z"/>
<path d="M4453 4353 c-17 -6 -16 -25 0 -47 12 -16 13 -14 14 18 1 20 0 36 0
35 -1 0 -8 -3 -14 -6z"/>
<path d="M7946 4328 c-8 -31 -7 -38 2 -38 4 0 9 14 10 30 3 35 -3 39 -12 8z"/>
<path d="M4036 4232 c-10 -21 -19 -54 -21 -73 -2 -19 -6 -43 -8 -54 -3 -11
-11 -42 -17 -70 -7 -27 -16 -60 -21 -72 -5 -14 -5 -23 1 -23 4 0 7 -21 4 -47
-5 -61 11 -28 21 43 4 27 13 60 20 74 16 31 41 147 39 178 -1 12 3 22 7 22 5
0 9 14 9 30 0 41 -14 38 -34 -8z"/>
<path d="M4100 4199 c0 -5 5 -7 10 -4 6 3 10 8 10 11 0 2 -4 4 -10 4 -5 0 -10
-5 -10 -11z"/>
<path d="M6501 4014 c0 -11 3 -14 6 -6 3 7 2 16 -1 19 -3 4 -6 -2 -5 -13z"/>
<path d="M4466 3993 c-6 -14 -5 -15 5 -6 7 7 10 15 7 18 -3 3 -9 -2 -12 -12z"/>
<path d="M6484 3892 c3 -6 2 -13 -4 -17 -6 -4 -7 -12 -3 -18 4 -7 8 -28 9 -47
1 -19 3 -41 3 -48 1 -7 6 -10 12 -6 6 3 8 16 5 27 -3 12 -1 26 5 33 7 8 7 14
-1 19 -5 3 -10 17 -10 30 0 13 -5 27 -12 31 -6 4 -8 3 -4 -4z"/>
<path d="M4917 3836 c-6 -15 -13 -66 -21 -144 -2 -21 1 -31 8 -29 6 2 11 24
11 48 0 24 6 58 14 76 8 21 10 37 3 48 -8 16 -10 16 -15 1z"/>
<path d="M6523 3780 c0 -23 3 -28 9 -16 5 9 5 23 0 32 -6 12 -9 7 -9 -16z"/>
<path d="M6509 3728 c-8 -29 -5 -38 14 -38 21 1 21 1 4 14 -14 11 -15 15 -5
19 10 4 10 6 1 6 -7 1 -13 0 -14 -1z"/>
<path d="M4315 3669 c-4 -6 -5 -12 -2 -15 2 -3 7 2 10 11 7 17 1 20 -8 4z"/>
<path d="M4886 3642 c-2 -4 -1 -14 5 -22 7 -12 9 -10 9 8 0 23 -5 28 -14 14z"/>
<path d="M4912 3480 c3 -41 17 -50 16 -10 -1 17 -5 33 -10 36 -5 3 -7 -9 -6
-26z"/>
<path d="M4917 3410 c-3 -11 -2 -20 3 -20 12 0 21 28 11 35 -5 2 -11 -4 -14
-15z"/>
<path d="M4500 3409 c0 -5 5 -7 10 -4 6 3 10 8 10 11 0 2 -4 4 -10 4 -5 0 -10
-5 -10 -11z"/>
<path d="M4917 3373 c-13 -24 36 -292 63 -344 19 -35 19 -20 -1 49 -25 87 -31
130 -33 221 -1 46 -6 76 -13 78 -6 2 -13 0 -16 -4z"/>
<path d="M7878 3333 c6 -2 18 -2 25 0 6 3 1 5 -13 5 -14 0 -19 -2 -12 -5z"/>
<path d="M8130 3306 c0 -2 9 -6 20 -9 11 -3 18 -1 14 4 -5 9 -34 13 -34 5z"/>
<path d="M8180 3300 c0 -5 5 -10 11 -10 5 0 7 5 4 10 -3 6 -8 10 -11 10 -2 0
-4 -4 -4 -10z"/>
<path d="M7415 3280 c-3 -5 -2 -10 4 -10 5 0 13 5 16 10 3 6 2 10 -4 10 -5 0
-13 -4 -16 -10z"/>
<path d="M7866 3198 c3 -4 11 -5 19 -1 21 7 19 12 -4 10 -11 0 -18 -5 -15 -9z"/>
<path d="M3277 3181 c-4 -17 -3 -21 5 -13 5 5 8 16 6 23 -3 8 -7 3 -11 -10z"/>
<path d="M8096 3173 c-6 -14 -5 -15 5 -6 7 7 10 15 7 18 -3 3 -9 -2 -12 -12z"/>
<path d="M8395 3160 c27 -12 43 -12 25 0 -8 5 -22 9 -30 9 -10 0 -8 -3 5 -9z"/>
<path d="M7990 3149 c0 -5 5 -7 10 -4 6 3 10 8 10 11 0 2 -4 4 -10 4 -5 0 -10
-5 -10 -11z"/>
<path d="M8185 3150 c3 -5 8 -10 11 -10 2 0 4 5 4 10 0 6 -5 10 -11 10 -5 0
-7 -4 -4 -10z"/>
<path d="M7210 3128 c0 -4 4 -8 9 -8 6 0 12 4 15 8 3 5 -1 9 -9 9 -8 0 -15 -4
-15 -9z"/>
<path d="M7470 3096 c0 -10 28 -13 41 -5 10 6 7 9 -13 9 -16 0 -28 -2 -28 -4z"/>
<path d="M6535 3014 c-33 -14 -67 -34 -75 -44 -8 -10 -22 -20 -30 -23 -12 -4
-12 -6 2 -6 9 -1 24 7 33 16 10 9 24 17 34 18 27 4 121 47 121 56 0 14 -21 10
-85 -17z"/>
<path d="M6430 3004 l-25 -15 25 7 c14 3 29 10 35 15 15 14 -7 10 -35 -7z"/>
<path d="M6360 2931 c-80 -31 -138 -59 -144 -70 -9 -14 0 -14 27 1 12 7 28 13
35 14 8 1 21 9 30 17 10 8 28 17 42 20 14 3 34 13 45 21 25 19 21 19 -35 -3z"/>
<path d="M6024 2924 c-18 -14 -18 -15 4 -4 12 6 22 13 22 15 0 8 -5 6 -26 -11z"/>
<path d="M7470 2929 c0 -5 5 -7 10 -4 6 3 10 8 10 11 0 2 -4 4 -10 4 -5 0 -10
-5 -10 -11z"/>
<path d="M6525 2914 c-22 -8 -59 -23 -82 -34 -24 -11 -47 -20 -53 -20 -10 0
-20 -4 -75 -33 -16 -8 -45 -17 -63 -20 -18 -3 -38 -10 -45 -15 -7 -6 -39 -20
-71 -31 -33 -11 -62 -25 -65 -29 -3 -5 -24 -15 -46 -22 -22 -7 -51 -21 -64
-31 -13 -11 -27 -19 -31 -19 -14 0 -82 -31 -78 -36 3 -2 31 7 64 20 99 40 187
77 229 96 92 41 117 50 134 50 17 0 59 19 196 87 28 13 59 26 69 27 11 2 22 8
24 14 2 7 2 12 0 11 -1 0 -21 -7 -43 -15z"/>
<path d="M3177 2871 c-4 -17 -3 -21 5 -13 5 5 8 16 6 23 -3 8 -7 3 -11 -10z"/>
<path d="M7910 2878 c-53 -9 -66 -10 -92 -7 -29 4 -115 -13 -167 -33 -49 -18
-160 -47 -232 -62 -13 -3 -37 -9 -54 -15 -37 -12 -145 -41 -165 -45 -8 -1 -31
-7 -50 -14 -19 -6 -46 -13 -60 -15 -35 -4 -70 -29 -70 -48 0 -25 8 -27 53 -12
23 8 56 17 72 20 17 2 50 10 75 18 25 8 58 16 73 19 34 6 98 26 112 35 6 4 24
8 40 9 17 2 44 10 61 17 17 8 49 17 70 21 22 3 42 8 47 11 4 2 28 8 55 13 26
4 56 10 67 13 11 2 47 7 80 11 33 4 76 13 95 20 19 8 46 18 60 23 24 9 24 10
5 20 -12 6 -41 6 -75 1z"/>
<path d="M3195 2853 c-4 -18 -12 -30 -19 -27 -7 3 -18 -15 -28 -45 -13 -41
-14 -53 -3 -67 11 -16 13 -14 20 16 4 19 16 54 27 79 10 24 17 52 15 60 -3 10
-7 3 -12 -16z m-24 -56 c-10 -9 -11 -8 -5 6 3 10 9 15 12 12 3 -3 0 -11 -7
-18z"/>
<path d="M6830 2850 c-47 -16 -93 -34 -102 -40 -10 -5 -29 -10 -42 -10 -14 0
-28 -5 -31 -11 -8 -12 27 -7 90 12 22 7 42 13 45 14 3 1 27 11 53 23 27 12 55
22 63 22 8 0 14 5 14 10 0 6 -1 10 -2 9 -2 0 -41 -13 -88 -29z"/>
<path d="M5815 2859 c-4 -6 -5 -12 -2 -15 2 -3 7 2 10 11 7 17 1 20 -8 4z"/>
<path d="M6130 2845 c-7 -9 -35 -25 -62 -37 -26 -11 -48 -25 -48 -30 0 -6 7
-5 15 2 8 7 15 9 15 5 0 -4 6 -3 13 2 6 6 29 16 50 22 26 9 37 18 37 32 0 23
-4 24 -20 4z"/>
<path d="M6175 2850 c-3 -5 -1 -10 4 -10 6 0 11 5 11 10 0 6 -2 10 -4 10 -3 0
-8 -4 -11 -10z"/>
<path d="M8148 2853 c6 -2 18 -2 25 0 6 3 1 5 -13 5 -14 0 -19 -2 -12 -5z"/>
<path d="M5970 2825 c-7 -8 -18 -15 -26 -15 -7 0 -28 -6 -46 -14 -18 -8 -49
-21 -68 -29 -86 -36 -151 -70 -146 -75 6 -5 131 46 226 91 51 25 98 57 83 57
-6 0 -16 -7 -23 -15z"/>
<path d="M8365 2810 c3 -5 8 -10 11 -10 2 0 4 5 4 10 0 6 -5 10 -11 10 -5 0
-7 -4 -4 -10z"/>
<path d="M8400 2802 c0 -12 42 -30 57 -25 10 4 10 7 0 18 -8 9 -16 10 -24 3
-9 -7 -13 -7 -13 1 0 6 -4 11 -10 11 -5 0 -10 -4 -10 -8z"/>
<path d="M5985 2770 c3 -5 8 -10 11 -10 2 0 4 5 4 10 0 6 -5 10 -11 10 -5 0
-7 -4 -4 -10z"/>
<path d="M6570 2763 c-19 -9 -48 -22 -65 -29 -16 -8 -23 -14 -13 -14 9 0 47
13 85 30 37 16 59 29 48 29 -11 0 -36 -7 -55 -16z"/>
<path d="M5560 2755 c-20 -24 -5 -28 21 -6 19 16 20 20 8 21 -9 0 -22 -7 -29
-15z"/>
<path d="M5965 2740 c-3 -5 -1 -10 4 -10 6 0 11 5 11 10 0 6 -2 10 -4 10 -3 0
-8 -4 -11 -10z"/>
<path d="M5505 2720 c-3 -5 1 -10 9 -10 8 0 18 5 21 10 3 6 -1 10 -9 10 -8 0
-18 -4 -21 -10z"/>
<path d="M6450 2710 c-9 -6 -10 -10 -3 -10 6 0 15 5 18 10 8 12 4 12 -15 0z"/>
<path d="M5459 2693 c-13 -15 -12 -15 9 -4 23 12 28 21 13 21 -5 0 -15 -7 -22
-17z"/>
<path d="M5555 2680 c-3 -5 -1 -10 4 -10 6 0 11 5 11 10 0 6 -2 10 -4 10 -3 0
-8 -4 -11 -10z"/>
<path d="M5710 2670 c0 -5 5 -10 11 -10 5 0 7 5 4 10 -3 6 -8 10 -11 10 -2 0
-4 -4 -4 -10z"/>
<path d="M5685 2660 c-4 -6 -18 -15 -31 -20 -13 -5 -24 -14 -24 -19 0 -5 13
-3 30 5 31 16 46 32 37 40 -3 3 -8 0 -12 -6z"/>
<path d="M5298 2629 c-21 -11 -38 -22 -38 -24 0 -13 28 -2 55 20 36 29 32 30
-17 4z"/>
<path d="M5760 2640 c-9 -6 -10 -10 -3 -10 6 0 15 5 18 10 8 12 4 12 -15 0z"/>
<path d="M6943 2629 c-57 -22 -69 -38 -25 -34 43 4 82 23 82 40 0 8 -1 15 -2
14 -2 0 -27 -9 -55 -20z"/>
<path d="M5680 2613 c-26 -10 -64 -43 -49 -43 8 1 28 12 44 25 31 25 31 28 5
18z"/>
<path d="M5590 2555 c-11 -13 -10 -14 4 -9 9 3 16 10 16 15 0 13 -6 11 -20 -6z"/>
<path d="M5459 2530 c-31 -25 -12 -26 21 0 14 11 20 20 14 20 -7 0 -22 -9 -35
-20z"/>
<path d="M5095 2529 c-11 -17 1 -21 15 -4 8 9 8 15 2 15 -6 0 -14 -5 -17 -11z"/>
<path d="M4995 2480 c-8 -13 5 -13 25 0 13 8 13 10 -2 10 -9 0 -20 -4 -23 -10z"/>
<path d="M5036 2434 c-6 -15 -4 -15 11 -3 10 7 20 15 22 16 2 2 -3 3 -11 3 -9
0 -19 -7 -22 -16z"/>
<path d="M5286 2429 c-11 -11 -15 -19 -9 -19 12 0 38 28 32 34 -2 2 -13 -5
-23 -15z"/>
<path d="M6640 2439 c0 -5 5 -7 10 -4 6 3 10 8 10 11 0 2 -4 4 -10 4 -5 0 -10
-5 -10 -11z"/>
<path d="M5360 2429 c0 -5 5 -7 10 -4 6 3 10 8 10 11 0 2 -4 4 -10 4 -5 0 -10
-5 -10 -11z"/>
<path d="M6600 2430 c-8 -5 -12 -11 -10 -14 3 -2 14 2 24 10 22 15 10 19 -14
4z"/>
<path d="M5137 2411 c-44 -28 -45 -34 -3 -17 21 9 40 16 42 16 2 0 4 5 4 10 0
14 -10 12 -43 -9z"/>
<path d="M6550 2413 c-8 -3 -49 -21 -90 -41 -41 -20 -77 -36 -80 -35 -3 1 -17
-7 -30 -17 -29 -22 -11 -21 45 4 22 10 48 18 57 19 9 1 24 11 34 24 9 13 27
23 38 23 12 0 31 7 42 15 19 14 12 18 -16 8z"/>
<path d="M4833 2403 c-20 -7 -15 -23 5 -16 15 6 16 5 2 -13 -14 -19 -14 -19 8
0 34 29 25 46 -15 29z"/>
<path d="M5207 2383 c-4 -3 -7 -11 -7 -17 0 -6 5 -5 12 2 6 6 9 14 7 17 -3 3
-9 2 -12 -2z"/>
<path d="M4787 2373 c-13 -12 -7 -33 8 -33 8 0 15 5 15 11 0 5 -5 7 -12 3 -8
-5 -9 -2 -5 9 7 18 5 21 -6 10z"/>
<path d="M5401 2329 c-18 -11 -31 -22 -28 -25 4 -5 77 34 77 42 0 9 -16 3 -49
-17z"/>
<path d="M4817 2333 c-4 -3 -7 -11 -7 -17 0 -6 5 -5 12 2 6 6 9 14 7 17 -3 3
-9 2 -12 -2z"/>
<path d="M4836 2294 c-11 -8 -16 -14 -10 -14 13 0 39 18 34 24 -3 2 -14 -2
-24 -10z"/>
<path d="M5300 2270 c-13 -8 -12 -10 3 -10 9 0 17 5 17 10 0 12 -1 12 -20 0z"/>
<path d="M6055 2210 c-3 -5 -1 -10 4 -10 6 0 11 5 11 10 0 6 -2 10 -4 10 -3 0
-8 -4 -11 -10z"/>
<path d="M4495 2200 c-3 -5 -2 -10 4 -10 5 0 13 5 16 10 3 6 2 10 -4 10 -5 0
-13 -4 -16 -10z"/>
<path d="M4425 2159 c-4 -6 -5 -12 -2 -15 2 -3 7 2 10 11 7 17 1 20 -8 4z"/>
<path d="M4335 2090 c-22 -22 -46 -40 -55 -41 -9 0 -11 -2 -3 -6 17 -6 103 54
103 72 0 20 1 20 -45 -25z"/>
<path d="M5270 1885 c-7 -8 -8 -15 -2 -15 5 0 15 7 22 15 7 8 8 15 2 15 -5 0
-15 -7 -22 -15z"/>
<path d="M3629 1683 c-13 -16 -12 -17 4 -4 16 13 21 21 13 21 -2 0 -10 -8 -17
-17z"/>
</g>
</svg>
