
<svg width="505px" height="497px" viewBox="0 0 505 497" version="1.1" xmlns="http://www.w3.org/2000/svg" xmlns:xlink="http://www.w3.org/1999/xlink" style="">
    <!-- Generator: Sketch 49.2 (51160) - http://www.bohemiancoding.com/sketch -->
    <desc>Created with Sketch.</desc>
    <defs></defs>
    <g id="Page-1" stroke="none" stroke-width="1" fill="none" fill-rule="evenodd" fill-opacity="0">
        <g id="Artboard" transform="translate(-188.000000, -55.000000)" fill="#FFFFFF" stroke="#FFFFFF" stroke-width="3">
            <path d="M262.379269,57.5820312 L283.834347,57.5820312 L294.244504,99.5400391 C295.34477,104.19501 296.212274,108.627746 296.847043,112.838379 C297.481811,117.049012 298.095412,121.016257 298.687863,124.740234 L299.195675,124.740234 C299.788126,121.016257 300.401727,117.049012 301.036496,112.838379 C301.671265,108.627746 302.538769,104.19501 303.639035,99.5400391 L314.366574,57.5820312 L335.377316,57.5820312 L335.377316,166 L320.015988,166 L320.015988,130.135742 C320.015988,124.634413 320.068885,119.344752 320.174679,114.266602 C320.280474,109.188451 320.418005,104.52297 320.587277,100.27002 C320.756549,96.0170686 320.946977,92.2614095 321.158566,89.0029297 C321.370156,85.7444499 321.560584,83.1630955 321.729855,81.2587891 L320.5238,81.2587891 L304.146847,152.035156 L293.736691,152.035156 L277.232785,81.2587891 L276.02673,81.2587891 C276.196002,83.1630955 276.38643,85.7444499 276.598019,89.0029297 C276.809609,92.2614095 277.000037,96.0170686 277.169308,100.27002 C277.33858,104.52297 277.476111,109.188451 277.581906,114.266602 C277.687701,119.344752 277.740597,124.634413 277.740597,130.135742 L277.740597,166 L262.379269,166 L262.379269,57.5820312 Z M364.195066,57.5820312 L383.111082,57.5820312 L403.169676,166 L386.538816,166 L383.555418,146.576172 L363.75073,146.576172 L360.894285,166 L344.199949,166 L364.195066,57.5820312 Z M381.651121,134.198242 L374.033933,80.1796875 L373.335691,80.1796875 L365.655027,134.198242 L381.651121,134.198242 Z M411.992308,57.5820312 L428.432738,57.5820312 L428.432738,104.935547 L428.940551,104.935547 L447.729613,57.5820312 L464.106566,57.5820312 L443.159301,108.426758 L466.455199,166 L448.872191,166 L428.940551,114.393555 L428.432738,114.393555 L428.432738,166 L411.992308,166 L411.992308,57.5820312 Z M474.135254,57.5820312 L490.575684,57.5820312 L490.575684,166 L474.135254,166 L474.135254,57.5820312 Z M507.45984,57.5820312 L520.789918,57.5820312 L547.069215,130.135742 L547.450074,130.135742 C547.323121,128.443025 547.153851,126.559906 546.942262,124.486328 C546.730672,122.41275 546.540244,120.053561 546.370973,117.408691 C546.201701,114.763821 546.053591,111.769873 545.926637,108.426758 C545.799683,105.083642 545.736207,101.317404 545.736207,97.1279297 L545.736207,57.5820312 L560.46277,57.5820312 L560.46277,166 L547.005738,166 L520.853395,95.3505859 L520.345582,95.3505859 C520.472536,97.2548923 520.641805,99.31786 520.853395,101.539551 C521.064984,103.761242 521.255412,106.374334 521.424684,109.378906 C521.593955,112.383479 521.742066,115.885234 521.86902,119.884277 C521.995973,123.883321 522.059449,128.633436 522.059449,134.134766 L522.059449,166 L507.45984,166 L507.45984,57.5820312 Z M599.24634,167.015625 C597.976802,167.015625 596.495697,166.878094 594.802981,166.603027 C593.110264,166.327961 591.364676,165.746098 589.566164,164.857422 C587.767653,163.968746 586.000906,162.709806 584.265871,161.080566 C582.530837,159.451326 580.975676,157.293145 579.600344,154.605957 C578.225012,151.918769 577.114183,148.618021 576.267824,144.703613 C575.421466,140.789206 574.998293,136.123725 574.998293,130.707031 L574.998293,92.3037109 C574.998293,86.8446993 575.442625,82.1792186 576.331301,78.3071289 C577.219977,74.4350392 578.404861,71.1766083 579.885988,68.5317383 C581.367116,65.8868683 583.070386,63.7815833 584.995852,62.2158203 C586.921317,60.6500573 588.920809,59.454594 590.994387,58.6293945 C593.067965,57.8041951 595.120353,57.2646497 597.151613,57.0107422 C599.182874,56.7568347 601.065993,56.6298828 602.801028,56.6298828 C607.202091,56.6298828 610.915433,57.2329041 613.941164,58.4389648 C616.966896,59.6450256 619.421298,61.2953997 621.304446,63.3901367 C623.187593,65.4848738 624.541746,67.928697 625.366946,70.7216797 C626.192145,73.5146624 626.604738,76.4768724 626.604738,79.6083984 C626.604738,81.935884 626.467207,84.0834863 626.192141,86.0512695 C625.917074,88.0190528 625.546798,90.1878137 625.081301,92.5576172 L611.941653,92.5576172 L611.941653,87.4160156 C611.941653,75.5246801 608.746698,69.5791016 602.356692,69.5791016 C600.621657,69.5791016 599.119393,69.8753226 597.849856,70.4677734 C596.580318,71.0602243 595.522386,72.0652598 594.676028,73.4829102 C593.829669,74.9005605 593.205489,76.7731003 592.803469,79.1005859 C592.401449,81.4280715 592.200442,84.3268056 592.200442,87.796875 L592.200442,136.927734 C592.200442,140.313168 592.401449,143.127267 592.803469,145.370117 C593.205489,147.612967 593.81909,149.411452 594.644289,150.765625 C595.469489,152.119798 596.506262,153.082517 597.754641,153.653809 C599.003019,154.225101 600.494704,154.510742 602.229738,154.510742 C604.049409,154.510742 605.615149,154.034673 606.927004,153.08252 C608.23886,152.130366 609.31795,150.82911 610.164309,149.178711 C611.010667,147.528312 611.634847,145.581717 612.036867,143.338867 C612.438888,141.096017 612.639895,138.662774 612.639895,136.039062 L612.639895,121.883789 L604.197512,121.883789 L604.197512,111.092773 L628.635988,111.092773 L628.635988,166 L617.71802,166 L615.940676,155.716797 C613.867098,159.736999 611.486751,162.625154 608.799563,164.381348 C606.112375,166.137541 602.927999,167.015625 599.24634,167.015625 Z M207.092097,198.53125 L189.636043,198.53125 L189.636043,185.582031 L240.925105,185.582031 L240.925105,198.53125 L223.532527,198.53125 L223.532527,294 L207.092097,294 L207.092097,198.53125 Z M250.382504,185.582031 L266.822933,185.582031 L266.822933,230.967773 L286.310238,230.967773 L286.310238,185.582031 L302.750668,185.582031 L302.750668,294 L286.310238,294 L286.310238,243.916992 L266.822933,243.916992 L266.822933,294 L250.382504,294 L250.382504,185.582031 Z M319.761777,185.582031 L336.202207,185.582031 L336.202207,294 L319.761777,294 L319.761777,185.582031 Z M353.086363,185.582031 L366.416441,185.582031 L392.695738,258.135742 L393.076598,258.135742 C392.949644,256.443025 392.780375,254.559906 392.568785,252.486328 C392.357195,250.41275 392.166768,248.053561 391.997496,245.408691 C391.828224,242.763821 391.680114,239.769873 391.55316,236.426758 C391.426206,233.083642 391.36273,229.317404 391.36273,225.12793 L391.36273,185.582031 L406.089293,185.582031 L406.089293,294 L392.632262,294 L366.479918,223.350586 L365.972105,223.350586 C366.099059,225.254892 366.268328,227.31786 366.479918,229.539551 C366.691507,231.761242 366.881935,234.374334 367.051207,237.378906 C367.220479,240.383479 367.368589,243.885234 367.495543,247.884277 C367.622497,251.883321 367.685973,256.633436 367.685973,262.134766 L367.685973,294 L353.086363,294 L353.086363,185.582031 Z M444.872863,295.015625 C443.603326,295.015625 442.122221,294.878094 440.429504,294.603027 C438.736787,294.327961 436.991199,293.746098 435.192687,292.857422 C433.394176,291.968746 431.627429,290.709806 429.892394,289.080566 C428.15736,287.451326 426.6022,285.293145 425.226867,282.605957 C423.851535,279.918769 422.740706,276.618021 421.894348,272.703613 C421.047989,268.789206 420.624816,264.123725 420.624816,258.707031 L420.624816,220.303711 C420.624816,214.844699 421.069148,210.179219 421.957824,206.307129 C422.8465,202.435039 424.031384,199.176608 425.512512,196.531738 C426.993639,193.886868 428.69691,191.781583 430.622375,190.21582 C432.54784,188.650057 434.547332,187.454594 436.62091,186.629395 C438.694488,185.804195 440.746877,185.26465 442.778137,185.010742 C444.809397,184.756835 446.692516,184.629883 448.427551,184.629883 C452.828614,184.629883 456.541956,185.232904 459.567687,186.438965 C462.593419,187.645026 465.047821,189.2954 466.930969,191.390137 C468.814116,193.484874 470.168269,195.928697 470.993469,198.72168 C471.818668,201.514662 472.231262,204.476872 472.231262,207.608398 C472.231262,209.935884 472.09373,212.083486 471.818664,214.05127 C471.543598,216.019053 471.173321,218.187814 470.707824,220.557617 L457.568176,220.557617 L457.568176,215.416016 C457.568176,203.52468 454.373221,197.579102 447.983215,197.579102 C446.24818,197.579102 444.745916,197.875323 443.476379,198.467773 C442.206841,199.060224 441.148909,200.06526 440.302551,201.48291 C439.456192,202.90056 438.832012,204.7731 438.429992,207.100586 C438.027972,209.428072 437.826965,212.326806 437.826965,215.796875 L437.826965,264.927734 C437.826965,268.313168 438.027972,271.127267 438.429992,273.370117 C438.832012,275.612967 439.445613,277.411452 440.270812,278.765625 C441.096012,280.119798 442.132785,281.082517 443.381164,281.653809 C444.629543,282.225101 446.121227,282.510742 447.856262,282.510742 C449.675932,282.510742 451.241672,282.034673 452.553527,281.08252 C453.865383,280.130366 454.944474,278.82911 455.790832,277.178711 C456.63719,275.528312 457.26137,273.581717 457.663391,271.338867 C458.065411,269.096017 458.266418,266.662774 458.266418,264.039062 L458.266418,249.883789 L449.824035,249.883789 L449.824035,239.092773 L474.262512,239.092773 L474.262512,294 L463.344543,294 L461.567199,283.716797 C459.493621,287.736999 457.113274,290.625154 454.426086,292.381348 C451.738898,294.137541 448.554522,295.015625 444.872863,295.015625 Z M483.592957,272.037109 C483.592957,269.709624 483.730488,267.562022 484.005555,265.594238 C484.280621,263.626455 484.693215,261.500011 485.243348,259.214844 L498.002137,259.214844 L498.002137,264.483398 C498.002137,267.403335 498.181985,269.984689 498.541688,272.227539 C498.90139,274.470389 499.493832,276.364087 500.319031,277.908691 C501.144231,279.453295 502.24448,280.617021 503.619813,281.399902 C504.995145,282.182784 506.677257,282.574219 508.666199,282.574219 C511.797725,282.574219 514.188652,281.717294 515.839051,280.003418 C517.48945,278.289542 518.314637,275.782243 518.314637,272.481445 C518.314637,270.788729 518.198264,269.233568 517.965516,267.815918 C517.732767,266.398268 517.330753,264.991218 516.759461,263.594727 C516.188169,262.198235 515.415879,260.72771 514.442566,259.183105 C513.469254,257.638501 512.220894,255.914072 510.697449,254.009766 L493.558777,233.633789 C490.511887,229.74054 488.163278,225.815612 486.512879,221.858887 C484.86248,217.902161 484.037293,213.681012 484.037293,209.195312 C484.037293,205.598289 484.597997,202.297541 485.719422,199.292969 C486.840847,196.288396 488.459483,193.696463 490.575379,191.51709 C492.691275,189.337717 495.304367,187.645026 498.414734,186.438965 C501.525102,185.232904 505.048016,184.629883 508.983582,184.629883 C513.765507,184.629883 517.753911,185.306959 520.948914,186.661133 C524.143917,188.015306 526.693533,189.792632 528.59784,191.993164 C530.502146,194.193696 531.84572,196.658678 532.628602,199.388184 C533.411483,202.117689 533.802918,204.857734 533.802918,207.608398 C533.802918,209.935884 533.62307,212.083486 533.263367,214.05127 C532.903665,216.019053 532.491071,218.187814 532.025574,220.557617 L519.330262,220.557617 L519.330262,215.416016 C519.330262,209.660779 518.505075,205.249202 516.854676,202.181152 C515.204277,199.113103 512.517129,197.579102 508.793152,197.579102 C505.703944,197.579102 503.397652,198.436027 501.874207,200.149902 C500.350762,201.863778 499.589051,204.159491 499.589051,207.037109 C499.589051,208.560554 499.705423,209.935866 499.938172,211.163086 C500.17092,212.390306 500.509459,213.522293 500.953797,214.559082 C501.398135,215.595871 501.93768,216.600907 502.572449,217.574219 C503.207218,218.547531 503.926612,219.563146 504.730652,220.621094 L523.837098,243.726562 C527.307167,248.25458 529.973156,252.602681 531.835145,256.770996 C533.697133,260.939311 534.628113,265.350888 534.628113,270.005859 C534.628113,273.85679 534.025092,277.326807 532.819031,280.416016 C531.612971,283.505224 529.888541,286.128895 527.645691,288.287109 C525.402842,290.445323 522.694535,292.106277 519.520691,293.27002 C516.346847,294.433762 512.771037,295.015625 508.793152,295.015625 C503.884274,295.015625 499.811235,294.359707 496.573914,293.047852 C493.336593,291.735996 490.755239,290.000987 488.829773,287.842773 C486.904308,285.68456 485.550155,283.230157 484.767273,280.479492 C483.984392,277.728827 483.592957,274.914728 483.592957,272.037109 Z M596.960879,294.952148 C595.225844,294.952148 593.342725,294.814617 591.311465,294.539551 C589.280205,294.264484 587.270134,293.682622 585.281192,292.793945 C583.292249,291.905269 581.377392,290.64633 579.536563,289.01709 C577.695733,287.38785 576.066518,285.240248 574.648867,282.574219 C573.231217,279.90819 572.09923,276.618021 571.252871,272.703613 C570.406513,268.789206 569.98334,264.123725 569.98334,258.707031 L569.98334,220.303711 C569.98334,214.844699 570.417092,210.179219 571.28461,206.307129 C572.152127,202.435039 573.305273,199.176608 574.744082,196.531738 C576.182892,193.886868 577.822686,191.781583 579.663516,190.21582 C581.504345,188.650057 583.429782,187.454594 585.439883,186.629395 C587.449984,185.804195 589.449476,185.26465 591.438418,185.010742 C593.42736,184.756835 595.268162,184.629883 596.960879,184.629883 C598.56896,184.629883 600.356865,184.746255 602.324649,184.979004 C604.292432,185.211752 606.260186,185.71956 608.227969,186.502441 C610.195752,187.285323 612.110609,188.449048 613.972598,189.993652 C615.834586,191.538256 617.48496,193.632962 618.92377,196.277832 C620.362579,198.922702 621.515725,202.202292 622.383242,206.116699 C623.25076,210.031107 623.684512,214.760063 623.684512,220.303711 L623.684512,258.707031 C623.684512,264.081407 623.24018,268.70457 622.351504,272.57666 C621.462828,276.44875 620.299102,279.728339 618.860293,282.415527 C617.421484,285.102715 615.76053,287.260897 613.877383,288.890137 C611.994236,290.519377 610.068799,291.788895 608.101016,292.69873 C606.133233,293.608566 604.176058,294.211587 602.229434,294.507812 C600.28281,294.804038 598.526642,294.952148 596.960879,294.952148 Z M596.960879,282.574219 C598.56896,282.574219 599.97601,282.299156 601.182071,281.749023 C602.388131,281.19889 603.382587,280.246752 604.165469,278.892578 C604.948351,277.538405 605.540793,275.750499 605.942813,273.528809 C606.344833,271.307118 606.54584,268.503598 606.54584,265.118164 L606.54584,215.796875 C606.54584,212.326806 606.344833,209.428072 605.942813,207.100586 C605.540793,204.7731 604.948351,202.90056 604.165469,201.48291 C603.382587,200.06526 602.388131,199.060224 601.182071,198.467773 C599.97601,197.875323 598.56896,197.579102 596.960879,197.579102 C595.31048,197.579102 593.871693,197.875323 592.644473,198.467773 C591.417253,199.060224 590.401638,200.06526 589.597598,201.48291 C588.793557,202.90056 588.190536,204.7731 587.788516,207.100586 C587.386496,209.428072 587.185489,212.326806 587.185489,215.796875 L587.185489,265.118164 C587.185489,268.503598 587.386496,271.307118 587.788516,273.528809 C588.190536,275.750499 588.793557,277.538405 589.597598,278.892578 C590.401638,280.246752 591.417253,281.19889 592.644473,281.749023 C593.871693,282.299156 595.31048,282.574219 596.960879,282.574219 Z M637.58527,185.582031 L650.915348,185.582031 L677.194645,258.135742 L677.575504,258.135742 C677.44855,256.443025 677.279281,254.559906 677.067692,252.486328 C676.856102,250.41275 676.665674,248.053561 676.496403,245.408691 C676.327131,242.763821 676.179021,239.769873 676.052067,236.426758 C675.925113,233.083642 675.861637,229.317404 675.861637,225.12793 L675.861637,185.582031 L690.5882,185.582031 L690.5882,294 L677.131168,294 L650.978825,223.350586 L650.471012,223.350586 C650.597966,225.254892 650.767235,227.31786 650.978825,229.539551 C651.190414,231.761242 651.380842,234.374334 651.550114,237.378906 C651.719385,240.383479 651.867496,243.885234 651.99445,247.884277 C652.121403,251.883321 652.184879,256.633436 652.184879,262.134766 L652.184879,294 L637.58527,294 L637.58527,185.582031 Z M375.430113,326.53125 L357.974058,326.53125 L357.974058,313.582031 L409.263121,313.582031 L409.263121,326.53125 L391.870543,326.53125 L391.870543,422 L375.430113,422 L375.430113,326.53125 Z M418.720519,313.582031 L435.160949,313.582031 L435.160949,358.967773 L454.648254,358.967773 L454.648254,313.582031 L471.088684,313.582031 L471.088684,422 L454.648254,422 L454.648254,371.916992 L435.160949,371.916992 L435.160949,422 L418.720519,422 L418.720519,313.582031 Z M488.099793,313.582031 L528.280457,313.582031 L528.280457,326.53125 L504.540223,326.53125 L504.540223,358.967773 L522.884949,358.967773 L522.884949,371.916992 L504.540223,371.916992 L504.540223,409.050781 L528.915223,409.050781 L528.915223,422 L488.099793,422 L488.099793,313.582031 Z M228.996522,441.582031 L245.436951,441.582031 L245.436951,550 L228.996522,550 L228.996522,441.582031 Z M262.321108,441.582031 L275.651186,441.582031 L301.930483,514.135742 L302.311342,514.135742 C302.184388,512.443025 302.015119,510.559906 301.80353,508.486328 C301.59194,506.41275 301.401512,504.053561 301.232241,501.408691 C301.062969,498.763821 300.914858,495.769873 300.787905,492.426758 C300.660951,489.083642 300.597475,485.317404 300.597475,481.12793 L300.597475,441.582031 L315.324037,441.582031 L315.324037,550 L301.867006,550 L275.714662,479.350586 L275.20685,479.350586 C275.333804,481.254892 275.503073,483.31786 275.714662,485.539551 C275.926252,487.761242 276.11668,490.374334 276.285952,493.378906 C276.455223,496.383479 276.603334,499.885234 276.730287,503.884277 C276.857241,507.883321 276.920717,512.633436 276.920717,518.134766 L276.920717,550 L262.321108,550 L262.321108,441.582031 Z M342.237491,454.53125 L324.781436,454.53125 L324.781436,441.582031 L376.070499,441.582031 L376.070499,454.53125 L358.67792,454.53125 L358.67792,550 L342.237491,550 L342.237491,454.53125 Z M385.527897,441.582031 L425.708561,441.582031 L425.708561,454.53125 L401.968327,454.53125 L401.968327,486.967773 L420.313053,486.967773 L420.313053,499.916992 L401.968327,499.916992 L401.968327,537.050781 L426.343327,537.050781 L426.343327,550 L385.527897,550 L385.527897,441.582031 Z M436.562444,441.582031 L454.399358,441.582031 C456.430618,441.582031 458.662855,441.666666 461.096135,441.835938 C463.529416,442.005209 465.96266,442.417803 468.39594,443.07373 C470.829221,443.729658 473.17783,444.713535 475.441839,446.025391 C477.705847,447.337246 479.715918,449.135731 481.472112,451.420898 C483.228306,453.706066 484.635355,456.573062 485.693303,460.021973 C486.751251,463.470883 487.280217,467.649715 487.280217,472.558594 L487.280217,475.288086 C487.280217,483.54008 486.095333,490.257949 483.72553,495.441895 C481.355726,500.62584 477.86455,504.36034 473.251897,506.645508 L490.644475,550 L473.251897,550 L458.842717,509.438477 L452.685491,509.438477 L452.685491,550 L436.562444,550 L436.562444,441.582031 Z M455.161077,497.568359 C458.038695,497.568359 460.471939,497.25098 462.460882,496.616211 C464.449824,495.981442 466.057881,494.912931 467.2851,493.410645 C468.51232,491.908358 469.400983,489.919446 469.951116,487.443848 C470.501249,484.968249 470.776311,481.910825 470.776311,478.271484 L470.776311,469.702148 C470.776311,466.909166 470.522408,464.49708 470.014592,462.46582 C469.506777,460.43456 468.649852,458.763027 467.443792,457.451172 C466.237731,456.139316 464.640253,455.166019 462.651311,454.53125 C460.662369,453.896481 458.165649,453.579102 455.161077,453.579102 L452.685491,453.579102 L452.685491,497.568359 L455.161077,497.568359 Z M501.434882,441.582031 L514.76496,441.582031 L541.044257,514.135742 L541.425116,514.135742 C541.298162,512.443025 541.128893,510.559906 540.917304,508.486328 C540.705714,506.41275 540.515286,504.053561 540.346014,501.408691 C540.176743,498.763821 540.028632,495.769873 539.901679,492.426758 C539.774725,489.083642 539.711249,485.317404 539.711249,481.12793 L539.711249,441.582031 L554.437811,441.582031 L554.437811,550 L540.98078,550 L514.828436,479.350586 L514.320624,479.350586 C514.447578,481.254892 514.616847,483.31786 514.828436,485.539551 C515.040026,487.761242 515.230454,490.374334 515.399725,493.378906 C515.568997,496.383479 515.717108,499.885234 515.844061,503.884277 C515.971015,507.883321 516.034491,512.633436 516.034491,518.134766 L516.034491,550 L501.434882,550 L501.434882,441.582031 Z M571.321968,441.582031 L611.502632,441.582031 L611.502632,454.53125 L587.762397,454.53125 L587.762397,486.967773 L606.107124,486.967773 L606.107124,499.916992 L587.762397,499.916992 L587.762397,537.050781 L612.137397,537.050781 L612.137397,550 L571.321968,550 L571.321968,441.582031 Z M632.385812,454.53125 L614.929757,454.53125 L614.929757,441.582031 L666.218819,441.582031 L666.218819,454.53125 L648.826241,454.53125 L648.826241,550 L632.385812,550 L632.385812,454.53125 Z" id="MAKING-THINGS-ON-THE" class="qXgTYtAg_0"></path>
        </g>
    </g>
<style data-made-with="vivus-instant">.qXgTYtAg_0{stroke-dasharray:11191 11193;stroke-dashoffset:11192;animation:qXgTYtAg_draw 50000ms ease-in-out 0ms forwards;}@keyframes qXgTYtAg_draw{100%{stroke-dashoffset:0;}}@keyframes qXgTYtAg_fade{0%{stroke-opacity:1;}99.2619926199262%{stroke-opacity:1;}100%{stroke-opacity:0;}}</style></svg>
