
<svg viewBox="0 0 601 592" version="1.1" xmlns="http://www.w3.org/2000/svg" xmlns:xlink="http://www.w3.org/1999/xlink" style="">
    <!-- Generator: Sketch 49.2 (51160) - http://www.bohemiancoding.com/sketch -->
    <desc>Created with Sketch.</desc>
    <defs></defs>
    <g id="Page-1" stroke="none" stroke-width="1" fill="none" fill-rule="evenodd" fill-opacity="0">
        <g id="Artboard" transform="translate(-10.000000, -10.000000)" fill="#FFFFFF" stroke="#FFFFFF" stroke-width="3">
            <path d="M98.6955979,13.1347734 L124.265825,13.1347734 L136.672681,63.1404542 C137.983981,68.688263 139.017875,73.9712107 139.774395,78.9894559 C140.530914,84.0077011 141.262205,88.7358763 141.96829,93.1741233 L142.573502,93.1741233 C143.279587,88.7358763 144.010878,84.0077011 144.767398,78.9894559 C145.523917,73.9712107 146.557811,68.688263 147.869112,63.1404542 L160.654225,13.1347734 L185.694891,13.1347734 L185.694891,142.347637 L167.387214,142.347637 L167.387214,99.6045058 C167.387214,93.0480046 167.450256,86.743771 167.576343,80.691616 C167.702429,74.639461 167.866339,69.0791269 168.068078,64.0104471 C168.269816,58.9417673 168.496769,54.4657615 168.748942,50.5822953 C169.001115,46.6988292 169.228067,43.6223632 169.429806,41.3528051 L167.992426,41.3528051 L148.474324,125.704294 L136.067468,125.704294 L116.398063,41.3528051 L114.960683,41.3528051 C115.162422,43.6223632 115.389374,46.6988292 115.641547,50.5822953 C115.89372,54.4657615 116.120673,58.9417673 116.322411,64.0104471 C116.52415,69.0791269 116.68806,74.639461 116.814146,80.691616 C116.940233,86.743771 117.003275,93.0480046 117.003275,99.6045058 L117.003275,142.347637 L98.6955979,142.347637 L98.6955979,13.1347734 Z M220.039973,13.1347734 L242.584138,13.1347734 L266.490031,142.347637 L246.669322,142.347637 L243.113699,119.19826 L219.510412,119.19826 L216.106092,142.347637 L196.209732,142.347637 L220.039973,13.1347734 Z M240.844152,104.446206 L231.765965,40.0667286 L230.933798,40.0667286 L221.779959,104.446206 L240.844152,104.446206 Z M277.004871,13.1347734 L296.598625,13.1347734 L296.598625,69.5708367 L297.203838,69.5708367 L319.596699,13.1347734 L339.114802,13.1347734 L314.149787,73.7316725 L341.913909,142.347637 L320.958427,142.347637 L297.203838,80.8429191 L296.598625,80.8429191 L296.598625,142.347637 L277.004871,142.347637 L277.004871,13.1347734 Z M351.067022,13.1347734 L370.660776,13.1347734 L370.660776,142.347637 L351.067022,142.347637 L351.067022,13.1347734 Z M390.783364,13.1347734 L406.670192,13.1347734 L437.989937,99.6045058 L438.443847,99.6045058 C438.292543,97.5871208 438.090807,95.3428137 437.838634,92.871517 C437.586461,90.4002204 437.359509,87.5885322 437.15777,84.4363682 C436.956032,81.2842041 436.779513,77.7160079 436.628209,73.7316725 C436.476906,69.7473371 436.401255,65.2587228 436.401255,60.2656949 L436.401255,13.1347734 L453.952417,13.1347734 L453.952417,142.347637 L437.914286,142.347637 L406.745843,58.1474513 L406.140631,58.1474513 C406.291935,60.4170094 406.49367,62.8756605 406.745843,65.5234783 C406.998017,68.1712961 407.224969,71.2855875 407.426707,74.8664459 C407.628446,78.4473043 407.804965,82.6207069 407.956268,87.386779 C408.107572,92.1528511 408.183223,97.8140528 408.183223,104.370554 L408.183223,142.347637 L390.783364,142.347637 L390.783364,13.1347734 Z M500.174793,143.558062 C498.661754,143.558062 496.896569,143.394152 494.879184,143.066327 C492.861799,142.738502 490.781402,142.045036 488.63793,140.985909 C486.494459,139.926782 484.388845,138.426374 482.321025,136.484641 C480.253206,134.542908 478.399761,131.970781 476.760636,128.768182 C475.12151,125.565583 473.797621,121.631742 472.788929,116.966539 C471.780236,112.301336 471.275897,106.741002 471.275897,100.28537 L471.275897,54.5161764 C471.275897,48.0101098 471.805453,42.4497758 472.86458,37.8350076 C473.923707,33.2202394 475.335856,29.3368315 477.101068,26.1846674 C478.866279,23.0325033 480.896243,20.5234184 483.191018,18.6573372 C485.485794,16.7912561 487.868794,15.3664993 490.34009,14.3830241 C492.811387,13.3995489 495.25743,12.7565171 497.678292,12.4539094 C500.099154,12.1513016 502.343461,12 504.411281,12 C509.656482,12 514.082054,12.7186826 517.688129,14.1560694 C521.294205,15.5934563 524.219369,17.5603771 526.46371,20.0568911 C528.708051,22.553405 530.321935,25.4659609 531.30541,28.7946462 C532.288885,32.1233315 532.780615,35.6537023 532.780615,39.3858645 C532.780615,42.1597689 532.616705,44.7192877 532.28888,47.0644978 C531.961055,49.4097079 531.519759,51.9944436 530.964978,54.8187826 L515.305105,54.8187826 L515.305105,48.6910063 C515.305105,34.5188767 511.497348,27.4329181 503.88172,27.4329181 C501.8139,27.4329181 500.023498,27.7859552 498.510459,28.49204 C496.99742,29.1981247 495.736573,30.3959291 494.727881,32.085489 C493.719188,33.775049 492.975289,36.0067477 492.49616,38.780652 C492.017031,41.5545564 491.77747,45.0092764 491.77747,49.1449157 L491.77747,107.699223 C491.77747,111.733993 492.017031,115.087845 492.49616,117.76088 C492.975289,120.433915 493.70658,122.577355 494.690055,124.191263 C495.67353,125.805171 496.90916,126.952541 498.396982,127.633409 C499.884803,128.314276 501.662597,128.654705 503.730416,128.654705 C505.899105,128.654705 507.765159,128.087324 509.328632,126.952545 C510.892105,125.817766 512.178169,124.266924 513.186861,122.299974 C514.195554,120.333023 514.939453,118.013065 515.418582,115.34003 C515.897711,112.666995 516.137272,109.767048 516.137272,106.640101 L516.137272,89.7698031 L506.075615,89.7698031 L506.075615,76.909038 L535.201465,76.909038 L535.201465,142.347637 L522.189397,142.347637 L520.071153,130.092084 C517.599857,134.883374 514.762952,138.325485 511.560353,140.418522 C508.357754,142.511559 504.562606,143.558062 500.174793,143.558062 Z M32.8041788,181.118479 L12,181.118479 L12,165.685561 L73.12646,165.685561 L73.12646,181.118479 L52.3979327,181.118479 L52.3979327,294.898425 L32.8041788,294.898425 L32.8041788,181.118479 Z M84.3978163,165.685561 L103.99157,165.685561 L103.99157,219.776426 L127.216599,219.776426 L127.216599,165.685561 L146.810353,165.685561 L146.810353,294.898425 L127.216599,294.898425 L127.216599,235.209344 L103.99157,235.209344 L103.99157,294.898425 L84.3978163,294.898425 L84.3978163,165.685561 Z M167.084245,165.685561 L186.677998,165.685561 L186.677998,294.898425 L167.084245,294.898425 L167.084245,165.685561 Z M206.800587,165.685561 L222.687415,165.685561 L254.00716,252.155294 L254.46107,252.155294 C254.309766,250.137909 254.10803,247.893601 253.855857,245.422305 C253.603684,242.951008 253.376732,240.13932 253.174993,236.987156 C252.973255,233.834992 252.796736,230.266796 252.645432,226.28246 C252.494128,222.298125 252.418478,217.809511 252.418478,212.816483 L252.418478,165.685561 L269.969639,165.685561 L269.969639,294.898425 L253.931509,294.898425 L222.763066,210.698239 L222.157854,210.698239 C222.309158,212.967797 222.510893,215.426448 222.763066,218.074266 C223.015239,220.722084 223.242192,223.836375 223.44393,227.417234 C223.645669,230.998092 223.822187,235.171495 223.973491,239.937567 C224.124795,244.703639 224.200446,250.364841 224.200446,256.921342 L224.200446,294.898425 L206.800587,294.898425 L206.800587,165.685561 Z M316.192016,296.10885 C314.678977,296.10885 312.913792,295.944939 310.896407,295.617114 C308.879022,295.289289 306.798625,294.595824 304.655153,293.536697 C302.511682,292.477569 300.406068,290.977162 298.338248,289.035429 C296.270428,287.093696 294.416984,284.521568 292.777858,281.31897 C291.138733,278.116371 289.814844,274.182529 288.806151,269.517326 C287.797459,264.852124 287.29312,259.29179 287.29312,252.836158 L287.29312,207.066964 C287.29312,200.560897 287.822676,195.000563 288.881803,190.385795 C289.94093,185.771027 291.353078,181.887619 293.11829,178.735455 C294.883502,175.583291 296.913465,173.074206 299.208241,171.208125 C301.503016,169.342044 303.886017,167.917287 306.357313,166.933812 C308.82861,165.950337 311.274653,165.307305 313.695515,165.004697 C316.116377,164.702089 318.360684,164.550788 320.428503,164.550788 C325.673704,164.550788 330.099276,165.26947 333.705352,166.706857 C337.311428,168.144244 340.236592,170.111165 342.480933,172.607679 C344.725274,175.104193 346.339157,178.016749 347.322633,181.345434 C348.306108,184.674119 348.797838,188.20449 348.797838,191.936652 C348.797838,194.710557 348.633928,197.270075 348.306103,199.615285 C347.978278,201.960496 347.536982,204.545231 346.982201,207.36957 L331.322328,207.36957 L331.322328,201.241794 C331.322328,187.069664 327.514571,179.983706 319.898942,179.983706 C317.831123,179.983706 316.04072,180.336743 314.527682,181.042828 C313.014643,181.748912 311.753796,182.946717 310.745104,184.636277 C309.736411,186.325837 308.992512,188.557535 308.513383,191.33144 C308.034254,194.105344 307.794693,197.560064 307.794693,201.695703 L307.794693,260.25001 C307.794693,264.28478 308.034254,267.638633 308.513383,270.311668 C308.992512,272.984703 309.723803,275.128142 310.707278,276.74205 C311.690753,278.355958 312.926383,279.503329 314.414204,280.184196 C315.902026,280.865064 317.67982,281.205492 319.747639,281.205492 C321.916328,281.205492 323.782381,280.638111 325.345855,279.503332 C326.909328,278.368553 328.195392,276.817712 329.204084,274.850761 C330.212777,272.883811 330.956676,270.563853 331.435805,267.890818 C331.914934,265.217783 332.154495,262.317835 332.154495,259.190889 L332.154495,242.320591 L322.092838,242.320591 L322.092838,229.459826 L351.218688,229.459826 L351.218688,294.898425 L338.20662,294.898425 L336.088376,282.642872 C333.617079,287.434161 330.780174,290.876273 327.577576,292.96931 C324.374977,295.062347 320.579828,296.10885 316.192016,296.10885 Z M362.338741,268.722985 C362.338741,265.949081 362.502651,263.389562 362.830476,261.044352 C363.158301,258.699142 363.650032,256.16484 364.305682,253.44137 L379.511645,253.44137 L379.511645,259.720449 C379.511645,263.200439 379.725989,266.276905 380.154683,268.94994 C380.583378,271.622975 381.289452,273.87989 382.272927,275.720754 C383.256402,277.561618 384.567683,278.94855 386.206808,279.88159 C387.845933,280.814631 389.85068,281.281144 392.221107,281.281144 C395.953269,281.281144 398.802783,280.259858 400.769733,278.217256 C402.736684,276.174653 403.720144,273.186447 403.720144,269.252546 C403.720144,267.235161 403.581451,265.381716 403.304061,263.692156 C403.02667,262.002596 402.547548,260.32567 401.866681,258.661328 C401.185813,256.996985 400.265395,255.244408 399.105399,253.403544 C397.945403,251.56268 396.457603,249.5075 394.641957,247.237942 L374.216036,222.953792 C370.584743,218.313806 367.785663,213.636065 365.818713,208.920427 C363.851762,204.20479 362.868302,199.174011 362.868302,193.827941 C362.868302,189.540998 363.536551,185.607156 364.873068,182.026298 C366.209586,178.44544 368.138681,175.356365 370.660413,172.758982 C373.182144,170.161599 376.296435,168.144244 380.00338,166.706857 C383.710325,165.26947 387.908945,164.550788 392.599365,164.550788 C398.298478,164.550788 403.05187,165.35773 406.859684,166.971638 C410.667498,168.585546 413.706139,170.703768 415.975697,173.326369 C418.245255,175.948969 419.84653,178.886742 420.779571,182.139775 C421.712611,185.392809 422.179125,188.658402 422.179125,191.936652 C422.179125,194.710557 421.964781,197.270075 421.536086,199.615285 C421.107392,201.960496 420.615662,204.545231 420.060881,207.36957 L404.930569,207.36957 L404.930569,201.241794 C404.930569,194.382685 403.947109,189.124954 401.980158,185.468444 C400.013208,181.811934 396.810657,179.983706 392.37241,179.983706 C388.690683,179.983706 385.942037,181.004992 384.12639,183.047594 C382.310744,185.090196 381.402934,187.826234 381.402934,191.255788 C381.402934,193.071435 381.541627,194.710535 381.819018,196.17314 C382.096408,197.635744 382.499879,198.98485 383.029443,200.220498 C383.559006,201.456146 384.202038,202.653951 384.958557,203.813947 C385.715077,204.973943 386.572453,206.184356 387.53071,207.445222 L410.30183,234.98239 C414.437469,240.378894 417.614803,245.560974 419.833926,250.528785 C422.05305,255.496596 423.162595,260.754326 423.162595,266.302135 C423.162595,270.891686 422.443912,275.027263 421.006525,278.708991 C419.569139,282.390719 417.513958,285.517618 414.840923,288.089784 C412.167888,290.66195 408.940121,292.641479 405.157524,294.028432 C401.374927,295.415384 397.113265,296.10885 392.37241,296.10885 C386.521994,296.10885 381.667734,295.327125 377.809485,293.763651 C373.951236,292.200178 370.87477,290.132389 368.579995,287.560223 C366.285219,284.988057 364.671336,282.062893 363.738295,278.784642 C362.805254,275.506392 362.338741,272.15254 362.338741,268.722985 Z M497.450974,296.033198 C495.383154,296.033198 493.138847,295.869288 490.717985,295.541463 C488.297123,295.213638 485.901514,294.520172 483.531087,293.461045 C481.16066,292.401918 478.878527,290.90151 476.684621,288.959777 C474.490715,287.018044 472.549011,284.458525 470.859451,281.281144 C469.169891,278.103763 467.820785,274.182529 466.812092,269.517326 C465.8034,264.852124 465.299061,259.29179 465.299061,252.836158 L465.299061,207.066964 C465.299061,200.560897 465.816008,195.000563 466.849918,190.385795 C467.883828,185.771027 469.258151,181.887619 470.972928,178.735455 C472.687705,175.583291 474.642018,173.074206 476.835924,171.208125 C479.02983,169.342044 481.324571,167.917287 483.720216,166.933812 C486.115861,165.950337 488.498861,165.307305 490.869288,165.004697 C493.239716,164.702089 495.433589,164.550788 497.450974,164.550788 C499.36749,164.550788 501.498321,164.689481 503.843531,164.966871 C506.188741,165.244262 508.533916,165.849468 510.879126,166.782509 C513.224336,167.715549 515.506468,169.102481 517.725592,170.943344 C519.944715,172.784208 521.911636,175.280685 523.626414,178.432849 C525.341191,181.585013 526.715514,185.493638 527.749424,190.158841 C528.783333,194.824043 529.300281,200.460028 529.300281,207.066964 L529.300281,252.836158 C529.300281,259.241355 528.770725,264.751255 527.711598,269.366023 C526.652471,273.980792 525.265539,277.889416 523.550762,281.092015 C521.835985,284.294614 519.856455,286.866741 517.612115,288.808474 C515.367774,290.750207 513.073033,292.263223 510.727823,293.347568 C508.382613,294.431912 506.050046,295.150595 503.730053,295.503637 C501.410061,295.856679 499.317055,296.033198 497.450974,296.033198 Z M497.450974,281.281144 C499.36749,281.281144 501.044416,280.953324 502.481803,280.297674 C503.91919,279.642024 505.104385,278.507261 506.037426,276.893353 C506.970467,275.279445 507.676541,273.148615 508.15567,270.500797 C508.634799,267.852979 508.874359,264.511735 508.874359,260.476965 L508.874359,201.695703 C508.874359,197.560064 508.634799,194.105344 508.15567,191.33144 C507.676541,188.557535 506.970467,186.325837 506.037426,184.636277 C505.104385,182.946717 503.91919,181.748912 502.481803,181.042828 C501.044416,180.336743 499.36749,179.983706 497.450974,179.983706 C495.484024,179.983706 493.769272,180.336743 492.306668,181.042828 C490.844064,181.748912 489.633651,182.946717 488.675393,184.636277 C487.717135,186.325837 486.998453,188.557535 486.519324,191.33144 C486.040195,194.105344 485.800634,197.560064 485.800634,201.695703 L485.800634,260.476965 C485.800634,264.511735 486.040195,267.852979 486.519324,270.500797 C486.998453,273.148615 487.717135,275.279445 488.675393,276.893353 C489.633651,278.507261 490.844064,279.642024 492.306668,280.297674 C493.769272,280.953324 495.484024,281.281144 497.450974,281.281144 Z M545.867246,165.685561 L561.754073,165.685561 L593.073819,252.155294 L593.527728,252.155294 C593.376424,250.137909 593.174689,247.893601 592.922516,245.422305 C592.670343,242.951008 592.44339,240.13932 592.241652,236.987156 C592.039913,233.834992 591.863395,230.266796 591.712091,226.28246 C591.560787,222.298125 591.485136,217.809511 591.485136,212.816483 L591.485136,165.685561 L609.036298,165.685561 L609.036298,294.898425 L592.998167,294.898425 L561.829725,210.698239 L561.224512,210.698239 C561.375816,212.967797 561.577552,215.426448 561.829725,218.074266 C562.081898,220.722084 562.30885,223.836375 562.510589,227.417234 C562.712327,230.998092 562.888846,235.171495 563.04015,239.937567 C563.191454,244.703639 563.267105,250.364841 563.267105,256.921342 L563.267105,294.898425 L545.867246,294.898425 L545.867246,165.685561 Z M233.429936,333.669267 L212.625757,333.669267 L212.625757,318.236349 L273.752217,318.236349 L273.752217,333.669267 L253.02369,333.669267 L253.02369,447.449212 L233.429936,447.449212 L233.429936,333.669267 Z M285.023573,318.236349 L304.617327,318.236349 L304.617327,372.327214 L327.842356,372.327214 L327.842356,318.236349 L347.43611,318.236349 L347.43611,447.449212 L327.842356,447.449212 L327.842356,387.760132 L304.617327,387.760132 L304.617327,447.449212 L285.023573,447.449212 L285.023573,318.236349 Z M367.710002,318.236349 L415.597439,318.236349 L415.597439,333.669267 L387.303756,333.669267 L387.303756,372.327214 L409.167056,372.327214 L409.167056,387.760132 L387.303756,387.760132 L387.303756,432.016294 L416.353955,432.016294 L416.353955,447.449212 L367.710002,447.449212 L367.710002,318.236349 Z M58.9099384,470.787136 L78.5036923,470.787136 L78.5036923,600 L58.9099384,600 L58.9099384,470.787136 Z M98.6262809,470.787136 L114.513108,470.787136 L145.832854,557.256869 L146.286763,557.256869 C146.13546,555.239484 145.933724,552.995177 145.681551,550.52388 C145.429378,548.052583 145.202425,545.240895 145.000687,542.088731 C144.798948,538.936567 144.62243,535.368371 144.471126,531.384036 C144.319822,527.3997 144.244171,522.911086 144.244171,517.918058 L144.244171,470.787136 L161.795333,470.787136 L161.795333,600 L145.757202,600 L114.58876,515.799814 L113.983548,515.799814 C114.134851,518.069372 114.336587,520.528024 114.58876,523.175841 C114.840933,525.823659 115.067886,528.937951 115.269624,532.518809 C115.471363,536.099667 115.647881,540.27307 115.799185,545.039142 C115.950489,549.805214 116.02614,555.466416 116.02614,562.022917 L116.02614,600 L98.6262809,600 L98.6262809,470.787136 Z M193.870868,486.220055 L173.066689,486.220055 L173.066689,470.787136 L234.193149,470.787136 L234.193149,486.220055 L213.464622,486.220055 L213.464622,600 L193.870868,600 L193.870868,486.220055 Z M245.464506,470.787136 L293.351943,470.787136 L293.351943,486.220055 L265.058259,486.220055 L265.058259,524.878001 L286.92156,524.878001 L286.92156,540.31092 L265.058259,540.31092 L265.058259,584.567082 L294.108458,584.567082 L294.108458,600 L245.464506,600 L245.464506,470.787136 Z M306.287633,470.787136 L327.545721,470.787136 C329.966583,470.787136 332.62697,470.888004 335.526961,471.089743 C338.426952,471.291481 341.326899,471.783211 344.22689,472.564948 C347.126881,473.346685 349.925961,474.519272 352.624213,476.082746 C355.322466,477.646219 357.718075,479.789658 359.811112,482.513128 C361.904148,485.236598 363.581075,488.653493 364.84194,492.763914 C366.102806,496.874336 366.733229,501.854681 366.733229,507.705097 L366.733229,510.958115 C366.733229,520.792866 365.321081,528.799243 362.496742,534.977485 C359.672403,541.155726 355.511609,545.606515 350.014235,548.329985 L370.742762,600 L350.014235,600 L332.841331,551.658654 L325.503129,551.658654 L325.503129,600 L306.287633,600 L306.287633,470.787136 Z M328.45354,537.511812 C331.883095,537.511812 334.783042,537.133558 337.153469,536.377039 C339.523897,535.620519 341.440384,534.347064 342.902988,532.556635 C344.365592,530.766206 345.424703,528.395814 346.080353,525.445388 C346.736004,522.494963 347.063824,518.851116 347.063824,514.513738 L347.063824,504.300777 C347.063824,500.972092 346.761221,498.097362 346.156005,495.6765 C345.55079,493.255638 344.529504,491.2635 343.092117,489.700026 C341.65473,488.136553 339.750852,486.976574 337.380424,486.220055 C335.009997,485.463535 332.034399,485.085281 328.45354,485.085281 L325.503129,485.085281 L325.503129,537.511812 L328.45354,537.511812 Z M383.602801,470.787136 L399.489628,470.787136 L430.809374,557.256869 L431.263283,557.256869 C431.111979,555.239484 430.910244,552.995177 430.658071,550.52388 C430.405898,548.052583 430.178945,545.240895 429.977207,542.088731 C429.775468,538.936567 429.59895,535.368371 429.447646,531.384036 C429.296342,527.3997 429.220691,522.911086 429.220691,517.918058 L429.220691,470.787136 L446.771853,470.787136 L446.771853,600 L430.733722,600 L399.56528,515.799814 L398.960067,515.799814 C399.111371,518.069372 399.313107,520.528024 399.56528,523.175841 C399.817453,525.823659 400.044405,528.937951 400.246144,532.518809 C400.447882,536.099667 400.624401,540.27307 400.775705,545.039142 C400.927009,549.805214 401.002659,555.466416 401.002659,562.022917 L401.002659,600 L383.602801,600 L383.602801,470.787136 Z M466.894442,470.787136 L514.781879,470.787136 L514.781879,486.220055 L486.488196,486.220055 L486.488196,524.878001 L508.351496,524.878001 L508.351496,540.31092 L486.488196,540.31092 L486.488196,584.567082 L515.538394,584.567082 L515.538394,600 L466.894442,600 L466.894442,470.787136 Z M539.670516,486.220055 L518.866337,486.220055 L518.866337,470.787136 L579.992797,470.787136 L579.992797,486.220055 L559.26427,486.220055 L559.26427,600 L539.670516,600 L539.670516,486.220055 Z" id="MAKING-THINGS-ON-THE" class="akLvYxjA_0"></path>
        </g>
    </g>
<style data-made-with="vivus-instant">.akLvYxjA_0{stroke-dasharray:13338 13340;stroke-dashoffset:13339;animation:akLvYxjA_draw 30000ms ease-in-out 0ms backwards;}@keyframes akLvYxjA_draw{100%{stroke-dashoffset:0;}}@keyframes akLvYxjA_fade{0%{stroke-opacity:1;}99.2619926199262%{stroke-opacity:1;}100%{stroke-opacity:0;}}</style></svg>
